<svg xmlns="http://www.w3.org/2000/svg" viewBox="0 0 391.95 190.32"><defs><style>.cls-1{fill:#fff;}.cls-2{fill:#ff5a23;}</style></defs><g id="art"><path class="cls-1" d="M207.25,93.09c0,8.06-3.81,12.87-10.19,12.87s-10.13-4.69-10.13-12.87V81.7h10.13c6.76,0,10.19,3.83,10.19,11.39M197.06,73H176.8V93.09c0,13.52,7.57,21.59,20.26,21.59,12.53,0,20.32-8.27,20.32-21.59,0-13-7.22-20.12-20.32-20.12"/><path class="cls-1" d="M223.13,81.7H252V95.43c0,8.57-2.31,10.19-6.57,10.19a19.63,19.63,0,0,1-5.58-.92l-.43-.13-1.17,8.53.31.09a26.69,26.69,0,0,0,8.2,1.16c10,0,15-6.07,15-18V73h-38.7Z"/><polygon class="cls-1" points="223.46 124.52 233.33 124.52 233.33 89.78 223.46 91.01 223.46 124.52"/><polygon class="cls-1" points="267.91 97.95 278.05 96.36 278.05 72.97 267.91 72.97 267.91 97.95"/><path class="cls-1" d="M290.58,73H284.1V81.7h3.6c3.26,0,4.37,1.5,4.37,6v17.48h-9.24v8.73H302.2V85.13c0-8.41-3.59-12.16-11.62-12.16"/><path class="cls-1" d="M326.79,72.23c-11.47,0-18.59,5.58-18.59,14.57A12.15,12.15,0,0,0,312.14,96c3.3,3.06,8.3,4.51,14.07,4.08l.34,0,.3-8-.42,0c-2.95.19-5.25-.41-6.65-1.74a4.57,4.57,0,0,1-1.44-3.5c0-3.74,3.16-6,8.45-6,6.71,0,11.06,4.82,11.06,12.27,0,8-4.78,12.93-12.47,12.93A33.9,33.9,0,0,1,313,103.84l-.38-.15-2.58,8,.32.13a38.1,38.1,0,0,0,15.14,2.85c14.07,0,22.47-8.05,22.47-21.53,0-12.87-8.12-20.86-21.19-20.86"/><path class="cls-1" d="M371,73H353.85V81.7H371c7.71,0,10.86,3.68,10.86,12.73v19.45H392V94.43C392,79.59,385.48,73,371,73"/><polygon class="cls-1" points="354.18 113.88 364.31 113.88 364.31 90.78 354.18 92.15 354.18 113.88"/><path class="cls-2" d="M166.3.09A96.05,96.05,0,0,0,66.83,84.62c-.1.87-1,1.32-1.92.61-3.8-3-11.32-8.28-17.75-10.87,0,0,0,0,0,0A11.55,11.55,0,0,0,54,66.39c.74-3.12-.89-5.33-4.18-4.23C41.47,64.94,32.69,65.27,24,65.45c-4.43.09-8.86,0-13.29,0-2.17,0-4.38-.18-6.55-.07-5.86.3-4.65,5.25-1.35,5.87a82.25,82.25,0,0,1,8.17,2,86.4,86.4,0,0,1,9.49,3.41A95.24,95.24,0,0,1,46.88,93.15l0,0a99,99,0,0,1,18.57,22.22c2.67,4.32,5.12,10.43,7.11,15.26.33.87,1.18,2.94,1.24,3a96,96,0,0,0,69.68,56.57,2.42,2.42,0,0,0,1.51-4.56A96,96,0,0,1,166.7,4.88a2.42,2.42,0,0,0-.4-4.79"/><path class="cls-1" d="M160.25,33.5a58.13,58.13,0,0,1,32.95,9.24,1.67,1.67,0,0,1,.05,2.78l-.07,0a1.57,1.57,0,0,1-1.24.26,72.5,72.5,0,0,0-10.62-1.21,71.71,71.71,0,0,0-73.41,59.27,1.65,1.65,0,0,1-.68,1.08,1.67,1.67,0,0,1-2.58-1,58.31,58.31,0,0,1,55.6-70.42"/></g><g id="con"><path class="cls-2" d="M202,150.33a9.32,9.32,0,0,0-8.54-5.12c-3.79,0-6.32,1.33-6.32,3.93,0,2.9,2.75,4,9.29,5.65,8.39,2.08,14.18,5,14.18,13,0,8.62-8.47,12.41-16.49,12.41-8.76,0-15.37-3.35-17.74-10.4l8-4a10.18,10.18,0,0,0,9.87,6.39c3.79,0,6.61-1.42,6.61-4.53,0-2.9-2.67-3.94-7.8-5.28-6.31-1.63-15.59-4.38-15.59-12.7s7.87-12.32,16.26-12.32,14,4,16.34,9.58Z"/><path class="cls-2" d="M278.44,152.93v26.22h-9.81v-25c0-5.05-3.19-8.46-7.65-8.46-4.68,0-7.87,3.41-7.87,8.46v25h-9.8v-25c0-5.05-3.19-8.46-7.65-8.46-4.68,0-7.87,3.41-7.87,8.46v25H218V138.3h9.81V143c2.52-3.42,6.38-5.35,11.36-5.35,5.64,0,9.65,2.6,11.66,7.06,2.67-4.46,7.35-7.06,13.44-7.06C272.72,137.63,278.44,143.2,278.44,152.93Z"/><path class="cls-2" d="M320.75,155.6v23.55H310.8v-2.68A17.21,17.21,0,0,1,300,179.89c-9.73,0-16.71-5.94-16.71-14.11s7-14.19,16.71-14.19A17.28,17.28,0,0,1,310.8,155c-.22-6.68-4.08-9.58-10.39-9.58a24.12,24.12,0,0,0-12.26,3.64L285,142.31a33.22,33.22,0,0,1,17.15-4.83C313.55,137.48,320.75,142.68,320.75,155.6Zm-9.58,10c0-4.23-3.63-7.2-9-7.2s-9.06,3-9.06,7.2,3.71,7.2,9.06,7.2S311.17,169.86,311.17,165.63Z"/><path class="cls-2" d="M351.56,138v9.21c-7.2-.59-14.71,3.42-14.71,14.11v17.83h-9.8V138.3h8.32l.82,8.54.14.08C338.41,141.05,344.5,137.41,351.56,138Z"/><path class="cls-2" d="M380.58,170.61v8.54h-7.2c-8.76,0-12.4-4.53-12.4-12.41V146h-4.76V138.3H361v-8.47l9.8-1.85V138.3h8.69V146h-8.69V163.4c0,5.27,1.48,7.21,6.16,7.21Z"/></g></svg>