<?xml version="1.0" encoding="UTF-8"?>
<svg xmlns="http://www.w3.org/2000/svg" xmlns:xlink="http://www.w3.org/1999/xlink" xmlns:svgjs="http://svgjs.com/svgjs" version="1.1" width="512" height="512" x="0" y="0" viewBox="0 0 48 48" style="enable-background:new 0 0 512 512" xml:space="preserve" class="">
  <g>
    <g xmlns="http://www.w3.org/2000/svg" id="00-38-apps,-arrange,-array,-grid,-layout,-menu,-view" fill="none" fill-rule="evenodd">
      <path id="Shape" d="m39 25c1.5976809 0 2.9949073 1.3006635 3 3v11c0 1.5976809-1.284494 3-3 3h-11c-1.5976809 0-2.9949073-1.3016253-3-3v-11c0-1.5976809 1.2882162-3 3-3zm-19 0c1.5976809 0 2.9949073 1.3006635 3 3v11c0 1.5976809-1.284494 3-3 3h-11c-1.59768088 0-2.99490731-1.3016253-3-3v-11c0-1.5976809 1.2882162-3 3-3zm19 2h-11c-.5128358 0-1 .4163921-1 1v11c0 .5128358.4027537 1 1 1h11c.5128358 0 1-.4027433 1-1v-11c0-.5128358-.3932747-1-1-1zm-19 0h-11c-.51283584 0-1 .4163921-1 1v11c0 .5128358.40275373 1 1 1h11c.5128358 0 1-.4027433 1-1v-11c0-.5128358-.3932747-1-1-1zm19-21c1.5976809 0 2.9949073 1.30066351 3 3v11c0 1.5976809-1.284494 3-3 3h-11c-1.5976809 0-2.9949073-1.3016253-3-3v-11c0-1.59768088 1.2882162-3 3-3zm-19 0c1.5976809 0 2.9949073 1.30066351 3 3v11c0 1.5976809-1.284494 3-3 3h-11c-1.59768088 0-2.99490731-1.3016253-3-3v-11c0-1.59768088 1.2882162-3 3-3zm19 2h-11c-.5128358 0-1 .41639213-1 1v11c0 .5128358.4027537 1 1 1h11c.5128358 0 1-.4027433 1-1v-11c0-.51283584-.3932747-1-1-1zm-19 0h-11c-.51283584 0-1 .41639213-1 1v11c0 .5128358.40275373 1 1 1h11c.5128358 0 1-.4027433 1-1v-11c0-.51283584-.3932747-1-1-1z" fill="#011d39" fill-rule="nonzero" data-original="#000000" class=""/>
    </g>
  </g>
</svg>
