<?xml version="1.0" encoding="UTF-8"?>
<svg xmlns="http://www.w3.org/2000/svg" xmlns:xlink="http://www.w3.org/1999/xlink" xmlns:svgjs="http://svgjs.com/svgjs" version="1.1" width="512" height="512" x="0" y="0" viewBox="0 0 32 32" style="enable-background:new 0 0 512 512" xml:space="preserve" class="">
  <g>
    <g xmlns="http://www.w3.org/2000/svg" id="Layer_31">
      <path d="m24 3h-16c-2.7568 0-5 2.2432-5 5v16c0 2.7568 2.2432 5 5 5h16c2.7568 0 5-2.2432 5-5v-16c0-2.7568-2.2432-5-5-5zm3 21c0 1.6543-1.3457 3-3 3h-16c-1.6543 0-3-1.3457-3-3v-16c0-1.6543 1.3457-3 3-3h16c1.6543 0 3 1.3457 3 3z" fill="#ffffff" data-original="#000000" class=""/>
      <path d="m19.3535 10.3535-.7069-.707c-.1953-.1953-.5118-.1953-.7072 0l-5.6464 5.6465c-.3905.3904-.3905 1.0236 0 1.4141l5.6464 5.6464c.1953.1953.5118.1953.7072 0l.7069-.707c.1953-.1953.1953-.5118 0-.7071l-4.9394-4.9394 4.9394-4.9395c.1953-.1952.1953-.5118 0-.707z" fill="#ffffff" data-original="#000000" class=""/>
    </g>
  </g>
</svg>
