<svg id="Layer_1" enable-background="new 0 0 512 512" height="512" viewBox="0 0 512 512" width="512" xmlns="http://www.w3.org/2000/svg"><g clip-rule="evenodd" fill-rule="evenodd"><ellipse cx="256" cy="256" fill="#0cb0ff" rx="240" ry="240" transform="matrix(.707 -.707 .707 .707 -106.039 256)"/><path d="m491.836 300.654c-20.087 106.737-110.829 188.523-221.795 194.926l-176.825-176.824 72.93-61.365 40.506 40.506h60.455l-104.297-104.298v-41.719h142.105c29.064 0 55.132 13.352 72.378 34.231z" fill="#0092d8"/><path d="m166.146 257.39v40.506h138.769c28.64 0 52.149-23.509 52.149-52.148 0-28.64-23.509-52.149-52.149-52.149h-142.105v-41.719h142.105c51.669 0 93.868 42.199 93.868 93.868s-42.199 93.868-93.868 93.868h-138.769v40.506l-72.93-61.366z" fill="#fff"/></g></svg>