<?xml version="1.0" encoding="UTF-8"?>
<svg xmlns="http://www.w3.org/2000/svg" xmlns:xlink="http://www.w3.org/1999/xlink" xmlns:svgjs="http://svgjs.com/svgjs" version="1.1" width="512" height="512" x="0" y="0" viewBox="0 0 490.667 490.667" style="enable-background:new 0 0 512 512" xml:space="preserve" class="">
  <g transform="matrix(-1,0,0,1,490.6669921875,0)">
<g xmlns="http://www.w3.org/2000/svg">
	<g>
		<g>
			<path d="M480,0H10.667C4.776,0,0,4.776,0,10.667V480c0,5.891,4.776,10.667,10.667,10.667H480c5.891,0,10.667-4.776,10.667-10.667     V10.667C490.667,4.776,485.891,0,480,0z M469.333,469.333h-448v-448h448V469.333z" fill="#ffffff" data-original="#000000" class=""/>
			<path d="M173.792,380.875c4.165,4.164,10.917,4.164,15.083,0l128-128c4.164-4.165,4.164-10.917,0-15.083l-128-128     c-4.237-4.093-10.99-3.975-15.083,0.262c-3.992,4.134-3.992,10.687,0,14.82l120.459,120.459L173.792,365.792     C169.628,369.957,169.628,376.709,173.792,380.875z" fill="#ffffff" data-original="#000000" class=""/>
		</g>
	</g>
</g>















</g>
</svg>
