<?xml version="1.0" encoding="UTF-8"?>
<svg xmlns="http://www.w3.org/2000/svg" xmlns:xlink="http://www.w3.org/1999/xlink" xmlns:svgjs="http://svgjs.com/svgjs" version="1.1" width="512" height="512" x="0" y="0" viewBox="0 0 512 512" style="enable-background:new 0 0 512 512" xml:space="preserve" class="">
  <g>
    <g xmlns="http://www.w3.org/2000/svg" clip-rule="evenodd" fill-rule="evenodd">
      <circle cx="256" cy="256" fill="#0cb0ff" r="240" data-original="#46cc6b" class=""/>
      <path d="m495.982 257.409c-.757 131.427-107.145 237.815-238.572 238.573l-133.377-133.376c-1.602-1.319-2.623-3.316-2.623-5.552 0-3.973 3.227-7.194 7.211-7.194h56.76v-6.366c0-5.832 3.048-10.973 7.632-13.91l-68.979-68.979c-1.602-1.319-2.623-3.315-2.623-5.55 0-3.976 3.227-7.194 7.211-7.194h82.727l-87.826-87.826c-1.305-1.302-2.111-3.1-2.111-5.088 0-3.973 3.227-7.194 7.211-7.194h42.591v-6.366c0-9.093 7.435-16.509 16.526-16.509h.702c4.829 0 9.183 2.093 12.204 5.418l17.457 17.457h165.279c2.241 0 4.242 1.019 5.565 2.618z" fill="#0092d8" data-original="#179c5f" class=""/>
      <path d="m323.449 247.861h59.93c3.984 0 7.211 3.218 7.211 7.194 0 3.973-3.227 7.191-7.211 7.191h-59.93v6.369c0 9.093-7.407 16.509-16.525 16.509h-.673c-9.091 0-16.526-7.416-16.526-16.509v-6.47c-.365.067-.786.101-1.178.101h-159.926c-3.984 0-7.211-3.218-7.211-7.191 0-3.976 3.227-7.194 7.211-7.194h159.926c.393 0 .814.037 1.178.096v-6.462c0-9.096 7.435-16.512 16.526-16.512h.673c9.118 0 16.525 7.415 16.525 16.512zm-194.828-85.72c-3.984 0-7.211-3.218-7.211-7.194 0-3.973 3.227-7.194 7.211-7.194h42.591v-6.366c0-9.093 7.435-16.509 16.526-16.509h.702c9.09 0 16.498 7.415 16.498 16.509v6.597c.561-.152 1.178-.23 1.796-.23h176.648c3.984 0 7.211 3.221 7.211 7.194 0 3.976-3.227 7.194-7.211 7.194h-176.65c-.617 0-1.234-.079-1.796-.227v6.593c0 9.096-7.407 16.511-16.498 16.511h-.702c-9.09 0-16.526-7.415-16.526-16.511v-6.366h-42.589zm73.958 164.844h-.702c-9.09 0-16.498 7.415-16.498 16.509v6.366h-56.76c-3.984 0-7.211 3.221-7.211 7.194 0 3.976 3.227 7.194 7.211 7.194h56.76v6.366c0 9.093 7.407 16.509 16.498 16.509h.702c9.09 0 16.497-7.415 16.497-16.509v-6.487c.421.079.87.121 1.319.121h162.984c3.984 0 7.211-3.218 7.211-7.194 0-3.973-3.227-7.194-7.211-7.194h-162.984c-.449 0-.898.042-1.319.121v-6.487c.001-9.094-7.407-16.509-16.497-16.509z" fill="#ffffff" data-original="#ffffff"/>
    </g>
  </g>
</svg>
