<?xml version="1.0" encoding="UTF-8"?>
<svg xmlns="http://www.w3.org/2000/svg" xmlns:xlink="http://www.w3.org/1999/xlink" xmlns:svgjs="http://svgjs.com/svgjs" version="1.1" width="512" height="512" x="0" y="0" viewBox="0 0 512 512" style="enable-background:new 0 0 512 512" xml:space="preserve" class="">
  <g>
    <g xmlns="http://www.w3.org/2000/svg" clip-rule="evenodd" fill-rule="evenodd">
      <ellipse cx="256" cy="256" fill="#0cb0ff" rx="240" ry="240" transform="matrix(.707 -.707 .707 .707 -106.039 256)" data-original="#ffd53d" class=""/>
      <path d="m491.781 300.94c-18.286 96.509-94.346 172.568-190.862 190.845l-151.322-151.321c-.753-.652-1.41-1.441-1.937-2.355-6.201-10.735-10.74-18.602-16.941-29.337-2.106-3.65-1.455-8.125 1.6-11.024l24.002-22.757c-1.165-6.15-1.782-12.499-1.782-18.992s.617-12.839 1.782-18.992l-24.002-22.754c-3.055-2.896-3.707-7.374-1.6-11.018 6.201-10.743 10.74-18.607 16.941-29.345 2.105-3.65 6.308-5.322 10.345-4.124l31.721 9.41c9.568-8.26 20.699-14.758 32.885-19.009l7.704-32.148c.981-4.096 4.533-6.902 8.745-6.902h33.881c2.632 0 5.007 1.096 6.657 2.918l52.289 52.289 22.108-6.559c3.533-1.048 7.192.101 9.463 2.85z" fill="#0092d8" data-original="#dbad09" class=""/>
      <path d="m130.72 203.236c-2.106 3.645-1.455 8.123 1.6 11.018l24.002 22.754c-1.165 6.153-1.782 12.499-1.782 18.992s.617 12.842 1.782 18.992l-24.002 22.757c-3.055 2.898-3.707 7.373-1.6 11.024 6.201 10.735 10.74 18.602 16.941 29.337 2.105 3.653 6.307 5.325 10.345 4.124l31.721-9.41c9.568 8.26 20.699 14.764 32.885 19.009l7.704 32.156c.981 4.094 4.533 6.894 8.744 6.894h33.882c4.211 0 7.764-2.8 8.744-6.894l7.705-32.156c12.185-4.245 23.316-10.743 32.884-19.009l31.721 9.41c4.038 1.201 8.241-.471 10.346-4.119 6.2-10.741 10.74-18.608 16.94-29.342 2.106-3.65 1.457-8.125-1.6-11.024l-24.002-22.757c1.166-6.15 1.783-12.499 1.783-18.992s-.616-12.839-1.783-18.992l24.002-22.754c3.057-2.896 3.707-7.374 1.601-11.018-6.201-10.743-10.739-18.607-16.941-29.345-2.105-3.65-6.308-5.322-10.346-4.124l-31.721 9.41c-9.567-8.26-20.698-14.758-32.884-19.009l-7.704-32.148c-.981-4.096-4.534-6.902-8.745-6.902-12.402 0-21.479 0-33.881 0-4.212 0-7.764 2.806-8.745 6.902l-7.704 32.148c-12.186 4.251-23.317 10.749-32.885 19.009l-31.721-9.41c-4.036-1.198-8.239.474-10.345 4.124-6.202 10.737-10.74 18.602-16.941 29.345zm125.279-8.454c33.811 0 61.22 27.409 61.22 61.218 0 33.812-27.409 61.218-61.22 61.218-33.81 0-61.22-27.406-61.22-61.218.001-33.809 27.41-61.218 61.22-61.218z" fill="#ffffff" data-original="#ffffff" class=""/>
    </g>
  </g>
</svg>
