<svg id="Layer_1" enable-background="new 0 0 512 512" height="512" viewBox="0 0 512 512" width="512" xmlns="http://www.w3.org/2000/svg"><g clip-rule="evenodd" fill-rule="evenodd"><circle cx="256" cy="256" fill="#46cc6b" r="240"/><path d="m495.906 262.598c-3.436 127.299-105.994 229.862-233.291 233.307l-107.118-107.118c-6.401-5.283-10.5-13.265-10.5-22.156v-221.262c0-15.806 12.953-28.74 28.77-28.74h164.494c8.897 0 16.879 4.092 22.161 10.485z" fill="#179c5f"/><path d="m328.198 285.98c3.627 0 6.599 2.97 6.599 6.61v54.919c0 3.641-2.972 6.608-6.599 6.608h-24.707c-3.627 0-6.599-2.967-6.599-6.608v-54.919c0-3.641 2.972-6.61 6.599-6.61zm-59.831-46.335c3.627 0 6.599 2.97 6.599 6.61v8.587c0 3.641-2.972 6.608-6.599 6.608h-24.707c-3.627 0-6.6-2.967-6.6-6.608v-8.587c0-3.641 2.973-6.61 6.6-6.61zm-59.858 0c3.654 0 6.627 2.97 6.627 6.61v8.587c0 3.641-2.972 6.608-6.627 6.608h-24.679c-3.627 0-6.6-2.967-6.6-6.608v-8.587c0-3.641 2.972-6.61 6.6-6.61zm59.858 46.335c3.627 0 6.599 2.97 6.599 6.61v8.59c0 3.632-2.972 6.602-6.599 6.602h-24.707c-3.627 0-6.6-2.97-6.6-6.602v-8.59c0-3.641 2.973-6.61 6.6-6.61zm-59.858 0c3.654 0 6.627 2.97 6.627 6.61v8.59c0 3.632-2.972 6.602-6.627 6.602h-24.679c-3.627 0-6.6-2.97-6.6-6.602v-8.59c0-3.641 2.972-6.61 6.6-6.61zm59.858 46.332c3.627 0 6.599 2.972 6.599 6.608v8.59c0 3.641-2.972 6.608-6.599 6.608h-24.707c-3.627 0-6.6-2.967-6.6-6.608v-8.59c0-3.635 2.973-6.608 6.6-6.608zm-59.858 0c3.654 0 6.627 2.972 6.627 6.608v8.59c0 3.641-2.972 6.608-6.627 6.608h-24.679c-3.627 0-6.6-2.967-6.6-6.608v-8.59c0-3.635 2.972-6.608 6.6-6.608zm119.689-92.667c3.627 0 6.599 2.97 6.599 6.61v8.587c0 3.641-2.972 6.608-6.599 6.608h-24.707c-3.627 0-6.599-2.967-6.599-6.608v-8.587c0-3.641 2.972-6.61 6.599-6.61zm.491-81.765c3.654 0 6.599 2.97 6.599 6.607v31.508c0 3.641-2.945 6.607-6.599 6.607h-145.35c-3.654 0-6.6-2.967-6.6-6.607v-31.508c0-3.638 2.945-6.607 6.6-6.607zm9.572-41.251h-164.494c-15.817 0-28.77 12.935-28.77 28.74v221.263c0 15.806 12.953 28.74 28.77 28.74h164.494c15.817 0 28.743-12.934 28.743-28.74v-221.263c0-15.809-12.926-28.74-28.743-28.74z" fill="#fff"/></g></svg>