<svg id="Layer_1" enable-background="new 0 0 512 512" height="512" viewBox="0 0 512 512" width="512" xmlns="http://www.w3.org/2000/svg"><g clip-rule="evenodd" fill-rule="evenodd"><circle cx="256" cy="256" fill="#0cb0ff" r="240"/><path d="m484.777 328.703c-6.516 20.523-15.715 39.849-27.188 57.568l-108.064-108.064c-.711-.646-1.389-1.325-2.035-2.035-4.842-5.328-7.794-12.405-7.794-20.171 0-16.569 13.432-30 30-30 8.802 0 16.719 3.791 22.207 9.829zm-39.19 74.458-168.374-168.374c-5.429-5.429-12.929-8.787-21.213-8.787-16.568 0-30 13.432-30 30 0 8.284 3.358 15.784 8.787 21.213l168.374 168.374c15.846-12.319 30.108-26.58 42.426-42.426zm-59.316 54.428-221.76-221.76c-.646-.711-1.325-1.389-2.035-2.035-5.328-4.842-12.405-7.794-20.171-7.794-16.568 0-30 13.432-30 30 0 8.802 3.791 16.719 9.829 22.207l206.57 206.57c20.521-6.518 39.849-15.714 57.567-27.188z" fill="#0092d8"/><path d="m399.696 256c0 16.568-13.432 30-30 30s-30-13.432-30-30c0-16.569 13.432-30 30-30s30 13.431 30 30zm-113.696 0c0 16.568-13.432 30-30 30s-30-13.432-30-30c0-16.569 13.432-30 30-30s30 13.431 30 30zm-113.696 0c0 16.568-13.432 30-30 30s-30-13.432-30-30c0-16.569 13.432-30 30-30 16.569 0 30 13.431 30 30z" fill="#fff"/></g></svg>