<svg id="Layer_4" height="512" viewBox="0 0 64 64" width="512" xmlns="http://www.w3.org/2000/svg" data-name="Layer 4"><path d="m37 56v-32a2 2 0 0 0 -2-2h-18a2 2 0 0 0 -2 2v32z" fill="#c8cded"/><path d="m34 51v-29h-17a2 2 0 0 0 -2 2v29h17a2 2 0 0 0 2-2z" fill="#e2e7f6"/><path d="m35 22h-18a2 2 0 0 0 -2 2v8h22v-8a2 2 0 0 0 -2-2z" fill="#4c6cb5"/><path d="m34 30v-8h-17a2 2 0 0 0 -2 2v6z" fill="#5e87ca"/><path d="m25.07 6h-21.07a2 2 0 0 1 -2-2 2 2 0 0 1 2-2h56a2 2 0 0 1 2 2 2 2 0 0 1 -2 2z" fill="#213d68"/><path d="m59 2h-55a2 2 0 0 0 -2 2h57z" fill="#3b5892"/><path d="m2 56h60v6h-60z" fill="#474747"/><path d="m2 56h57v3h-57z" fill="#686868"/><path d="m59 6v8h-20.07-13.86-20.07v-8" fill="#c0dafc"/><path d="m23.07 12h13.86 20.07v-6h-52v6z" fill="#f7fafd"/><circle cx="32" cy="10" fill="#3b5892" r="8"/><path d="m38.5 9a7.976 7.976 0 0 0 -2.84-6.108 7.995 7.995 0 0 0 -8.82 13.216 7.991 7.991 0 0 0 11.66-7.108z" fill="#4c6cb5"/><path d="m27 36-6 9h5l-2 7 7-10h-4z" fill="#213d68"/><path d="m26 45-1.31 4.586 5.31-7.586h-3-1v-4.5l-5 7.5h4z" fill="#3b5892"/><path d="m18 25h2v4h-2z" fill="#c0dafc"/><path d="m22 25h2v4h-2z" fill="#c0dafc"/><path d="m7 14h4v42h-4z" fill="#4c6cb5"/><path d="m7 14h2v41h-2z" fill="#5e87ca"/><path d="m53 14h4v42h-4z" fill="#4c6cb5"/><path d="m53 14h2v41h-2z" fill="#5e87ca"/><path d="m32 6-2.4 3.2a3 3 0 0 0 -.6 1.8 3 3 0 0 0 3 3 3 3 0 0 0 3-3 3 3 0 0 0 -.6-1.8z" fill="#c0dafc"/><path d="m37 42h4v8h-4z" fill="#3b5892"/><path d="m49 53h-4a1 1 0 0 1 -1-1v-5h-3v-2h3v-13h2v13h3a1 1 0 0 1 1 1v6a1 1 0 0 1 -1 1zm-3-2h2v-4h-2z" fill="#4c6cb5"/><path d="m42 26h6a0 0 0 0 1 0 0v4a2 2 0 0 1 -2 2h-2a2 2 0 0 1 -2-2v-4a0 0 0 0 1 0 0z" fill="#3b5892"/><path d="m42 22h2v4h-2z" fill="#c8cded"/><path d="m46 22h2v4h-2z" fill="#c8cded"/><path d="m33.985 8.647-1.985-2.647-2.4 3.2a2.933 2.933 0 0 0 -.51 2.5 3.481 3.481 0 0 0 4.895-3.052z" fill="#f7fafd"/><g fill="#4c6cb5"><path d="m37 42h3v6h-3z"/><path d="m47 26h-5v4h4a1 1 0 0 0 1-1z"/></g></svg>