<?xml version="1.0"?>
<svg xmlns="http://www.w3.org/2000/svg" xmlns:xlink="http://www.w3.org/1999/xlink" xmlns:svgjs="http://svgjs.com/svgjs" version="1.1" width="512" height="512" x="0" y="0" viewBox="0 0 409 409.6" style="enable-background:new 0 0 512 512" xml:space="preserve" class=""><g><path xmlns="http://www.w3.org/2000/svg" d="m225.578125 402.773438h-218.453125v-322.355469c0-18.023438 14.609375-32.632813 32.632812-32.632813h153.195313c18.019531 0 32.625 14.609375 32.625 32.632813zm0 0" fill="#428dff" data-original="#0e65e5" class=""/><path xmlns="http://www.w3.org/2000/svg" d="m225.578125 409.601562h-218.453125c-3.769531 0-6.824219-3.054687-6.824219-6.828124v-322.359376c0-21.753906 17.699219-39.453124 39.457031-39.453124h153.191407c21.757812 0 39.457031 17.699218 39.457031 39.453124v322.359376c0 3.773437-3.054688 6.828124-6.828125 6.828124zm-211.625-13.65625h204.800781v-315.53125c0-14.226562-11.578125-25.800781-25.804687-25.800781h-153.191407c-14.226562 0-25.804687 11.574219-25.804687 25.800781zm0 0" fill="#428dff" data-original="#0e65e5" class=""/><path xmlns="http://www.w3.org/2000/svg" d="m246.058594 402.773438h-218.453125v-322.355469c0-18.023438 14.609375-32.632813 32.632812-32.632813h153.195313c18.015625 0 32.625 14.609375 32.625 32.632813zm0 0" fill="#d7e9ff" data-original="#d7e9ff" class=""/><path xmlns="http://www.w3.org/2000/svg" d="m246.058594 409.601562h-218.453125c-3.769531 0-6.824219-3.054687-6.824219-6.828124v-322.359376c0-21.753906 17.699219-39.453124 39.457031-39.453124h153.191407c21.757812 0 39.457031 17.699218 39.457031 39.453124v322.359376c0 3.773437-3.058594 6.828124-6.828125 6.828124zm-211.625-13.65625h204.800781v-315.53125c0-14.226562-11.578125-25.800781-25.804687-25.800781h-153.191407c-14.230469 0-25.804687 11.574219-25.804687 25.800781zm0 0" fill="#428dff" data-original="#0e65e5" class=""/><path xmlns="http://www.w3.org/2000/svg" d="m225.578125 389.121094c-3.769531 0-6.824219-3.054688-6.824219-6.828125v-109.226563c0-3.773437 3.054688-6.828125 6.824219-6.828125 3.773437 0 6.828125 3.054688 6.828125 6.828125v109.226563c0 3.773437-3.054688 6.828125-6.828125 6.828125zm0 0" fill="#ffffff" data-original="#ffffff" class=""/><path xmlns="http://www.w3.org/2000/svg" d="m101.941406 191.148438-26.546875 88.746093h63.109375l-12.898437 88.746094 82.832031-122.878906h-74.941406l31.554687-54.613281zm0 0" fill="#a4c2f7" data-original="#94c1ff" class=""/><path xmlns="http://www.w3.org/2000/svg" d="m125.601562 375.464844c-.816406 0-1.652343-.144532-2.453124-.457032-2.96875-1.148437-4.753907-4.195312-4.296876-7.347656l11.761719-80.941406h-55.21875c-2.160156 0-4.1875-1.019531-5.476562-2.746094-1.289063-1.734375-1.683594-3.964844-1.066407-6.03125l26.550782-88.746094c.863281-2.894531 3.519531-4.875 6.539062-4.875h63.109375c2.441407 0 4.695313 1.300782 5.914063 3.414063s1.21875 4.714844-.003906 6.828125l-25.636719 44.371094h63.113281c2.523438 0 4.84375 1.394531 6.027344 3.621094 1.1875 2.226562 1.042968 4.925781-.367188 7.019531l-82.828125 122.878906c-1.296875 1.925781-3.445312 3.011719-5.667969 3.011719zm-41.042968-102.398438h53.945312c1.980469 0 3.867188.859375 5.160156 2.359375 1.296876 1.5 1.878907 3.488281 1.59375 5.445313l-8.59375 59.148437 58.941407-87.433593h-62.109375c-2.441406 0-4.691406-1.300782-5.914063-3.414063-1.21875-2.113281-1.214843-4.710937.003907-6.824219l25.636718-44.375h-46.199218zm0 0" fill="#428dff" data-original="#0e65e5" class=""/><path xmlns="http://www.w3.org/2000/svg" d="m218.753906 150.1875c0-45.246094-36.675781-81.921875-81.921875-81.921875-45.242187 0-81.917969 36.675781-81.917969 81.921875zm0 0" fill="#a4c2f7" data-original="#94c1ff" class=""/><g xmlns="http://www.w3.org/2000/svg" fill="#0e65e5"><path d="m218.753906 157.011719h-163.839844c-3.769531 0-6.828124-3.050781-6.828124-6.824219 0-48.933594 39.808593-88.746094 88.746093-88.746094s88.746094 39.8125 88.746094 88.746094c0 3.773438-3.054687 6.824219-6.824219 6.824219zm-156.707031-13.652344h149.574219c-3.460938-38.21875-35.679688-68.265625-74.785156-68.265625-39.109376 0-71.328126 30.046875-74.789063 68.265625zm0 0" fill="#428dff" data-original="#0e65e5" class=""/><path d="m136.832031 170.667969c-3.769531 0-6.824219-3.054688-6.824219-6.828125v-68.265625c0-3.773438 3.054688-6.828125 6.824219-6.828125s6.828125 3.054687 6.828125 6.828125v68.265625c0 3.773437-3.058594 6.828125-6.828125 6.828125zm0 0" fill="#428dff" data-original="#0e65e5" class=""/><path d="m164.140625 109.226562c-1.746094 0-3.496094-.667968-4.828125-2-2.664062-2.664062-2.664062-6.988281 0-9.652343l13.65625-13.652344c2.664062-2.667969 6.984375-2.667969 9.652344 0 2.664062 2.664063 2.664062 6.984375 0 9.652344l-13.65625 13.652343c-1.332032 1.332032-3.078125 2-4.824219 2zm0 0" fill="#428dff" data-original="#0e65e5" class=""/><path d="m109.527344 109.226562c-1.746094 0-3.496094-.667968-4.828125-2l-13.652344-13.652343c-2.664063-2.667969-2.664063-6.988281 0-9.652344 2.664063-2.667969 6.988281-2.667969 9.652344 0l13.652343 13.652344c2.667969 2.664062 2.667969 6.988281 0 9.652343-1.332031 1.332032-3.078124 2-4.824218 2zm0 0" fill="#428dff" data-original="#0e65e5" class=""/></g><path xmlns="http://www.w3.org/2000/svg" d="m89.046875 122.878906-27.308594-6.824218" fill="#a4c2f7" data-original="#94c1ff" class=""/><path xmlns="http://www.w3.org/2000/svg" d="m89.054688 129.707031c-.550782 0-1.105469-.066406-1.664063-.207031l-27.308594-6.828125c-3.65625-.910156-5.878906-4.617187-4.964843-8.273437.914062-3.660157 4.628906-5.871094 8.28125-4.964844l27.304687 6.828125c3.65625.910156 5.878906 4.617187 4.96875 8.273437-.777344 3.105469-3.5625 5.171875-6.617187 5.171875zm0 0" fill="#428dff" data-original="#0e65e5" class=""/><path xmlns="http://www.w3.org/2000/svg" d="m184.621094 122.878906 27.304687-6.824218" fill="#a4c2f7" data-original="#94c1ff" class=""/><path xmlns="http://www.w3.org/2000/svg" d="m184.613281 129.707031c-3.058593 0-5.839843-2.066406-6.617187-5.171875-.914063-3.65625 1.3125-7.359375 4.964844-8.273437l27.308593-6.828125c3.648438-.90625 7.363281 1.308594 8.28125 4.964844.914063 3.65625-1.3125 7.359374-4.96875 8.273437l-27.304687 6.828125c-.554688.140625-1.113282.207031-1.664063.207031zm0 0" fill="#428dff" data-original="#0e65e5" class=""/><path xmlns="http://www.w3.org/2000/svg" d="m320.445312 354.988281h-19.066406c-15.445312 0-28.011718-12.566406-28.011718-28.015625v-168.566406c0-7.921875-6.441407-14.367188-14.359376-14.367188h-12.949218c-3.769532 0-6.824219-3.054687-6.824219-6.828124 0-3.773438 3.054687-6.824219 6.824219-6.824219h12.949218c15.445313 0 28.011719 12.566406 28.011719 28.019531v168.566406c0 7.921875 6.441407 14.359375 14.359375 14.359375h19.066406c7.917969 0 14.363282-6.4375 14.363282-14.359375v-231.398437c0-3.773438 3.054687-6.828125 6.824218-6.828125 3.769532 0 6.828126 3.054687 6.828126 6.828125v231.398437c0 15.449219-12.566407 28.015625-28.015626 28.015625zm0 0" fill="#428dff" data-original="#0e65e5" class=""/><path xmlns="http://www.w3.org/2000/svg" d="m341.632812 95.574219c-15.082031 0-27.304687-12.226563-27.304687-27.308594v-34.132813h54.613281v34.132813c0 15.082031-12.226562 27.308594-27.308594 27.308594zm0 0" fill="#a4c2f7" fill-rule="evenodd" data-original="#2a8ee6" class=""/><path xmlns="http://www.w3.org/2000/svg" d="m341.632812 102.398438c-18.820312 0-34.132812-15.3125-34.132812-34.132813v-34.132813c0-3.773437 3.054688-6.824218 6.828125-6.824218h54.613281c3.769532 0 6.824219 3.050781 6.824219 6.824218v34.132813c0 18.820313-15.3125 34.132813-34.132813 34.132813zm-20.480468-61.4375v27.304687c0 11.292969 9.1875 20.480469 20.480468 20.480469 11.292969 0 20.480469-9.1875 20.480469-20.480469v-27.304687zm0 0" fill="#428dff" data-original="#0e65e5" class=""/><path xmlns="http://www.w3.org/2000/svg" d="m327.980469 34.132812c-3.769531 0-6.828125-3.050781-6.828125-6.824218v-20.480469c0-3.773437 3.058594-6.828125 6.828125-6.828125s6.828125 3.054688 6.828125 6.828125v20.480469c0 3.773437-3.058594 6.824218-6.828125 6.824218zm0 0" fill="#428dff" data-original="#0e65e5" class=""/><path xmlns="http://www.w3.org/2000/svg" d="m355.285156 34.132812c-3.769531 0-6.824218-3.050781-6.824218-6.824218v-20.480469c0-3.773437 3.054687-6.828125 6.824218-6.828125 3.773438 0 6.828125 3.054688 6.828125 6.828125v20.480469c0 3.773437-3.054687 6.824218-6.828125 6.824218zm0 0" fill="#428dff" data-original="#0e65e5" class=""/><path xmlns="http://www.w3.org/2000/svg" d="m34.433594 361.8125c-3.769532 0-6.828125-3.050781-6.828125-6.824219v-27.308593c0-3.773438 3.058593-6.828126 6.828125-6.828126 3.769531 0 6.828125 3.054688 6.828125 6.828126v27.308593c0 3.773438-3.058594 6.824219-6.828125 6.824219zm0 0" fill="#ffffff" data-original="#ffffff" class=""/><path xmlns="http://www.w3.org/2000/svg" d="m48.085938 348.160156h-27.304688c-3.769531 0-6.828125-3.054687-6.828125-6.828125 0-3.773437 3.058594-6.824219 6.828125-6.824219h27.304688c3.769531 0 6.828124 3.050782 6.828124 6.824219 0 3.773438-3.058593 6.828125-6.828124 6.828125zm0 0" fill="#ffffff" data-original="#ffffff" class=""/></g></svg>
