<svg fill="none" height="512" viewBox="0 0 120 120" width="512" xmlns="http://www.w3.org/2000/svg"><path clip-rule="evenodd" d="m10 14c0-2.2091 1.7557-4 3.9216-4h92.1564c2.166 0 3.922 1.7909 3.922 4v20c0 2.2091-1.756 4-3.922 4h-5.078v22.2551c0 2.4796-2.2327 4.3618-4.6765 3.9424l-5-.858c-1.92-.3294-3.3235-1.9942-3.3235-3.9423v-21.3972h-10.7613c-3.0197 6.4961-9.6032 11-17.2387 11s-14.219-4.5039-17.2387-11h-9.7613v21.3972c0 1.9481-1.4035 3.6129-3.3235 3.9423l-5 .858c-2.4438.4194-4.6765-1.4628-4.6765-3.9424v-22.2551h-6.0784c-2.1659 0-3.9216-1.7909-3.9216-4zm37.3091 24c2.6572 4.2063 7.3478 7 12.6909 7s10.0337-2.7937 12.6909-7z" fill="#1a1fa7" fill-rule="evenodd"/><path d="m75 30c0 8.2843-6.7157 15-15 15s-15-6.7157-15-15 6.7157-15 15-15 15 6.7157 15 15z" fill="#3870ff"/><path d="m16 70.5c0-7.4558 6.0442-13.5 13.5-13.5s13.5 6.0442 13.5 13.5v14.8993c.002 2.0246 1.6035 3.6007 3.5 3.6007 1.8977 0 3.5-1.5781 3.5-3.6045v-23.3955h-3c-1.1046 0-2-.8954-2-2s.8954-2 2-2h3c2.2091 0 4 1.7909 4 4v23.3955c0 4.1642-3.3225 7.6045-7.5 7.6045-1.2685 0-2.4582-.3172-3.5-.8756v13.8756c0 2.209-1.7909 4-4 4h-19c-2.2091 0-4-1.791-4-4z" fill="#3870ff"/><path d="m75 58c1.1046 0 2 .8954 2 2s-.8954 2-2 2h-3v23.3955c0 2.0264 1.6023 3.6045 3.5 3.6045s3.5-1.5781 3.5-3.6045v-14.8955c0-7.4558 6.0442-13.5 13.5-13.5s13.5 6.0442 13.5 13.5v35.5c0 2.209-1.791 4-4 4h-19c-2.2091 0-4-1.791-4-4v-13.8756c-1.0418.5584-2.2315.8756-3.5.8756-4.1775 0-7.5-3.4403-7.5-7.6045v-23.3955c0-2.2091 1.7909-4 4-4z" fill="#3870ff"/><g clip-rule="evenodd" fill="#ffcd1e" fill-rule="evenodd"><path d="m57.3674 20.1485c1.0226.4177 1.5129 1.5853 1.0952 2.6078l-2.4852 6.0837h1.2782c1.7765 0 2.9862 1.8009 2.3144 3.4454l-3.0519 7.4709c-.4177 1.0226-1.5852 1.5129-2.6078 1.0952-1.0225-.4177-1.5128-1.5853-1.0951-2.6078l2.2074-5.4037h-1.2782c-1.7765 0-2.9862-1.8008-2.3144-3.4454l3.3296-8.1509c.4177-1.0226 1.5853-1.5129 2.6078-1.0952z"/><path d="m66.3674 20.1485c1.0226.4177 1.5129 1.5853 1.0952 2.6078l-2.4852 6.0837h1.2782c1.7765 0 2.9862 1.8009 2.3144 3.4454l-3.0519 7.4709c-.4177 1.0226-1.5852 1.5129-2.6078 1.0952-1.0225-.4177-1.5128-1.5853-1.0951-2.6078l2.2074-5.4037h-1.2782c-1.7765 0-2.9862-1.8008-2.3144-3.4454l3.3296-8.1509c.4177-1.0226 1.5853-1.5129 2.6078-1.0952z"/><path d="m31.3674 74.1485c1.0226.4177 1.5129 1.5853 1.0952 2.6078l-2.4852 6.0837h1.2782c1.7765 0 2.9862 1.8009 2.3144 3.4454l-3.0519 7.4709c-.4177 1.0226-1.5852 1.5129-2.6078 1.0952-1.0225-.4177-1.5128-1.5853-1.0951-2.6078l2.2074-5.4037h-1.2782c-1.7765 0-2.9862-1.8008-2.3144-3.4454l3.3296-8.1509c.4177-1.0226 1.5853-1.5129 2.6078-1.0952z"/><path d="m94.3674 74.1485c1.0226.4177 1.5129 1.5853 1.0952 2.6078l-2.4852 6.0837h1.2782c1.7765 0 2.9862 1.8009 2.3144 3.4454l-3.0519 7.4709c-.4177 1.0226-1.5852 1.5129-2.6078 1.0952-1.0225-.4177-1.5128-1.5853-1.0951-2.6078l2.2074-5.4037h-1.2782c-1.7765 0-2.9862-1.8008-2.3144-3.4454l3.3296-8.1509c.4177-1.0226 1.5853-1.5129 2.6078-1.0952z"/></g><path d="m14 106c-1.1046 0-2 .895-2 2s.8954 2 2 2h31c1.1046 0 2-.895 2-2s-.8954-2-2-2z" fill="#1a1fa7"/><path d="m108 106c1.105 0 2 .895 2 2s-.895 2-2 2h-31c-1.1046 0-2-.895-2-2s.8954-2 2-2z" fill="#1a1fa7"/></svg>