<svg xmlns="http://www.w3.org/2000/svg" version="1.1" xmlns:xlink="http://www.w3.org/1999/xlink" width="512" height="512" x="0" y="0" viewBox="0 0 32 32" style="enable-background:new 0 0 512 512" xml:space="preserve" class=""><g><path fill="#ffffff" d="M29.995 8.005v16c0 1.65-1.33 3-3 3h-22c-1.65 0-3-1.35-3-3v-16c0-1.66 1.35-3 3-3h22c1.67 0 3 1.34 3 3z" opacity="1" data-original="#bdcbd8" class=""></path><path fill="#440099" d="M8.962 10.24a.999.999 0 1 0-1.414 1.414l4.172 4.171-4.172 4.171a.999.999 0 1 0 1.414 1.414l4.879-4.878a1 1 0 0 0 0-1.414z" opacity="1" data-original="#1a2a39" class=""></path><path fill="#440099" d="M24.005 19.803h-8a1 1 0 1 0 0 2h8a1 1 0 1 0 0-2z" opacity="1" data-original="#475965" class=""></path></g></svg>