<svg xmlns="http://www.w3.org/2000/svg" version="1.1" xmlns:xlink="http://www.w3.org/1999/xlink" width="512" height="512" x="0" y="0" viewBox="0 0 48 48" style="enable-background:new 0 0 512 512" xml:space="preserve" fill-rule="evenodd" class=""><g><path fill="#003129" fill-rule="nonzero" d="M42.697 43.063H4.678c-1.1 0-2-.9-2-2V7.044c0-1.1.9-2 2-2h38.02c1.1 0 2 .9 2 2v34.017c0 1.101-.9 2.001-2 2.001z" opacity="1" data-original="#616161" class=""></path><path fill="#f5f5f5" d="M7.973 14.756a1.001 1.001 0 0 1 1.415-1.414l10.005 10.005a1 1 0 0 1 0 1.414L9.388 34.766a1.001 1.001 0 0 1-1.415-1.414l9.298-9.298zM38.695 33.058a1 1 0 0 1 0 2.001H28.69a1 1 0 0 1 0-2z" opacity="1" data-original="#f5f5f5"></path></g></svg>