<svg id="Layer_1" enable-background="new 0 0 53 53" height="512" viewBox="0 0 53 53" width="512" xmlns="http://www.w3.org/2000/svg"><g><path d="m10.4 17.6h-.2c-.1 0-.2 0-.3 0-.2 0-.4.1-.5.1-.3.1-.7.3-.9.5l-1.1.9-2.1 1.8-1.1.9c-.6.5-.9 1.2-.9 2 0 .7.3 1.5.9 2l1.1.9 2.1 1.8 1.1.9c.2.2.6.4.9.5.2.1.3.1.5.1h.3.2l2.7-.1c3.4-.1 6.8-.2 10.3-.4.1 7.2.3 14.4.6 21.7 0 .1.1.1.1.1l2.4-.1-2.3-.1c.3-8.2.6-16.4.7-24.6l.2-12.3v-6.2-1.5-.8c0-.2 0-.3.1-.5.2-.6.7-1 1.4-1 .6 0 1.2.4 1.3 1 0 .2.1.3.1.5v.8 1.5 6.2l.2 12.3c.1 8.2.4 16.4.7 24.6l-2.3.1 2.4.1c.1 0 .1 0 .1-.1.2-4.2.3-8.4.4-12.6 3.5.2 7 .3 10.5.4l2.7.1h.2.3c.2 0 .4-.1.5-.1.3-.1.7-.3.9-.5l1.1-.9 2.1-1.8 1.1-.9c.6-.5.9-1.2.9-2 0-.7-.3-1.5-.9-2l-1.1-.9-2.1-1.8-1.1-.9c-.2-.2-.6-.4-.9-.5-.2-.1-.3-.1-.5-.1-.1 0-.2 0-.3 0h-.2l-2.7.1c-3.4.1-6.8.2-10.2.4 0-.3 0-.6 0-.9l.1-4.8c3.4.2 6.8.3 10.1.4l2.7.1h.2.3c.2 0 .4-.1.5-.1.3-.1.7-.3.9-.5l1.1-.9 2.1-1.8 1.1-.9c.6-.5.9-1.2.9-2 0-.7-.3-1.5-.9-2l-1.2-.8-2.1-1.8-1.1-.9c-.2-.2-.6-.4-.9-.5-.2-.1-.3-.1-.5-.1-.1 0-.2 0-.3 0h-.2l-2.7.1c-3.3.1-6.7.2-10 .4v-2.5-1.5-.8c0-.3 0-.7-.1-1-.4-1.4-1.8-2.5-3.3-2.5s-2.9 1-3.2 2.5c-.1.3-.1.8-.1 1v.8 1.5 6.2l.1 4.1c-3.4-.2-6.7-.3-10.1-.4zm29.5 10.8 2.7.1c.4 0 .4 0 .7.2l1 .9 2.1 1.8 1 .9c.1.1.2.3.2.5s-.1.4-.2.5l-1 .9-2.1 1.8-1 .9c-.2.1-.3.1-.7.1l-2.7.1c-3.5.1-7 .2-10.4.4.1-3.2.2-6.3.2-9.5 3.4.2 6.8.3 10.2.4zm0-16.9 2.7.1c.4 0 .4 0 .7.2l1 .9 2.1 1.8 1 .9c.1.1.2.3.2.5s-.1.4-.2.5l-1 .9-2.1 1.7-1 .9c-.2.2-.3.2-.7.2l-2.7.1c-3.4.1-6.7.2-10.1.4l.1-6.6v-2.8c3.3.1 6.6.2 10 .3zm-16.6 14.8v2.2c-3.4-.2-6.8-.3-10.2-.4l-2.7-.1c-.4 0-.4 0-.7-.2l-1-.9-2.1-1.9-1-.9c-.1-.1-.2-.3-.2-.5s.1-.4.2-.5l1-.9 2.1-1.8 1-.9c.2-.2.3-.2.7-.2l2.7-.1c3.4-.1 6.7-.2 10.1-.4z"/></g></svg>