<svg xmlns="http://www.w3.org/2000/svg" version="1.1" xmlns:xlink="http://www.w3.org/1999/xlink" width="512" height="512" x="0" y="0" viewBox="0 0 1000 1000" style="enable-background:new 0 0 512 512" xml:space="preserve" class=""><g><path fill="#ffffff" d="M260.7 476.75s67.723 154.543 104.254 336.06c23.045 89.265 28.088 83.856 49.265 85.896s20.811 32.848 20.811 32.848l-101.096 10.29c-10.744 1.094-20.733-5.638-23.752-16.01-15.86-54.5-41.002-136.47-61.803-192.174 0 0-83.918-156.552-93.882-223.785" opacity="1" data-original="#ffffff" class=""></path><path fill="#292929" d="M258.757 477.886c1.825 4.164 3.03 7.086 4.802 11.37 4.563 11.028 8.964 22.124 13.258 33.26a1886.372 1886.372 0 0 1 18.806 50.996 1982.083 1982.083 0 0 1 21.97 65.922c7.996 25.476 15.473 51.115 22.367 76.91 7.552 28.26 14.406 56.711 20.414 85.341 2.884 13.744 6.393 27.278 10.227 40.79 2.658 9.367 5.435 18.723 8.769 27.876 3.232 8.874 6.969 19.667 14.773 25.665 5.134 3.946 11.492 4.227 17.695 4.732 2.982.242 5.89.63 8.567 2.082 3.126 1.695 5.506 4.358 7.27 7.412 3.103 5.374 4.487 11.751 4.959 17.892.087 1.136.158 2.28.146 3.42l2.25-2.25-30.48 3.102-52.142 5.308-16.091 1.638c-.794.08-1.588.171-2.383.242-6.474.582-12.772-1.673-17.19-6.5-4.369-4.775-5.463-11.549-7.23-17.568a4356.64 4356.64 0 0 0-18.457-61.182C282.02 825.17 272.7 796.077 262.75 767.2c-4.704-13.653-8.797-27.723-15.528-40.531a1938.5 1938.5 0 0 1-17.83-34.827c-9.107-18.212-17.963-36.552-26.474-55.05-9.326-20.268-18.272-40.726-26.352-61.525-6.982-17.972-13.594-36.289-17.84-55.128a151.559 151.559 0 0 1-2.06-10.863c-.428-2.854-4.765-1.64-4.34 1.197 2.664 17.788 8.515 35.127 14.63 51.98 7.587 20.907 16.253 41.42 25.323 61.722 8.77 19.63 17.982 39.063 27.478 58.352a2042.723 2042.723 0 0 0 20.722 40.948c1.705 3.276 3.42 6.548 5.152 9.81.263.496.573.987.8 1.501 2.47 5.604 4.265 11.665 6.321 17.442 10.129 28.453 19.486 57.18 28.555 85.986a4246.138 4246.138 0 0 1 25.308 83.428c1.814 6.204 3.699 11.981 8.733 16.38 4.737 4.138 10.967 6.44 17.274 6.167 3.228-.139 6.466-.62 9.677-.946l48.869-4.975 41.555-4.23 2.306-.234c1.22-.125 2.237-.93 2.25-2.25.108-10.794-3.085-24.094-12.033-30.918-4.836-3.688-10.413-4.134-16.225-4.612-.789-.064-1.577-.132-2.365-.215a65.535 65.535 0 0 1-1.045-.12c-.504-.06.08.03-.671-.096-1.372-.228-2.73-.508-4.049-.959a18.512 18.512 0 0 1-.976-.365c.34.138-.254-.112-.566-.27a17.666 17.666 0 0 1-1.794-1.038c-.843-.562-.667-.423-1.502-1.168a21.622 21.622 0 0 1-1.787-1.803c-2.718-3.067-5.007-7.49-6.843-11.56-3.151-6.982-5.566-14.306-7.861-21.605-3.607-11.469-6.778-23.075-9.85-34.697-3.84-14.525-6.557-29.32-9.865-43.976a1623.244 1623.244 0 0 0-10.255-42.707c-6.786-26.685-14.217-53.204-22.211-79.55a1969.558 1969.558 0 0 0-22.327-68.962 1932.873 1932.873 0 0 0-19.95-55.275c-4.779-12.628-9.692-25.205-14.788-37.708-2.393-5.869-4.65-11.867-7.355-17.602-.114-.24-.212-.49-.319-.733-1.16-2.647-5.038-.359-3.886 2.27z" opacity="1" data-original="#0f0f0f" class=""></path><path fill="#bac3c2" d="M260.7 476.75c32.17 74.247 57.694 151.932 78.977 229.915 6.635 24.313 14.15 48.39 20.16 72.872 4.665 19.012 8.494 38.232 12.962 57.31-12.082 8.865-27.27 12.057-41.877 15.403-14.131 3.237-28.512 6.845-42.943 5.467-1.38-.132-2.795-.32-4.009-.99-3.384-1.865-3.867-6.423-4.165-10.277-2.045-26.476-19.38-56.925-28.848-81.68-21.72-56.788-44.688-112.236-69.014-167.911-12.177-27.868-22.968-56.767-27.446-86.984" opacity="1" data-original="#f95a29" class=""></path><path fill="#292929" d="M258.757 477.886c19.38 44.762 36.264 90.58 51.292 136.977 7.431 22.942 14.408 46.031 21.003 69.228 6.765 23.792 13.499 47.602 20.125 71.433 7.53 27.077 13.058 54.57 19.452 81.92l1.034-2.54c-11.43 8.28-25.3 11.513-38.83 14.603-7.565 1.728-15.115 3.588-22.775 4.86-4.033.67-8.097 1.15-12.183 1.326-3.68.16-7.743.356-11.363-.443-3.057-.675-3.833-3.527-4.218-6.298-.412-2.962-.543-5.953-.996-8.915-.998-6.525-2.726-12.926-4.786-19.19-4.415-13.422-10.344-26.286-16.045-39.193-5.925-13.415-11.02-27.145-16.357-40.8a3593.55 3593.55 0 0 0-17.765-44.56c-12.06-29.68-24.501-59.203-37.246-88.595-12.29-28.342-24.407-56.796-30.484-87.24a235.118 235.118 0 0 1-1.949-11.183c-.427-2.854-4.764-1.641-4.339 1.197 4.64 30.963 15.804 60.333 28.27 88.89 13.165 30.156 26.016 60.448 38.466 90.906a3634.648 3634.648 0 0 1 18.26 45.54c5.588 14.211 10.779 28.603 16.85 42.618 5.698 13.153 11.86 26.126 16.646 39.654 2.299 6.5 4.29 13.13 5.581 19.909.599 3.146.95 6.293 1.239 9.48.254 2.811.624 5.797 2.156 8.24 1.73 2.76 4.465 3.842 7.59 4.196 3.96.448 7.98.452 11.954.211 8.063-.488 16.022-2.044 23.891-3.802 14.036-3.136 28.674-5.769 41.691-12.126a60.86 60.86 0 0 0 9.013-5.4c.848-.613 1.28-1.492 1.034-2.54-5.71-24.423-10.556-49.028-17.079-73.257-6.45-23.957-13.43-47.783-20.12-71.674-6.601-23.566-13.585-47.026-21.03-70.34-7.417-23.23-15.291-46.315-23.7-69.206-8.378-22.809-17.294-45.42-26.802-67.782a1382.855 1382.855 0 0 0-3.594-8.375c-1.148-2.65-5.026-.362-3.886 2.271z" opacity="1" data-original="#0f0f0f" class=""></path><g fill="#0f0f0f"><path d="M255.578 762.392a4114.6 4114.6 0 0 1 2.148 20.817c-.538-5.347-5.598-12.524-7.76-17.514a908.666 908.666 0 0 1-7.892-18.761c-5.112-12.563-9.904-25.259-14.211-38.12-7.702-23-23.147-44.822-25.156-69.433-.833-10.207 1.105-20.409 1.975-30.613 1.396-16.381.017-32.849-2.506-49.052-2.241-14.397-7.907-26.355-6.904-41.121 4.483 1.913 7.494 6.124 10.19 10.185 8.017 12.074 15.384 24.658 20.727 38.13 8.96 22.594 11.995 47.026 14.952 71.152 5.081 41.441 10.057 82.888 14.437 124.33z" fill="#292929" opacity="1" data-original="#0f0f0f" class=""></path><path d="M253.328 762.392c.733 6.937 1.45 13.876 2.148 20.817h4.5c-.433-3.718-2.05-7.113-3.771-10.397-1.812-3.455-3.682-6.82-5.227-10.408-3.825-8.883-7.515-17.822-11.02-26.836a639.248 639.248 0 0 1-9.925-27.353c-2.693-7.98-6.185-15.659-9.726-23.291-7.063-15.225-14.847-31.045-15.504-48.138-.374-9.74 1.456-19.375 2.214-29.053.762-9.732.552-19.523-.282-29.243-.804-9.374-1.95-18.823-4.118-27.987-1.972-8.335-4.61-16.6-5.117-25.202a55.014 55.014 0 0 1 .022-6.706l-3.386 1.942c3.14 1.399 5.479 3.853 7.472 6.6 2.283 3.147 4.357 6.465 6.425 9.756 4.245 6.756 8.218 13.692 11.69 20.88 6.987 14.468 11.293 29.944 14.204 45.706 3.011 16.301 4.756 32.824 6.76 49.27a9958.004 9958.004 0 0 1 6.145 51.412c2.261 19.4 4.442 38.809 6.496 58.231.128 1.209.943 2.25 2.25 2.25 1.118 0 2.379-1.034 2.25-2.25a5369.745 5369.745 0 0 0-5.826-52.46 9221.343 9221.343 0 0 0-6.24-52.46c-2.05-16.872-3.84-33.814-6.68-50.575-2.743-16.2-6.775-32.163-13.516-47.193-3.332-7.43-7.237-14.591-11.462-21.547a307.534 307.534 0 0 0-6.564-10.31c-1.955-2.948-4.002-5.965-6.694-8.3-1.347-1.167-2.808-2.169-4.439-2.895-1.588-.708-3.27.126-3.385 1.943-.557 8.83 1.303 17.438 3.466 25.942 1.071 4.213 2.169 8.422 2.983 12.694.885 4.64 1.49 9.347 2.034 14.038 1.122 9.69 1.708 19.46 1.404 29.216-.302 9.732-1.997 19.326-2.522 29.036-.486 8.972.701 17.814 3.228 26.425 2.405 8.199 5.819 16.067 9.37 23.824 3.491 7.627 7.186 15.174 10.269 22.98 3.42 8.66 6.155 17.595 9.424 26.316 3.389 9.04 6.98 18.004 10.716 26.907 1.784 4.253 3.445 8.62 5.52 12.742 1.698 3.372 3.712 6.592 5.207 10.066.597 1.388 1.18 2.917 1.355 4.428.14 1.207.934 2.25 2.25 2.25 1.122 0 2.372-1.033 2.25-2.25-.698-6.94-1.415-13.88-2.148-20.817-.128-1.208-.943-2.25-2.25-2.25-1.117 0-2.378 1.034-2.25 2.25z" fill="#292929" opacity="1" data-original="#0f0f0f" class=""></path></g><path fill="#cccccc" d="M414.22 898.706c-7.791-.75-15.416-.646-21.182-6.727-4.135-4.36-6.705-10.238-8.978-15.71-1.771-4.265-6.219-25.186-11.197-24.842a14.278 14.278 0 0 0-9.512 4.633 14.292 14.292 0 0 0-3.624 9.944c.251 7.296 2.35 11.103-3.966 16.557-4.414 3.812-10.321 5.612-15.905 6.857-12.882 2.87-26.223 2.514-39.158 5.027 3.876 12.53 7.121 23.267 9.485 31.388 3.019 10.373 16.301 26.682 27.045 25.589l97.802-19.868s.367-30.807-20.81-32.848z" opacity="1" data-original="#dcdccd" class=""></path><path fill="#292929" d="M414.22 896.456c-5.503-.52-11.497-.51-16.377-3.457-5.272-3.183-8.193-9.42-10.563-14.852-3.093-7.09-4.388-14.806-7.484-21.913-1.148-2.635-2.86-6.318-5.991-6.967-2.715-.562-6.255.911-8.51 2.296-2.727 1.674-4.953 4.137-6.277 7.054-1.342 2.956-1.676 5.99-1.442 9.2.167 2.284.564 4.597.402 6.892-.131 1.854-1.134 3.654-2.618 5.154-2.113 2.138-4.751 3.707-7.52 4.843-7.147 2.934-15.118 3.905-22.744 4.663-8.35.83-16.742 1.325-24.996 2.907-1.17.224-1.91 1.677-1.572 2.768 3.243 10.483 6.336 21.01 9.521 31.51 1.19 3.921 3.192 7.609 5.505 10.974 2.584 3.761 5.6 7.298 9.122 10.214 4.26 3.527 9.926 6.91 15.687 5.74l7.425-1.508 32.044-6.51 37.02-7.52 13.645-2.772c2.268-.46 4.58-.832 6.827-1.387.1-.025.203-.041.305-.062.966-.196 1.641-1.23 1.651-2.17.042-3.793-.492-7.669-1.264-11.371-1.403-6.725-4.15-13.735-9.38-18.412-3.505-3.133-7.766-4.835-12.417-5.314-1.21-.124-2.25 1.124-2.25 2.25 0 1.32 1.036 2.126 2.25 2.25 3.238.333 6.555 1.706 8.884 3.69 2.527 2.154 4.122 4.49 5.598 7.536.678 1.4 1.122 2.538 1.662 4.205a47.377 47.377 0 0 1 1.184 4.386c.302 1.37.537 2.75.748 4.138.02.133.075.556.004.02a63.663 63.663 0 0 1 .162 1.342c.06.55.112 1.101.157 1.653.097 1.204.176 2.419.163 3.628l1.651-2.17-16.445 3.341-35.515 7.215-33.854 6.877-9.826 1.996c-.666.135-1.343.246-2.004.407a1.88 1.88 0 0 1-.138.028c-.143.024.221-.053.324-.054-.473.002-.939.038-1.414.011-1.38-.078-3.115-.603-4.535-1.29-3.747-1.814-6.913-4.643-9.682-7.712-2.853-3.164-5.313-6.714-7.216-10.53-1.793-3.592-2.694-7.6-3.842-11.453a2098.385 2098.385 0 0 0-4.734-15.655c-.89-2.907-1.785-5.813-2.683-8.717l-1.572 2.767c14.256-2.731 29.035-2.058 43.084-6.004 5.969-1.677 12.146-4.455 15.893-9.615 2.994-4.122 2.091-8.806 1.779-13.53-.199-2.998.171-5.757 1.794-8.348 1.51-2.414 3.935-4.186 6.659-4.986.639-.188 1.295-.348 1.958-.421.224-.024.414-.022.63-.034-.585.032-.433-.093-.256-.027.208.077.399.235-.084-.058.094.057.268.109.338.197.294.372-.364-.364-.009-.002.107.11.222.218.332.325.12.115.223.25.33.375-.359-.421.03.04.082.118.184.272.366.544.536.826.466.771.87 1.58 1.246 2.398 3.052 6.64 4.344 14.522 7.298 21.455 2.723 6.39 6.063 13.23 12.027 17.196 5.677 3.775 12.74 3.857 19.287 4.477 1.211.114 2.25-1.116 2.25-2.25 0-1.312-1.036-2.135-2.25-2.25z" opacity="1" data-original="#0f0f0f" class=""></path><path fill="#ffffff" d="M316.017 937.136c-1.01 7.58 2.485 16.88 9.703 16.145l109.31-21.727s.366-30.808-20.81-32.848l-8.207-.63-.41 22.421z" opacity="1" data-original="#ffffff" class=""></path><path fill="#292929" d="M313.767 937.136c-.895 7.197 2.035 17.96 10.769 18.426 1.634.087 3.351-.423 4.94-.74l23.242-4.619 34.371-6.832 32.053-6.37 10.97-2.181c1.751-.348 3.552-.608 5.283-1.05.077-.02.156-.031.234-.047.966-.192 1.641-1.233 1.651-2.17.056-5.147-.811-10.493-2.281-15.409-2.576-8.61-8.018-16.84-17.228-19.109-3.79-.934-7.883-.912-11.758-1.21-1.229-.094-2.229 1.108-2.25 2.25l-.359 19.593-.052 2.83 1.652-2.17-8.943 1.66-21.346 3.966-25.817 4.795-22.436 4.167c-3.6.668-7.332 1.118-10.882 2.021-.052.013-.108.02-.161.03-1.196.222-1.874 1.668-1.572 2.768.345 1.255 1.57 1.794 2.768 1.571l8.943-1.66 21.347-3.965 25.816-4.795 22.437-4.168c3.599-.668 7.331-1.118 10.881-2.02.053-.014.108-.02.161-.03.973-.181 1.635-1.243 1.652-2.17l.36-19.593.052-2.83-2.25 2.25c2.878.222 5.966.31 8.74.69 4.153.569 7.575 2.487 10.332 5.575 2.423 2.714 4.179 6.38 5.31 9.903a48.52 48.52 0 0 1 1.382 5.384c.164.826.31 1.656.436 2.49.032.21.062.422.093.633.067.453-.04-.34.015.105.049.39.096.778.139 1.168.19 1.748.339 3.52.32 5.28l1.651-2.169-12.848 2.554-30.003 5.964-34.348 6.827-25.883 5.145c-1.927.383-3.855.762-5.78 1.149-.137.027-.274.062-.412.081-.043.007.497.008-.039-.034-.771-.062-1.41-.07-2.115-.383-2.826-1.255-4.152-4.946-4.675-7.919-.325-1.85-.293-3.773-.062-5.631.15-1.208-1.141-2.25-2.25-2.25-1.34 0-2.1 1.038-2.25 2.25z" opacity="1" data-original="#0f0f0f" class=""></path><path fill="#292929" d="M396.19 906.976c-12.15-4.249-26.217-10.824-29.202-24.722-.607-2.83-4.946-1.633-4.339 1.196 1.49 6.941 5.907 12.989 11.408 17.352 6.196 4.916 13.53 7.923 20.937 10.513 2.739.958 3.916-3.388 1.196-4.34zM381.644 878.037a17.588 17.588 0 0 0-5.882 4.747c-.385.486-.659.945-.659 1.591 0 .552.245 1.211.66 1.591.428.394.991.686 1.59.659.556-.025 1.229-.202 1.591-.659a16.246 16.246 0 0 1 2.753-2.723l-.456.352a16.306 16.306 0 0 1 2.674-1.673c.486-.241.894-.835 1.034-1.344.149-.539.082-1.256-.226-1.734-.31-.48-.771-.903-1.345-1.034-.613-.14-1.17-.054-1.734.227zM384.907 886.28c-.84.525-1.639 1.166-2.295 1.91-.659.748-1.248 1.57-1.667 2.477a1.675 1.675 0 0 0-.267.837c-.067.299-.054.598.04.897.144.522.548 1.087 1.034 1.345.522.275 1.155.414 1.734.226.527-.17 1.103-.51 1.345-1.034a8.47 8.47 0 0 1 .97-1.604l-.351.456a8.563 8.563 0 0 1 1.483-1.489l-.455.352a8.72 8.72 0 0 1 .7-.488c.49-.306.88-.782 1.034-1.344.149-.539.082-1.256-.227-1.734-.31-.48-.77-.903-1.344-1.034-.58-.132-1.216-.098-1.734.227zM388.723 890.514c-.449.236-.855.553-1.242.877-.332.278-.598.602-.862.944-.573.742-1.014 1.586-1.224 2.507-.133.585-.08 1.208.227 1.734.142.262.335.473.58.631.217.2.472.333.765.403.576.131 1.222.103 1.734-.227.48-.31.903-.77 1.034-1.345a4.58 4.58 0 0 1 .232-.73l-.227.538c.154-.362.351-.7.59-1.012l-.353.455a4.7 4.7 0 0 1 .827-.829l-.455.352c.204-.155.419-.293.646-.412.262-.142.472-.335.63-.58.2-.217.334-.472.404-.765.093-.3.107-.598.04-.897a1.675 1.675 0 0 0-.267-.837c-.31-.48-.771-.903-1.345-1.034l-.598-.08a2.24 2.24 0 0 0-1.136.307z" opacity="1" data-original="#0f0f0f" class=""></path><path fill="#ffffff" d="M205.474 499.166s49.96 154.095 15.417 339.96c-10.098 91.636-3.466 88.366 15.612 97.782 19.078 9.416 7.814 38.092 7.814 38.092l-98.178-26.22c-10.433-2.787-17.387-12.623-16.532-23.392 4.492-56.583 10.045-142.14 10.345-201.602 0 0-41.435-166.471-26.914-232.87" opacity="1" data-original="#ffffff" class=""></path><path fill="#292929" d="M203.304 499.764c4.717 14.563 8.08 29.655 11.213 44.619 8.084 38.59 13.023 77.85 15.143 117.215 2.964 55.034.318 110.458-8.8 164.834-1.221 7.278-2.43 14.464-3.2 21.808a1153.903 1153.903 0 0 0-1.88 19.29c-.86 9.757-1.606 19.543-1.796 29.34-.185 9.54-.574 20.9 4.187 29.561 2.978 5.418 8.241 8.169 13.62 10.708 2.211 1.043 4.534 2.008 6.507 3.469 3.213 2.378 5.26 5.87 6.25 9.7 1.711 6.621.667 13.822-1.17 20.307-.361 1.274-.749 2.552-1.231 3.787l2.768-1.572-28.624-7.644-50.28-13.428-16.178-4.321c-6.133-1.638-11.67-4.107-15.138-9.854-3.455-5.725-2.875-11.667-2.379-18.036a4394.629 4394.629 0 0 0 4.396-62.175c1.906-29.977 3.527-59.977 4.557-89.998.472-13.738.818-27.481.918-41.227.02-2.726-.534-4.85-1.163-7.482-2.806-11.743-5.42-23.532-7.908-35.347-4.048-19.22-7.737-38.52-10.947-57.899-3.602-21.745-6.638-43.61-8.448-65.583-1.568-19.027-2.494-38.41-.3-57.428a112.29 112.29 0 0 1 1.786-10.894c.611-2.824-3.726-4.03-4.34-1.197-3.806 17.585-3.588 36.025-2.692 53.9 1.097 21.892 3.739 43.7 6.972 65.371 3.098 20.772 6.828 41.448 10.974 62.036a1435.883 1435.883 0 0 0 9.267 42.743c.712 3.051 1.608 6.103 2.188 9.182.332 1.76.105 3.486.088 5.328-.066 6.784-.191 13.567-.357 20.349-.737 30.078-2.218 60.139-3.992 90.172a4273.024 4273.024 0 0 1-5.856 84.709c-.969 12.252 6.02 23.464 18.101 26.848 3.045.852 6.112 1.632 9.167 2.448l47.357 12.647 39.445 10.535 2.19.584c1.265.338 2.322-.429 2.767-1.571 4.316-11.055 5.925-26.7-2.707-36.082-3.362-3.654-7.968-5.363-12.31-7.503-1.316-.649-2.621-1.326-3.864-2.107-1.43-.9-1.637-1.027-2.818-2.16-2-1.919-3.326-4.337-4.203-7.093-1.398-4.392-1.804-9.007-2.01-13.59-.89-19.858 1.597-39.999 3.678-59.705 1.564-14.807 4.653-29.447 6.615-44.218a733.42 733.42 0 0 0 4.472-43.743c1.928-26.704 2.425-53.51 1.573-80.268-1.334-41.884-5.894-83.724-13.83-124.876-3.548-18.397-7.365-37.104-13.205-54.946-.08-.246-.154-.494-.234-.74-.888-2.743-5.235-1.57-4.339 1.197z" opacity="1" data-original="#0f0f0f" class=""></path><path fill="#bac3c2" d="M205.474 499.166c5.444 17.4 9.787 35.406 12.982 53.343 5.861 32.905 14.747 65.328 18.51 98.847 7.566 67.41 2.942 134.195-5.658 201.16-.296 2.308-.655 4.76-2.175 6.523-2.018 2.34-5.428 2.759-8.509 3.007-16.757 1.35-33.771 2.341-50.495.057-8.797-1.202-38.852-5.661-40.62-16.847-.649-4.12 1.161-8.17 2.065-12.242.694-3.12.857-6.331 1.018-9.524l3.097-61.513c.822-16.322 3.757-34.25 1.393-50.297-1.078-7.324-3.334-14.659-4.89-21.902-4.575-21.305-8.717-42.71-12.267-64.21-7.064-42.783-16.313-91.552-6.888-134.652" opacity="1" data-original="#f95a29" class=""></path><path fill="#292929" d="M203.304 499.764a432.858 432.858 0 0 1 10.627 41.11c2.863 13.824 5.256 27.737 8.183 41.551 2.957 13.956 6.018 27.894 8.556 41.934 2.543 14.06 4.353 28.195 5.57 42.43 2.485 29.093 2.818 58.34 1.622 87.506-1.19 29.058-3.886 58.035-7.39 86.899a1107.96 1107.96 0 0 1-1.367 10.956c-.36 2.734-.797 5.608-3.65 6.755-2.8 1.125-6.185 1.005-9.145 1.228a459.18 459.18 0 0 1-10.822.703c-12.543.648-25.117.545-37.56-1.3-7.615-1.13-15.257-2.595-22.566-5.052-3.522-1.185-7.126-2.613-10.133-4.845-2.848-2.113-3.972-4.39-3.484-7.969.452-3.31 1.774-6.441 2.321-9.738.565-3.404.696-6.854.869-10.295l1.101-21.863c.73-14.487 1.209-29.013 2.26-43.48.98-13.51 2.802-27.124 1.511-40.676-.657-6.904-2.35-13.592-4.008-20.307-1.735-7.029-3.152-14.137-4.601-21.229-5.598-27.4-10.372-54.993-14.561-82.644-4.043-26.68-7.006-53.909-4.391-80.884.62-6.4 1.601-12.755 2.961-19.04.611-2.824-3.726-4.03-4.34-1.197-5.831 26.952-4.622 54.854-1.35 82.057 1.645 13.673 3.827 27.272 6.086 40.855 2.363 14.217 4.734 28.43 7.42 42.59 2.733 14.405 5.493 28.85 9.031 43.081 1.703 6.846 3.185 13.654 3.542 20.72.353 6.97-.01 13.956-.53 20.909-1.08 14.438-2 28.85-2.728 43.311l-1.138 22.604c-.371 7.376-.469 14.827-1.2 22.176-.588 5.897-4.292 12.291-2.419 18.247.99 3.146 3.534 5.47 6.211 7.233 6.851 4.512 15.487 6.508 23.42 8.117 9.229 1.873 18.621 3.062 28.032 3.386 7.351.253 14.71.05 22.05-.366 3.728-.211 7.453-.478 11.175-.77 2.904-.227 5.948-.316 8.681-1.422 6.502-2.631 6.36-10.071 7.103-16.008a1480.11 1480.11 0 0 0 2.621-22.273c1.626-14.819 3.005-29.666 4.043-44.538 2.064-29.565 2.772-59.244 1.425-88.859-.679-14.91-1.81-29.83-3.679-44.64-1.815-14.383-4.484-28.636-7.415-42.829-2.93-14.187-6.104-28.325-8.862-42.548-2.741-14.135-5.287-28.254-8.883-42.209a426.4 426.4 0 0 0-5.86-20.574c-.859-2.755-5.204-1.579-4.339 1.197z" opacity="1" data-original="#0f0f0f" class=""></path><path fill="#cccccc" d="M236.503 936.908c-7.018-3.464-14.184-6.07-17.42-13.8-2.32-5.543-2.64-11.95-2.825-17.872-.144-4.616 3.114-25.755-1.663-27.198a14.278 14.278 0 0 0-10.536.959 14.291 14.291 0 0 0-6.915 8.014c-2.351 6.91-1.739 11.214-9.577 14.075-5.479 2-11.641 1.588-17.303.772-13.063-1.883-25.412-6.946-38.397-9.182-.818 13.09-1.59 24.28-2.26 32.712-.855 10.77 5.783 30.728 16.217 33.515L244.317 975s11.264-28.676-7.814-38.092z" opacity="1" data-original="#dcdccd" class=""></path><path fill="#292929" d="M237.639 934.965c-4.828-2.373-10.2-4.41-13.865-8.517-4.279-4.796-4.86-12.02-5.15-18.143-.369-7.775 1.208-15.493.763-23.276-.166-2.91-.453-7.322-3.443-8.855-2.703-1.385-6.502-1.187-9.362-.5a16.151 16.151 0 0 0-8.218 4.934c-1.996 2.254-3.148 4.85-3.99 7.709-.308 1.044-.583 2.097-.88 3.143-.236.83-.64 2.123-.868 2.64-2.055 4.643-8.07 5.99-12.966 6.16-7.87.274-15.778-1.699-23.32-3.73-7.927-2.135-15.774-4.608-23.875-6.023-1.496-.262-2.75.61-2.848 2.17-.688 10.988-1.552 21.964-2.278 32.95-.532 8.051 1.975 16.727 5.696 23.799 2.542 4.832 6.752 10.622 12.513 11.699 2.32.434 4.666.763 6.996 1.143l32.242 5.27 37.7 6.161c6.97 1.14 13.934 2.317 20.91 3.418l.323.052c1.301.213 2.283-.333 2.767-1.571 1.342-3.427 2.196-7.114 2.751-10.74 1.062-6.929 1.008-14.32-2.223-20.707-2.025-4.002-5.383-7.18-9.375-9.186-2.581-1.296-4.863 2.584-2.271 3.886 12.062 6.058 11.136 20.94 7.928 32.05-.34 1.178-.702 2.359-1.149 3.5l2.768-1.57-16.943-2.77-36.369-5.944-34.103-5.574-9.424-1.54c-3.397-.555-5.583-2.028-7.9-4.806-2.432-2.917-4.173-6.503-5.473-10.052-1.385-3.779-2.414-7.804-2.775-11.778-.36-3.968.166-7.942.457-11.9.402-5.484.776-10.97 1.135-16.458.204-3.11.402-6.222.597-9.333l-2.848 2.17c14.206 2.483 27.68 8.15 42.085 9.65 6.355.663 13.816.444 19.222-3.433 3.844-2.757 4.804-6.946 6.049-11.246.792-2.736 1.826-5.132 3.97-7.094 2.142-1.96 4.996-3.015 7.89-3.027.704-.003 1.404.04 2.096.166.342.062.681.14 1.016.23.784.215.354.212.18.018.33.366.063-.258-.073-.087-.004.005.258.232.26.264-.002-.033-.273-.425-.115-.138.093.168.19.334.283.502.252.458-.155-.475.02.048.054.163.111.325.161.49.09.3.163.603.229.908.04.19.209 1.205.16.841.061.454.102.911.138 1.368.59 7.585-1.061 15.108-.772 22.676.282 7.357.933 15.544 5.632 21.565 3.971 5.087 10.044 7.54 15.668 10.304 2.59 1.273 4.873-2.607 2.271-3.886z" opacity="1" data-original="#0f0f0f" class=""></path><path fill="#ffffff" d="M131.055 938.025c-3.631 6.73-3.66 16.664 3.35 18.536L244.316 975s11.264-28.676-7.814-38.092l-7.449-3.5-8.334 20.82-89.665-16.203z" opacity="1" data-original="#ffffff" class=""></path><path fill="#292929" d="M129.112 936.89c-3.245 6.137-4.875 17.038 2.569 20.995 1.66.883 3.352 1.052 5.167 1.356l23.182 3.89 34.76 5.83 32.352 5.428c5.447.914 10.888 1.87 16.342 2.741l.235.04c1.3.218 2.284-.338 2.767-1.572 1.914-4.888 2.951-10.294 3.293-15.51.604-9.22-1.99-18.822-10.184-24.025-2.924-1.856-6.279-3.128-9.405-4.597-1.424-.669-2.734-.083-3.305 1.345l-7.283 18.192-1.052 2.627 2.768-1.571-8.95-1.617-21.366-3.861-25.84-4.67-22.456-4.058c-3.63-.656-7.254-1.361-10.891-1.968l-.162-.03c-1.194-.215-2.425.327-2.768 1.572-.3 1.09.37 2.55 1.572 2.768l8.95 1.618 21.366 3.86 25.84 4.67 22.456 4.058c3.63.656 7.254 1.362 10.892 1.968l.161.03c1.303.235 2.28-.354 2.768-1.572l7.282-18.193 1.052-2.627-3.305 1.345c2.48 1.165 4.982 2.292 7.444 3.497 3.806 1.862 6.775 4.993 8.264 8.64 2.832 6.94 1.929 14.726.126 21.739-.449 1.744-.948 3.495-1.606 5.174l2.768-1.571-13.002-2.182-30.327-5.087-34.636-5.81-25.928-4.35c-1.873-.315-3.754-.599-5.622-.944-4.444-.82-5.009-6.16-4.218-10.127.36-1.807.955-3.541 1.816-5.17 1.353-2.558-2.53-4.835-3.886-2.271z" opacity="1" data-original="#0f0f0f" class=""></path><g fill="#0f0f0f"><path d="M216.976 938.474c-9.698-8.148-20.982-19.356-18.874-33.307.182-1.2-.301-2.419-1.571-2.768-1.063-.292-2.585.363-2.768 1.572-1.14 7.549.927 15.084 4.942 21.507 3.945 6.312 9.432 11.425 15.089 16.178.93.78 2.27.911 3.182 0 .802-.803.934-2.397 0-3.182zM213.745 906.001c-2.75.277-5.383 1.075-7.768 2.493-1.011.602-1.469 2.052-.807 3.079.657 1.018 1.996 1.45 3.079.807.64-.38 1.302-.716 1.986-1.008l-.537.227a16.366 16.366 0 0 1 4.063-1.11l-.598.08c.194-.026.388-.048.582-.068.612-.061 1.142-.21 1.591-.659.39-.39.685-1.03.66-1.59-.027-.583-.218-1.186-.66-1.592-.414-.38-1.007-.718-1.59-.659zM213.276 914.946c-1.953.39-3.794 1.42-5.212 2.808a2.313 2.313 0 0 0-.66 1.59c0 .553.246 1.212.66 1.592.428.393.991.686 1.59.659.601-.027 1.155-.232 1.592-.66.23-.225.473-.437.727-.637l-.455.352a8.61 8.61 0 0 1 1.843-1.083l-.538.226a8.55 8.55 0 0 1 1.649-.508c.53-.106 1.079-.58 1.345-1.034.282-.482.401-1.193.226-1.734-.176-.544-.513-1.07-1.034-1.344-.556-.294-1.114-.351-1.733-.227zM215.94 920.178c-.527.065-1.05.125-1.552.304-.479.17-.965.373-1.4.642a7.073 7.073 0 0 0-2.193 2.145 1.675 1.675 0 0 0-.267.836c-.067.3-.053.598.04.897.144.522.548 1.088 1.035 1.345.522.276 1.154.414 1.733.227l.538-.227c.338-.2.607-.469.807-.807.064-.096.13-.189.2-.28l-.351.456c.234-.297.502-.562.8-.793l-.455.351a4.765 4.765 0 0 1 1.018-.59l-.538.226c.365-.15.744-.254 1.135-.307l-.598.08.049-.005c.31.012.599-.053.867-.194.279-.09.52-.246.724-.465.22-.204.374-.445.465-.724.141-.268.206-.557.194-.867-.026-.582-.217-1.186-.66-1.591l-.454-.352a2.24 2.24 0 0 0-1.136-.307zM167.56 529.54c-10.554 16.027-8.73 36.165-5.944 54.2 3.36 21.76 6.834 43.452 9.29 65.342a1100.936 1100.936 0 0 1 6.795 135.044 1097.876 1097.876 0 0 1-3.492 76.112c-.232 2.886 4.27 2.871 4.5 0a1102.358 1102.358 0 0 0 3.354-67.072 1101.166 1101.166 0 0 0-5.587-134.132 1107.25 1107.25 0 0 0-8.893-66.52c-1.544-9.373-3.198-18.753-3.566-28.264-.346-8.944.398-18.249 4.134-26.5a43.177 43.177 0 0 1 3.294-5.938c1.598-2.426-2.297-4.682-3.885-2.271zM326.645 835.597c-4.05-18.47-8.766-36.788-13.994-54.958-5.392-18.74-11.326-37.324-17.685-55.758-6.435-18.654-13.307-37.156-20.542-55.514a1596.681 1596.681 0 0 0-22.589-54.301 1720.577 1720.577 0 0 0-26.8-58.283c-1.258-2.608-5.14-.328-3.886 2.271a1738.392 1738.392 0 0 1 23.74 51.326 1586.676 1586.676 0 0 1 22.72 53.942c7.286 18.248 14.219 36.638 20.729 55.177 6.447 18.364 12.481 36.874 17.993 55.54 5.38 18.22 10.264 36.59 14.49 55.112.505 2.212.999 4.426 1.485 6.642.62 2.827 4.96 1.63 4.34-1.196zM270.22 227.958c-7.221 3.47-12.948 9.934-15.523 17.521-.574 1.694-1.001 3.507-.655 5.262.57 2.886 3.14 5.014 5.894 6.048 5.556 2.088 11.953.548 16.98-2.606 5.028-3.154 8.953-7.752 12.793-12.277" fill="#292929" opacity="1" data-original="#0f0f0f" class=""></path><path d="M269.085 226.015c-4.497 2.198-8.417 5.455-11.472 9.413-1.5 1.941-2.794 4.02-3.807 6.257-1.116 2.466-2.217 5.2-2.132 7.953.173 5.591 5.34 9.194 10.435 10.061 5.396.919 10.953-.553 15.59-3.356 5.399-3.262 9.564-8.091 13.602-12.846.786-.925.908-2.273 0-3.182-.807-.806-2.392-.93-3.182 0-5.73 6.747-12.543 14.858-22.155 15.17-3.46.113-8.892-1.105-9.711-5.164-.412-2.038.555-4.354 1.36-6.191a29.539 29.539 0 0 1 3.139-5.44c2.729-3.77 6.437-6.752 10.604-8.79 2.602-1.27.324-5.153-2.27-3.885z" fill="#292929" opacity="1" data-original="#0f0f0f" class=""></path></g><path fill="#ffffff" d="M358.172 266.236c-23.416-30.509-53.96-53.572-82.423-78.849-5.677-5.041-11.95-10.244-19.51-10.959-4.25-.402-8.315.665-12.264 2.112-2.162.793-4.29 1.7-6.395 2.54-7.872 3.146-15.81 5.397-23.486 9.5-2.567 1.371-5.462 3.475-5.173 6.372.183 1.843 1.719 3.326 3.443 4.002s3.625.698 5.477.712c3.413.026 7.299-1.577 10.568-.708-1.538 1.552-.982 4.337.584 5.86s3.797 2.103 5.924 2.599c-2.148.295-3.026 3.3-1.895 5.15s3.458 2.613 5.624 2.72c-1.523 1.693-1.092 4.595.598 6.12s4.264 1.784 6.432 1.087c2.315-.743 16.165 18.545 17.44 20.449 7.197 10.754 43.867 71.79 25.479 43.188" opacity="1" data-original="#fec9b4" class=""></path><path fill="#292929" d="M360.115 265.1c-17.783-23.12-39.787-42.292-61.849-61.182-5.563-4.763-11.131-9.521-16.642-14.346-5.127-4.488-10.128-9.5-16.25-12.634-3.147-1.61-6.531-2.665-10.076-2.826-3.76-.17-7.514.714-11.041 1.944-3.641 1.269-7.165 2.855-10.777 4.203-3.64 1.358-7.314 2.621-10.93 4.043-3.77 1.483-7.737 3.02-11.143 5.246-2.965 1.938-5.779 5.208-4.418 8.998 1.444 4.02 5.698 5.232 9.565 5.351 2.025.063 3.977-.183 5.97-.521 1.733-.294 3.546-.659 5.287-.249l-.993-3.76c-1.998 2.243-2.003 5.517-.304 7.96 1.802 2.589 4.874 3.57 7.805 4.259v-4.34c-3.127.615-4.658 4.266-3.808 7.144 1.038 3.518 4.811 4.926 8.135 5.146l-1.591-3.84a6.822 6.822 0 0 0 .365 9.075c1.277 1.332 3.057 2.05 4.86 2.263.85.1 1.657.071 2.503-.051.378-.055.758-.107 1.126-.212.688-.197-.095-.07-.31-.08-.444-.024-.17-.007-.029.03-.22-.057-.471-.297-.218-.07.07.062.186.124.27.17.385.21-.053-.056-.007-.017.538.46 1.056.934 1.553 1.44 1.378 1.4 2.651 2.907 3.899 4.424 3.978 4.837 7.85 9.884 11.3 15.233 3.548 5.502 6.956 11.097 10.367 16.685 4.071 6.668 8.11 13.356 12.1 20.074a676.098 676.098 0 0 1 4.537 7.731c.777 1.35 1.458 2.777 2.267 4.104.201.33-.202-.57-.134-.323.043.157-.018-.988.022-1.087l.578-.992-.003.003.993-.579-.005.001h1.196c.018.003 1.196.781.845.44-.293-.285.429.606.06.075-.322-.465-.65-.925-.965-1.394-1.257-1.863-2.472-3.754-3.688-5.644-1.561-2.428-5.458-.174-3.885 2.271 1.537 2.391 3.029 4.843 4.72 7.13.213.288.417.6.675.852 1.136 1.108 3.071.8 3.704-.698.437-1.032.001-1.899-.467-2.805-2.896-5.608-6.328-10.98-9.568-16.391a1862.67 1862.67 0 0 0-14.191-23.333c-3.24-5.234-6.502-10.4-10.164-15.35-3.081-4.164-6.213-8.334-9.68-12.187-1.179-1.31-2.445-2.747-3.97-3.667-.805-.485-1.654-.693-2.583-.505-1.462.295-3.034.576-4.293-.496-.723-.614-1.289-2.095-.598-2.939 1.25-1.528.446-3.706-1.591-3.84-1.253-.083-3.303-.468-3.818-1.854-.1-.268-.069-.733.039-1.043.162-.465.215-.469.648-.554 2.193-.43 2.099-3.846 0-4.34-1.629-.383-3.497-.744-4.79-1.89-.658-.583-1.447-1.997-.725-2.807 1.073-1.206.743-3.352-.993-3.76-3.41-.804-6.585.306-9.968.577-2.266.182-6.326.445-7.643-1.941-1.163-2.108 2.049-3.915 3.524-4.735 3.1-1.724 6.392-3.113 9.698-4.388 3.479-1.342 7.005-2.556 10.496-3.868 3.318-1.246 6.561-2.69 9.899-3.883 3.31-1.184 6.742-2.1 10.285-1.939 3.004.136 5.895 1.157 8.517 2.589 5.722 3.125 10.417 7.875 15.288 12.132 5.074 4.433 10.195 8.813 15.313 13.195 10.34 8.852 20.677 17.717 30.595 27.042 11.178 10.51 21.855 21.628 31.218 33.801.74.962 1.935 1.476 3.078.808.947-.554 1.553-2.11.807-3.079z" opacity="1" data-original="#0f0f0f" class=""></path><path fill="#cccccc" d="M191.51 402.207c16.023 11.063 33.195 20.798 51.859 26.348 18.663 5.549 38.98 6.72 57.542.84 10.018-3.175 19.306-8.307 28.169-13.954 8.328-5.306 16.422-11.164 22.952-18.572 5.562-6.309 9.881-13.626 13.502-21.216 9.052-18.974 13.848-40.544 11.738-61.58-.826-8.242-5.068-16.542-7.525-24.466-3.224-10.392-8.19-20.21-14.299-29.198-8.956-13.177-20.314-24.59-32.59-34.744-7.995-6.613-16.409-12.728-24.08-19.713-.21 13.307-8.657 27.86-19.888 34.984-16.807 10.66-23.203 12.874-23.227 12.882-.32.11 16.91 25.9 18.454 28.038 10.875 15.05 20.354 31.558 24.012 50.042-7.728-5.904-13.841-7.496-22.848-9.986-29.84-8.252-62.332-16.387-90.984-4.658" opacity="1" data-original="#ffbe57" class=""></path><path fill="#292929" d="M190.375 404.15c21.859 15.07 46.118 27.711 72.846 30.735 13.55 1.533 27.533.456 40.455-4.041 12.53-4.361 24.27-11.402 34.98-19.16 5.398-3.91 10.55-8.213 14.967-13.224 4.324-4.905 7.951-10.391 11.051-16.139 6.26-11.607 10.847-24.23 13.299-37.193 1.25-6.608 1.97-13.332 2.037-20.058.067-6.753-.383-13.506-2.386-19.987-1.007-3.26-2.25-6.44-3.45-9.634-1.167-3.111-2.148-6.274-3.233-9.413-2.155-6.237-4.905-12.276-8.135-18.028-6.422-11.435-14.763-21.75-24.037-30.989-9.498-9.46-20.16-17.457-30.525-25.912a197.017 197.017 0 0 1-7.875-6.746c-1.44-1.306-3.798-.41-3.841 1.591-.276 12.893-7.95 26.108-18.774 33.041-5.41 3.465-10.939 6.79-16.629 9.774a91.975 91.975 0 0 1-4.3 2.134c-.233.107-.466.212-.7.316-.141.062-.813.35-.374.165.416-.176-.307.12-.484.191-3.199 1.277-1.354 3.845-.14 5.755 2.07 3.26 4.205 6.48 6.336 9.701 4.174 6.307 8.374 12.589 12.717 18.78 8.788 12.528 16.472 26.075 20.444 40.949a93.322 93.322 0 0 1 1.335 5.738l3.305-2.54c-5.633-4.27-11.909-6.943-18.664-8.894a543.09 543.09 0 0 0-22.847-6.088c-15.597-3.776-31.752-6.651-47.859-5.635-8.973.565-17.852 2.36-26.196 5.745-1.125.457-1.92 1.498-1.572 2.768.294 1.067 1.635 2.031 2.768 1.571 14.482-5.876 30.171-6.675 45.562-4.963 15.647 1.74 30.925 5.933 46.057 10.128 3.564.988 7.155 1.98 10.574 3.41 3.553 1.486 6.842 3.521 9.906 5.843 1.713 1.299 3.647-.837 3.305-2.54-3.51-17.509-12.174-33.452-22.357-47.94-5.074-7.22-9.95-14.573-14.797-21.946a538.522 538.522 0 0 1-3.839-5.898c-.41-.642-.82-1.285-1.215-1.937-.115-.189-.219-.386-.338-.572-.354-.554.177.573.157.814l-.659 1.591.004-.004-.993.579c4.667-1.621 9.097-4.316 13.346-6.772 5.325-3.078 10.907-6.126 15.54-10.207 4.42-3.892 8.081-8.744 10.774-13.973 3.041-5.906 4.964-12.418 5.107-19.084l-3.841 1.591c9.963 9.042 21.052 16.734 31.062 25.726 9.307 8.36 17.93 17.574 25.009 27.913 3.618 5.284 6.835 10.846 9.542 16.652 2.717 5.824 4.478 11.94 6.712 17.946 2.29 6.156 4.959 12.36 5.575 18.964.605 6.493.557 13.042-.07 19.532-1.228 12.73-4.737 25.312-9.927 36.988-5.177 11.648-11.89 22.388-21.54 30.846-4.852 4.252-10.172 7.926-15.606 11.389-5.525 3.52-11.199 6.834-17.139 9.608-11.919 5.566-24.797 8.168-37.937 7.92-26.233-.496-50.716-11.57-72.426-25.556a299.373 299.373 0 0 1-7.796-5.207c-1-.69-2.497-.186-3.078.807-.653 1.117-.196 2.387.807 3.079z" opacity="1" data-original="#0f0f0f" class=""></path><g fill="#0f0f0f"><path d="M113.562 490.039c-.97 4.45-3.077 10.365-3.217 12.047-.556 6.675 2.05 14.511 4.117 20.73.982 2.955 31.122 2.252 33.893 2.29 20.67.278 43.733-2.31 63.565-8.528 13.463-4.22 26.336-11.675 34.57-23.133-12.146 9.184-28.07 11.245-43.195 12.997-10.972 1.271-22.053 2.544-33.035 1.361-20.45-2.201-38.948-12.677-56.78-22.928.824.473.646 2.57.082 5.164z" fill="#292929" opacity="1" data-original="#0f0f0f" class=""></path><path d="M111.392 489.44c-.704 3.167-1.712 6.25-2.593 9.368-.815 2.881-.912 5.69-.562 8.671.45 3.823 1.391 7.545 2.525 11.217.491 1.588.953 3.215 1.55 4.767a3.43 3.43 0 0 0 1.5 1.793c1.066.647 2.408.89 3.62 1.088 1.853.303 3.727.484 5.6.618 4.431.317 8.881.397 13.323.43 9.049.066 18.158.138 27.191-.34 15.527-.824 31.113-3.068 46.058-7.423 13.31-3.879 26.29-10.29 35.537-20.888a58.783 58.783 0 0 0 3.29-4.16c1.29-1.779-1.298-4.412-3.078-3.079-13.756 10.301-31.946 11.645-48.455 13.412-9.72 1.041-19.641 1.765-29.357.289-8.898-1.352-17.518-4.225-25.722-7.88-9.38-4.178-18.31-9.279-27.203-14.39-2.572-1.48-4.544 2.2-2.271 3.885-.515-.846-.71-1.061-.581-.645.032.136.038.147.017.034-.058.26.006.69-.011.96-.052.767-.22 1.523-.378 2.274-.596 2.825 3.74 4.032 4.34 1.196.542-2.568 1.328-5.894-1.116-7.705l-2.271 3.886c16.085 9.246 32.705 18.748 51.152 22.238 9.914 1.876 19.947 1.665 29.95.71 9.179-.877 18.45-1.842 27.507-3.605 9.463-1.842 18.88-4.938 26.67-10.773l-3.077-3.079c-7.673 10.588-19.483 17.54-31.718 21.612-13.916 4.632-28.621 7.07-43.214 8.229-9.658.767-19.338.734-29.019.752-4.16.008-8.321-.025-12.48-.176-2.038-.074-4.078-.175-6.112-.343-.84-.07-1.678-.155-2.515-.253-.087-.01-.73-.101-.156-.018a40.089 40.089 0 0 1-.533-.08 23.51 23.51 0 0 1-1.13-.202c-.32-.067-.64-.14-.954-.23-.263-.074-1.007-.464-.313-.068-.296-.17-.633-.52-.11.019-.19-.195-.05-.154.184.273.391.712.056.097-.095-.36-1.262-3.807-2.493-7.642-3.254-11.586-.366-1.9-.599-3.82-.609-5.757a23.947 23.947 0 0 1 .076-2.035c-.054.357-.058.398-.012.124.104-.55.248-1.09.394-1.629.905-3.32 2.007-6.582 2.754-9.944.628-2.822-3.71-4.027-4.339-1.197z" fill="#292929" opacity="1" data-original="#0f0f0f" class=""></path></g><path fill="#cccccc" d="M225.527 351.858c4.965 6.37 7.08 14.452 8.902 22.32a549.113 549.113 0 0 1 7.262 37.103c1.842 11.516 6.12 21.209 10.283 32.089 2.962 7.739 8.024 15.513 8.045 24.027.02 8.093-3.66 15.931-9.139 21.889-13.545 14.729-30.706 21.518-50.02 24.46-19.533 2.978-39.773 3.468-59.214-.444-20.658-4.156-35.716-13.378-41.706-34.52-3.413-12.046-.488-25.09.128-37.365.827-16.49.85-33.034 2.76-49.454 2.681-23.04 9.811-49.066 27.136-65.627 14.864-14.207 40.307-15.684 59.966-15.101" opacity="1" data-original="#ffbe57" class=""></path><path fill="#292929" d="M223.584 352.994c5.624 7.321 7.514 16.558 9.494 25.373a549.295 549.295 0 0 1 5.97 30.604c.8 4.837 1.717 9.588 3.141 14.287 1.394 4.6 3.099 9.098 4.842 13.576 1.711 4.396 3.37 8.809 5.326 13.103 1.869 4.102 3.838 8.201 4.842 12.62 3.934 17.325-12.123 31.637-25.717 39.114-15.355 8.446-33.387 10.987-50.654 11.92-10.176.55-20.445.31-30.547-1.093-7.765-1.08-15.607-2.694-22.87-5.721-5.829-2.43-11.235-5.89-15.55-10.525-4.651-4.996-7.76-11.191-9.65-17.714-2.72-9.387-1.477-19.283-.55-28.843 1-10.32 1.138-20.698 1.55-31.052.722-18.111 2.084-36.283 7.316-53.73 2.345-7.821 5.437-15.423 9.613-22.454 3.89-6.548 8.807-13.028 15.005-17.56 12.459-9.108 28.873-11.13 43.884-11.47 3.634-.083 7.269-.05 10.901.056 2.897.084 2.895-4.416 0-4.5-15.928-.462-32.646.286-47.484 6.65-7.389 3.168-13.598 7.987-18.773 14.116-5.479 6.488-9.748 13.864-13.055 21.668-6.96 16.425-9.818 34.194-11.09 51.89-.776 10.792-1.008 21.61-1.452 32.417a271.387 271.387 0 0 1-1.052 15.362c-.5 5.112-1.014 10.238-.954 15.38.184 15.734 7.408 30.956 20.674 39.734 5.914 3.913 12.689 6.46 19.535 8.192 9.583 2.423 19.549 3.556 29.416 3.876 10.486.34 20.983-.338 31.377-1.729 8.704-1.164 17.328-2.866 25.578-5.94 7.996-2.978 15.458-7.093 22.097-12.465 7.002-5.665 13.207-12.568 16.02-21.278 1.42-4.4 1.846-9.067 1.13-13.635-.727-4.629-2.656-8.978-4.582-13.212-3.995-8.782-7.647-17.875-10.522-27.09-3.103-9.946-4.204-20.41-6.197-30.611a552.106 552.106 0 0 0-3.287-15.618c-1.047-4.646-2.084-9.318-3.63-13.83-1.48-4.321-3.416-8.503-6.21-12.14-.738-.961-1.935-1.475-3.078-.807-.947.554-1.552 2.11-.807 3.079z" opacity="1" data-original="#0f0f0f" class=""></path><path fill="#ffffff" d="M195.834 314.2a45.632 45.632 0 0 0 19.114-14.299c18.563-23.644-1.98-62.628-1.98-62.628-11.289-17.383-85.273-13.993-80.689 34.93.568 6.058 1.842 12.853 4.44 18.399 2.785 5.942 7.974 10.232 8.235 17.345.044 1.186-.053 2.377.06 3.558.856 8.888 14.383 16.35 21.085 20.709 8.21 5.338 17.93 10.002 27.968 9.496 10.827-.546 11.604-6.923 6.241-15.126-2.226-3.405-3.723-7.236-4.31-11.262l-.164-1.122z" opacity="1" data-original="#fec9b4" class=""></path><path fill="#292929" d="M196.432 316.37c7.924-3.188 14.937-8.263 20.211-15.012 4.305-5.507 6.856-12.058 7.805-18.962 1.679-12.216-.967-24.792-5.217-36.239-1.18-3.182-2.487-6.335-3.995-9.377-1.029-2.073-2.812-3.68-4.674-5.002-6.084-4.32-14.225-5.694-21.502-6.166-9.15-.594-18.563.52-27.3 3.312-8.776 2.804-17.312 7.476-23.293 14.624-6.56 7.84-9.303 17.836-8.497 27.97.687 8.639 2.567 17.343 7.381 24.665 2.004 3.048 4.285 6.052 5.089 9.681.475 2.145.12 4.346.435 6.51.216 1.491.729 2.9 1.41 4.242 3.13 6.16 9.586 10.426 15.219 14.068 6.726 4.35 13.483 8.77 21.15 11.293 4.291 1.413 8.886 2.216 13.412 1.983 3.255-.168 6.851-.788 9.323-3.098 2.13-1.992 2.677-4.845 2.231-7.63-.542-3.395-2.48-6.179-4.17-9.08-1.912-3.288-2.9-6.809-3.447-10.55-.175-1.203-1.7-1.865-2.767-1.571-1.291.354-1.748 1.56-1.572 2.767.548 3.755 1.58 7.312 3.372 10.677 1.498 2.812 3.502 5.275 4.16 8.464.356 1.729-.078 3.243-1.44 4.081-2.674 1.645-6.45 1.627-9.599 1.384-8.416-.648-16.167-4.774-23.13-9.267-5.244-3.384-10.756-6.524-15.2-10.972-1.981-1.983-3.824-4.292-4.446-7.043-.361-1.593-.068-3.57-.268-5.356-.226-2.018-.773-3.896-1.599-5.748-1.482-3.322-3.804-6.154-5.64-9.273-2.063-3.503-3.257-7.439-4.11-11.394-.767-3.56-1.281-7.21-1.411-10.854a42.665 42.665 0 0 1 .034-3.88c.033-.58.077-1.16.135-1.739.08-.8.086-.86.199-1.57.718-4.535 2.08-8.296 4.397-12.045 2.126-3.439 4.876-6.405 8.295-9.088.008-.006.047-.04.313-.238a44.909 44.909 0 0 1 2.031-1.434 47.833 47.833 0 0 1 2.78-1.713 51.721 51.721 0 0 1 4.31-2.2c.234-.107.47-.213.707-.316.103-.046.807-.345.482-.21 8.26-3.443 16.68-4.958 25.357-5.09 2.06-.031 4.123.024 6.178.173a64.343 64.343 0 0 1 3.695.374c-.455-.06.12.019.274.041.477.072.954.146 1.43.228 1.806.312 3.598.712 5.357 1.226.819.24 1.63.503 2.43.796.36.131.715.272 1.07.412l.224.091c.291.118-.381-.166-.096-.04.192.085.385.169.576.256a24.22 24.22 0 0 1 3.815 2.173c.13.091.256.188.383.282-.307-.226-.225-.186.018.02.248.21.497.417.736.639.457.425.857.89 1.268 1.357.248.282-.277-.426-.026-.029.073.116.163.222.235.339.038.061.07.116.106.178.129.223.235.463.349.694a79.288 79.288 0 0 1 1.73 3.777c.045.103.262.612.163.378-.108-.254.135.324.171.413a101.892 101.892 0 0 1 1.452 3.708c.877 2.37 1.671 4.773 2.372 7.201 1.602 5.55 2.747 11.253 3.067 17.028.345 6.207-.241 12.466-2.417 18.323-2.462 6.628-7.294 12.337-12.94 16.512-3.01 2.226-6.303 4.11-9.778 5.507-1.126.453-1.92 1.5-1.571 2.768.294 1.07 1.634 2.027 2.768 1.571z" opacity="1" data-original="#0f0f0f" class=""></path><path fill="#121212" d="M121.185 274.987c3.741 7.147 8.492 14.844 13.984 20.45 4.347 4.434 9.234 1.136 12.108-4.043 2.145-3.89 2.143-8.872.966-13.112-12.673-9.41-8.48-26.706.38-26.58 6.889.1 10.635 4.845 12.297 11.3 1.14 4.425 1.083 9.058 1.02 13.627 2.424.295 4.891.231 7.297-.186.653-.114 1.387-.317 1.68-.911.229-.463.11-1.014-.012-1.515-.735-3.046-1.356-6.132-1.54-9.26-.276-4.713.105-13.273 3.657-16.918 3.322-3.41 11.393-4.408 15.866-5.347 9.83-2.062 20.679-5.22 26.743-13.877 5.937-8.476 2.407-21.75-1.044-30.75-1.884-4.913-4.594-9.675-8.75-12.9s-9.967-4.662-14.829-2.65c-3.961 1.637-6.733 5.207-10.12 7.834-11.683 9.057-27.881 6.605-40.569 13.507-6.084 3.31-11.311 8.928-12.383 15.77-4.075-4.387-10.716-6.193-16.452-4.475 4.384.564 8.337 3.712 9.868 7.859-5.45-.237-10.783 3.785-12.053 9.089a24.393 24.393 0 0 1 10.089-.94c-4.985-.586-6.43 17.833-6.101 20.578.798 6.647 3.593 14.911 6.587 20.888.422.843.86 1.698 1.311 2.562z" opacity="1" data-original="#b6481e" class=""></path><path fill="#292929" d="M119.242 276.123c2.32 4.416 4.835 8.739 7.716 12.816 1.447 2.048 2.982 4.043 4.63 5.933 1.493 1.71 3.035 3.457 5.18 4.33 4.363 1.777 8.47-1.088 11.018-4.474 2.873-3.815 3.902-8.548 3.342-13.258-.135-1.135-.294-2.297-.611-3.399-.38-1.319-1.38-1.87-2.343-2.742-1.326-1.2-2.474-2.552-3.388-4.09-1.572-2.643-2.337-5.555-2.26-8.527.034-1.365.197-2.418.664-3.843.23-.706.238-.736.575-1.387.137-.264.283-.522.44-.774.054-.087.556-.807.33-.515.338-.436.73-.83 1.143-1.194.479-.424-.214.14.096-.082.108-.076.216-.154.33-.222.254-.15.505-.3.773-.427-.404.192.23-.08.374-.123a6.55 6.55 0 0 1 .766-.18c-.47.081.245-.009.401-.012.532-.012 1.082.014 1.61.088 10.01 1.396 9.764 15.162 9.662 22.588-.018 1.316 1.053 2.116 2.25 2.25 2.34.263 4.66.205 6.99-.127 2.316-.33 4.525-1.457 4.336-4.158-.161-2.312-1.016-4.63-1.357-6.933-.266-1.799-.365-3.62-.365-5.438 0-3.25.27-6.568 1.32-9.662.968-2.847 2.818-4.339 5.616-5.342 3.212-1.151 6.598-1.696 9.936-2.343 3.477-.674 6.944-1.497 10.319-2.575 7.325-2.34 14.357-6.106 18.838-12.55 4.41-6.343 3.964-14.765 2.402-21.964-1.62-7.474-4.345-15.458-9.362-21.348-5.428-6.373-14.889-9.71-22.517-5.17-3.48 2.072-6.015 5.315-9.293 7.64-3.143 2.23-6.673 3.71-10.36 4.773-7.481 2.155-15.334 2.757-22.73 5.235-7.423 2.486-14.643 7.154-18.148 14.404-.848 1.754-1.475 3.585-1.799 5.507l3.761-.993c-4.721-4.955-12.064-6.933-18.641-5.054-1.966.562-2.312 4.005 0 4.34 3.622.524 6.944 2.798 8.296 6.287l2.17-2.848c-6.509-.173-12.601 4.441-14.223 10.74-.417 1.622 1.092 3.274 2.768 2.768 3.112-.939 6.259-1.207 9.49-.859v-4.5c-2.569-.219-4.345 2.115-5.278 4.199-1.228 2.743-1.856 5.71-2.31 8.668-.418 2.725-.735 5.486-.799 8.244-.08 3.468.85 7.008 1.777 10.321 1.557 5.563 3.798 10.867 6.465 15.982 1.34 2.569 5.224.296 3.886-2.271-2.127-4.078-3.948-8.24-5.333-12.63-1.043-3.307-2.233-6.977-2.301-10.474-.093-4.805.547-9.442 1.966-14.03.426-1.375.619-1.76 1.338-3.044.244-.437-.21.178.196-.25.067-.07.147-.137.21-.21.217-.253-.19.034-.072.048.043.006.187-.103.227-.135.2-.158-.488.152-.125.06.151-.038.401-.065-.23.015.126-.016.257-.003.383.007 1.212.104 2.25-1.108 2.25-2.25 0-1.325-1.036-2.119-2.25-2.25a26.991 26.991 0 0 0-10.687 1.02l2.768 2.768c1.14-4.425 5.322-7.559 9.883-7.437 1.35.036 2.698-1.485 2.17-2.848-1.89-4.88-6.18-8.668-11.439-9.43v4.339c5.088-1.454 10.616.069 14.263 3.897 1.086 1.14 3.476.698 3.76-.993 1.21-7.19 6.866-12.42 13.243-15.377 6.658-3.088 14.157-3.857 21.26-5.384 7.428-1.596 14.319-4.195 20.023-9.353 2.757-2.492 5.418-5.353 9.218-6.105 3.493-.69 7.188.549 10.052 2.52 5.987 4.12 8.72 11.794 10.666 18.473 1.822 6.251 3.265 13.69.655 19.94-2.623 6.282-9.298 10.208-15.401 12.443-6.313 2.312-12.91 3.117-19.387 4.756-3.073.777-6.329 1.844-8.71 4.027-2.335 2.142-3.419 5.458-3.989 8.486-.588 3.127-.782 6.34-.658 9.518.082 2.106.35 4.205.723 6.28.18 1.002.388 2 .613 2.993.032.143.222 1.489.379 1.547-.205-.076.89-.495.342-.626-.16-.038-.836.168-.948.185-2.064.305-4.178.264-6.247.032l2.25 2.25c.09-6.483.053-13.245-2.944-19.166-2.364-4.672-6.665-7.644-11.909-7.983-3.836-.249-7.111 1.83-9.075 5.05-2.148 3.523-2.587 7.865-1.957 11.874.89 5.666 4.297 10.418 8.803 13.82l-1.034-1.344c1.034 3.862 1.118 8.185-.943 11.736-1.293 2.227-4.023 5.753-6.981 4.298-1.672-.823-3.04-2.797-4.21-4.198-1.374-1.646-2.645-3.372-3.855-5.141-2.567-3.755-4.843-7.7-6.957-11.724-1.347-2.565-5.232-.293-3.885 2.271z" opacity="1" data-original="#0f0f0f" class=""></path><circle cx="203.804" cy="285.785" r="5.987" fill="#dd947a" stroke="#dd947a" stroke-miterlimit="10" opacity="1" data-original="#dd947a" class=""></circle><g fill="#0f0f0f"><path d="M359.542 380.812c-5.193-.381-10.74-2.47-15.89-1.998-3.094.284-7.547 2.407-7.279-2.774.125-2.404 2.383-4.745 3.467-6.798a39.365 39.365 0 0 0 3.016-7.513c1.484-5.171 1.94-10.681 1.049-16 13.68-.387 28.635 1.536 31.223 16.369.958 5.493-5.825 22.163-10.945 24.371-2.62 1.13-1.795-5.447-4.641-5.657z" fill="#292929" opacity="1" data-original="#0f0f0f" class=""></path><path d="M359.542 378.562c-4.18-.344-8.222-1.623-12.406-1.98a20.363 20.363 0 0 0-5.386.254c-1.235.223-1.845.466-2.997.39-.276-.02.041.016.08.018-.028-.001-.332-.118-.38-.102.224-.076.049.107.11.022.003-.003-.118-.06.088.054.154.086.032.05.026-.066-.012-.22-.084-.598-.06-.929.12-1.64 1.42-3.101 2.292-4.418 2.297-3.467 3.782-7.674 4.689-11.713a39.435 39.435 0 0 0 .476-14.962l-2.17 2.849c9.322-.251 22.312.021 27.335 9.428.608 1.14 1.037 2.347 1.357 3.596a21.723 21.723 0 0 1 .362 1.693c0-.005-.047-.466-.027-.199.03.398.044.793.03 1.192-.04 1.132-.111 1.44-.353 2.593a37.605 37.605 0 0 1-.924 3.487c-1.393 4.455-3.543 9.55-6.437 12.919-.352.41-.73.789-1.123 1.159-.365.343.07-.01-.21.182-.177.121-.428.217-.58.36-.15.14-.162-.033-.033.024.058.026.44-.054.55-.036.154.025.878.326.587.243.182.052.064.28.126.132 0 .002-.198-.421-.084-.128.074.19-.154-.43-.2-.567-.864-2.591-1.648-5.102-4.738-5.495-1.208-.153-2.25 1.145-2.25 2.25 0 1.344 1.039 2.096 2.25 2.25-.186-.023-.676-.229-.548-.193.044.013.167.156.188.196-.193-.368-.08-.073-.025.014.061.098.272.537.128.208.116.266.203.548.294.824.338 1.025.6 2.132 1.186 3.05 1.678 2.625 4.535 1.617 6.467-.066 1.814-1.58 3.188-3.746 4.364-5.821 1.473-2.602 2.687-5.367 3.706-8.176.93-2.564 1.679-5.197 2.023-7.906.316-2.494-.108-4.904-.97-7.263-2.112-5.783-6.557-9.74-12.217-11.947-6.351-2.474-13.502-2.684-20.233-2.503-1.585.042-2.402 1.396-2.17 2.848.716 4.468.405 9.087-.69 13.467-.555 2.223-1.287 4.415-2.25 6.495-.869 1.88-2.024 3.499-3.096 5.257-1.694 2.776-2.76 7.66.758 9.596 1.261.693 2.714.642 4.091.452 1.511-.208 2.715-.536 3.967-.585 5.07-.2 10 1.64 15.027 2.054 1.213.1 2.25-1.106 2.25-2.25 0-1.3-1.034-2.15-2.25-2.25z" fill="#292929" opacity="1" data-original="#0f0f0f" class=""></path></g><path fill="#ffffff" d="M200.361 419.575s44.594-29.838 62.08-27.3c9.36-14.6 21.458-27.75 33.288-40.349 13.704-14.594 28.568-27.096 43.303-40.419 14.646-13.242 31.487-25.886 50.811-31.174 1.353-.37 2.847-.697 4.111-.09 1.506.722 2.17 2.616 1.906 4.266s-1.267 3.083-2.363 4.343a25.908 25.908 0 0 1-9.037 6.665c1.786 1.942 3.522 4.027 4.387 6.519.866 2.492.704 5.493-1.027 7.484 3.862 1.262 5.189 7.075 2.258 9.888.955-.916 3.672 4.425 3.819 5 .594 2.325.126 4.717-1.152 6.71 7.574 4.11-4.624 11.558-7.661 14.212-6.362 5.56-12.56 11.31-19.15 16.605-8.197 6.588-10.913 18.668-16.38 27.338-9.702 15.385-20.928 29.947-34.69 41.931-22.324 19.443-52.587 31.668-81.705 26.326-12.656-2.321-24.488-7.774-36.166-13.177-20.583-9.524-41.475-19.245-58.563-34.158" opacity="1" data-original="#fec9b4" class=""></path><path fill="#292929" d="M201.497 421.518c5.158-3.45 10.482-6.672 15.85-9.783 9.807-5.683 19.964-11.19 30.695-14.831 2.578-.875 5.206-1.636 7.887-2.125a41.573 41.573 0 0 1 1.398-.227c-.232.032-.16.02.03 0 .57-.067 1.14-.12 1.713-.15a20.093 20.093 0 0 1 1.614-.023c.24.007.481.018.721.035.15.011 1.062.117.437.03 1.047.146 1.946-.109 2.54-1.033 6.98-10.848 15.314-20.716 23.983-30.24 8.865-9.74 18.026-19.14 27.722-28.056 9.573-8.803 19.256-17.548 29.095-26.05 9.063-7.833 18.768-15.048 29.498-20.445a88.068 88.068 0 0 1 9.092-3.975 82.963 82.963 0 0 1 4.563-1.535c1.132-.344 3.47-1.459 4.635-.853.705.366.763 1.378.639 2.061-.265 1.448-1.435 2.688-2.408 3.718-2.243 2.374-4.905 4.196-7.876 5.539-1.39.628-1.34 2.566-.456 3.533 1.534 1.678 3.154 3.501 3.867 5.706.524 1.622.637 3.708-.507 5.115-1.104 1.357-.693 3.152.993 3.76 2.36.852 2.883 4.478 1.265 6.128-1.719 1.754.605 5.1 2.727 3.534 1.394-1.028-1.86.616-1.747-.053-.146-.119-.136-.103.032.048l.137.143c.303.379.22.234.5.668.477.738.92 1.496 1.318 2.28.088.174.395.908.29.582-.126-.387.126.746.14.919.123 1.47-.328 2.805-1.082 4.045-.625 1.027-.238 2.487.807 3.078.618.35 1.05.708 1.217.961.345.527-.122-.243.052.08.066.122.093.549.047.038.01.112.027.264.008.372-.104.608.152-.454-.033.159-.306 1.017-1.127 2.054-2.148 3.085-2.244 2.265-4.617 3.779-7.027 5.785-4.659 3.878-9.057 8.077-13.655 12.029-2.25 1.933-4.652 3.722-6.835 5.727-1.714 1.574-3.185 3.414-4.492 5.334-2.67 3.925-4.57 8.307-6.542 12.607-2.07 4.516-4.429 8.727-7.151 12.884-6.201 9.468-13.023 18.539-20.754 26.816-14.646 15.681-32.778 28.29-53.57 34.198-10.03 2.85-20.497 4.033-30.896 3.063-11.525-1.074-22.506-5.164-33.013-9.826-10.521-4.668-20.999-9.532-31.252-14.765-10.146-5.18-20.06-10.902-29.151-17.793a122.929 122.929 0 0 1-6.393-5.212c-2.176-1.892-5.372 1.278-3.182 3.182 17.908 15.57 39.607 25.553 60.966 35.41 11.173 5.157 22.578 10.272 34.756 12.505 10.875 1.994 22.023 1.65 32.829-.613 21.821-4.571 41.57-16.62 57.364-32.122 8.404-8.249 15.824-17.471 22.525-27.142 3.1-4.476 6.256-9.007 8.704-13.882 2.19-4.36 3.99-8.91 6.323-13.198 1.118-2.054 2.345-4.087 3.85-5.884 1.673-2.001 3.68-3.563 5.68-5.22 4.974-4.125 9.758-8.471 14.6-12.75.882-.78 1.752-1.58 2.665-2.325.531-.434.7-.547 1.457-1.126 1.423-1.086 2.849-2.176 4.184-3.372 2.397-2.147 5.418-5.354 4.548-8.89-.445-1.812-1.836-3.111-3.41-4l.808 3.078c2.006-3.3 2.246-7.096.442-10.49-.977-1.837-3.476-6.3-6.187-4.299l2.726 3.534c4.14-4.225 2.203-11.68-3.25-13.65l.992 3.761c2.04-2.508 2.61-5.629 1.869-8.763-.776-3.281-3.007-5.99-5.229-8.421l-.455 3.534a28.324 28.324 0 0 0 7.75-5.204c2.258-2.129 4.603-4.839 4.804-8.08.188-3.023-1.711-5.93-4.787-6.422-3.1-.495-6.672 1.095-9.552 2.107-12.174 4.28-23.175 11.164-33.322 19.047-5.142 3.995-10.02 8.29-14.86 12.642-5.17 4.649-10.386 9.245-15.561 13.887-10.572 9.482-20.745 19.288-30.413 29.693-10.515 11.317-20.78 22.987-29.158 36.01l2.541-1.035c-4.629-.641-9.305.34-13.734 1.671-5.556 1.67-10.923 3.985-16.156 6.47-9.69 4.601-19.024 9.965-28.111 15.653a229.119 229.119 0 0 0-5.812 3.733c-2.395 1.602-.145 5.501 2.272 3.885z" opacity="1" data-original="#0f0f0f" class=""></path><path fill="#cccccc" d="M192.149 351.303s46.706 12.91 70.291 40.972c8.945-13.952 35.86-45.537 64.272-70.496 0 0-4.356 26.86 14.201 43.438 10.107 7.857 29.838 13.47 29.838 13.47-4.5 7.398-7.925 15.974-12.047 22.51-9.701 15.385-20.928 29.947-34.689 41.931-22.324 19.443-52.587 31.668-81.706 26.327-12.655-2.322-24.488-7.775-36.165-13.178-20.584-9.524-58.007-29.25-75.094-44.163" opacity="1" data-original="#ffbe57" class=""></path><path fill="#292929" d="M191.55 353.473c5.794 1.604 11.476 3.73 17.045 5.973 11.907 4.794 23.762 10.83 34.374 18.317 6.568 4.635 12.686 9.952 17.88 16.103.98 1.16 2.81.67 3.534-.455 5.148-8.006 11.303-15.4 17.469-22.631a490.511 490.511 0 0 1 28.123-30.264c5.945-5.888 12.045-11.62 18.328-17.146l-3.76-2.189c-1.314 8.168-.447 17.052 1.931 24.924 2.128 7.042 5.773 13.626 10.946 18.89 5.147 5.236 12.379 8.338 19.077 11.071 4.458 1.82 9.022 3.47 13.656 4.79l-1.345-3.304c-2.755 4.56-5.043 9.373-7.439 14.126-2.239 4.442-4.735 8.67-7.468 12.825-5.745 8.733-12.022 17.12-19.065 24.853-13.403 14.716-29.704 26.906-48.56 33.651-9.037 3.233-18.527 5.214-28.136 5.434-10.304.236-20.294-1.764-29.98-5.21-9.1-3.239-17.886-7.404-26.584-11.591a561.128 561.128 0 0 1-21.854-11.133c-7.903-4.24-15.719-8.652-23.367-13.338-6.826-4.182-13.607-8.545-19.904-13.5a100.238 100.238 0 0 1-3.81-3.146c-2.176-1.893-5.372 1.277-3.182 3.182 5.923 5.152 12.442 9.62 19.042 13.852 7.597 4.873 15.407 9.412 23.31 13.769 15.636 8.62 31.69 16.763 48.21 23.567 10.126 4.171 20.635 7.288 31.618 7.933 9.813.576 19.737-.696 29.186-3.356 19.594-5.516 37.17-16.8 51.56-31.053 7.593-7.522 14.375-15.837 20.557-24.548 3.053-4.302 6.07-8.687 8.739-13.24 2.62-4.47 4.78-9.192 7.144-13.798 1.219-2.375 2.488-4.723 3.869-7.008.759-1.256.033-2.912-1.345-3.305-3.568-1.018-7.085-2.25-10.552-3.568-6.26-2.38-12.601-5.14-18.022-9.127-2.76-2.03-5.08-5.082-6.928-7.943a42.102 42.102 0 0 1-4.36-8.904c-1.889-5.389-2.78-10.77-2.944-16.388a58.657 58.657 0 0 1 .147-6.32c.047-.59.109-1.177.174-1.765.083-.75-.093.564.018-.125.354-2.202-1.986-3.75-3.76-2.19-11.103 9.765-21.648 20.16-31.743 30.958-8.503 9.095-16.741 18.472-24.4 28.293-2.96 3.797-5.876 7.648-8.482 11.7l3.534-.455c-9.384-11.113-21.704-19.579-34.449-26.398-9.826-5.258-20.15-9.659-30.708-13.224-2.027-.684-4.064-1.357-6.127-1.928-2.795-.774-3.988 3.566-1.196 4.339zM198.284 310.64c-5.746 3.49-12.744 2.815-19.111 1.929-1.202-.168-2.417.292-2.768 1.571-.29 1.052.36 2.6 1.571 2.768 7.596 1.058 15.722 1.784 22.58-2.382 2.47-1.502.212-5.395-2.272-3.886z" opacity="1" data-original="#0f0f0f" class=""></path><path fill="#ffffff" d="M722.806 27.735h14.356v889.396h-14.356z" opacity="1" data-original="#ffffff" class=""></path><path fill="#292929" d="M737.162 914.88h-14.356l2.25 2.25V41.141c0-3.885.41-8.026 0-11.894-.052-.492 0-1.016 0-1.512l-2.25 2.25h14.356l-2.25-2.25v853.292c0 11.525-.19 23.068 0 34.591.008.504 0 1.009 0 1.512 0 2.896 4.5 2.9 4.5 0V63.838c0-11.525.19-23.068 0-34.591-.008-.504 0-1.009 0-1.512 0-1.217-1.03-2.25-2.25-2.25h-14.356c-1.216 0-2.25 1.03-2.25 2.25v853.292c0 11.525-.19 23.068 0 34.591.008.504 0 1.009 0 1.512 0 1.217 1.03 2.25 2.25 2.25h14.356c2.896 0 2.9-4.5 0-4.5z" opacity="1" data-original="#0f0f0f" class=""></path><ellipse cx="729.984" cy="27.393" fill="#ffffff" rx="7.178" ry="2.393" opacity="1" data-original="#ffffff" class=""></ellipse><path fill="#292929" d="M734.912 27.393c.019-.345.063-.485.16-.654.02-.034.363-.353.03-.085.542-.436.053-.057-.098.028-.151.084-.698.254-.2.11-.437.126-.857.287-1.301.391-.25.059-.5.109-.752.153-.048.009-.511.087-.274.05.177-.027-.257.03-.298.035a20.836 20.836 0 0 1-4.753-.042c.35.05-.34-.066-.43-.083a11.647 11.647 0 0 1-1.49-.381c-.114-.039-.227-.083-.341-.122.07.024.419.212.074.029a19.636 19.636 0 0 1-.46-.25c-.42-.237.203.222 0 .002-.079-.086-.115-.194.033.063.125.174.145.194.058.06l.15.364c-.061-.2.036-.214.036.332 0-.055-.108.589-.048.375.068-.247-.244.508-.112.278.111-.193-.223.281-.195.247.044-.055.11-.117.165-.162-.006.005-.408.243-.202.158.19-.078.39-.229.575-.326.322-.17-.36.106.18-.063.216-.067.428-.138.646-.197.424-.115 1.208-.27 1.426-.304a20.694 20.694 0 0 1 3.683-.116c.336.019.671.045 1.006.081.12.013.242.025.362.042-.339-.047.15.032.21.043.578.102 1.153.235 1.71.421.114.038.227.09.342.122-.149-.043-.311-.154-.074-.029.174.092.344.198.519.288.32.166-.103-.085-.147-.12.094.076.252.34.055.017-.195-.32-.093-.124-.058-.06-.141-.383-.187-.49-.138-.32.048.18.032.056-.049-.375.065 1.173.989 2.306 2.25 2.25 1.164-.052 2.32-.992 2.25-2.25-.18-3.254-4.022-4.11-6.634-4.455-3.173-.42-6.71-.265-9.662 1.072-1.137.515-2.143 1.41-2.467 2.65-.405 1.55.54 2.956 1.8 3.76 1.12.716 2.497 1.083 3.797 1.294 1.757.286 3.535.398 5.312.264 2.834-.214 7.652-.92 7.854-4.585.065-1.177-1.081-2.303-2.25-2.25-1.274.057-2.18.989-2.25 2.25z" opacity="1" data-original="#0f0f0f" class=""></path><path fill="#cccccc" d="m722.806 208.212-166.843-14.357-50.55-44.435 50.55-32.13 166.843 14.355z" opacity="1" data-original="#6da8f1" class=""></path><path fill="#292929" d="m722.806 205.962-16.719-1.44-39.866-3.43-48.164-4.144-41.609-3.58-13.706-1.18c-2.153-.185-4.336-.495-6.498-.558-.093-.003-.187-.016-.28-.025l1.59.66-17.147-15.074-27.124-23.843-6.279-5.52-.455 3.535 17.089-10.862 27.227-17.306 6.234-3.963-1.136.308 16.72 1.438 39.866 3.43 48.163 4.145 41.61 3.58 13.705 1.18c2.148.184 4.341.52 6.498.558.093.002.188.017.281.025l-2.25-2.25v76.566c0 2.895 4.5 2.9 4.5 0v-76.566c0-1.294-1.036-2.146-2.25-2.25l-8.05-.693-21.02-1.809-29.3-2.521-32.885-2.83-31.666-2.724-26.089-2.245-15.452-1.33c-.776-.067-1.592-.216-2.373-.204-.793.013-1.33.425-1.953.822l-2.993 1.902-24.415 15.518-21.17 13.457-1.162.738c-1.15.731-1.588 2.538-.456 3.534l13.665 12.012 24.878 21.868 9.088 7.99c1.22 1.071 2.838 3.045 4.535 3.227 3.102.332 6.223.535 9.331.803L588 198.862l31.025 2.67 34.124 2.936 32.04 2.757 24.7 2.125 12.373 1.065.544.047c1.212.104 2.25-1.11 2.25-2.25 0-1.304-1.034-2.146-2.25-2.25z" opacity="1" data-original="#0f0f0f" class=""></path><path fill="#498db3" d="m737.162 128.911 104.595-32.13 28.712-42.385-34.827-26.662-98.48 24.611z" opacity="1" data-original="#2c6dbf" class=""></path><path fill="#292929" d="m737.76 131.08 20.987-6.446 43.042-13.222 35.215-10.818 4.065-1.249c1.023-.314 1.952-.488 2.633-1.432 2.3-3.19 4.421-6.527 6.627-9.783l21.626-31.925.457-.673c.741-1.095.104-2.381-.808-3.079l-24.996-19.136-6.556-5.018c-1.048-.803-2.078-1.757-3.202-2.452-1.493-.923-4.494.39-6.011.769l-31.159 7.787-39.989 9.993c-7.584 1.895-15.254 3.59-22.785 5.694-.113.032-.228.057-.342.086-.955.238-1.652 1.199-1.652 2.17v76.565c0 2.896 4.5 2.9 4.5 0V52.345l-1.652 2.17 9.781-2.445 23.495-5.871 28.435-7.106 24.6-6.148 8.173-2.042c1.254-.314 2.598-.529 3.82-.955.057-.02.118-.03.176-.044l-1.734-.227 11.768 9.008 18.755 14.358 4.304 3.295-.807-3.078-9.68 14.288-15.452 22.811-3.58 5.286 1.344-1.034-10.438 3.206-24.94 7.662-30.278 9.3-26.067 8.008c-4.223 1.297-8.504 2.479-12.688 3.898-.06.02-.122.037-.183.056-2.76.848-1.583 5.193 1.196 4.34z" opacity="1" data-original="#0f0f0f" class=""></path><path fill="#cccccc" d="m737.162 300.439 130.791 36.978 33.732-25.724-33.732-43.944-130.791-36.978z" opacity="1" data-original="#6da8f1" class=""></path><path fill="#292929" d="m736.564 302.609 5.94 1.679L758 308.669l21.872 6.184 24.85 7.026 24.374 6.89 20.8 5.881 13.761 3.89 3.18.9c1.031.291 1.954.145 2.813-.51l15.709-11.979 16.516-12.595.945-.72c.87-.664 1.618-2.023.807-3.079L894.68 298.9l-16.44-21.417-6.133-7.989c-.88-1.148-2.125-3.418-3.556-3.914-2.26-.784-4.644-1.313-6.944-1.964l-17.692-5.001-24.327-6.878-26.731-7.558-25.276-7.146-19.591-5.539c-3.263-.922-6.515-1.901-9.793-2.768-.146-.039-.29-.082-.436-.124-1.409-.398-2.848.717-2.848 2.17v69.668c0 2.895 4.5 2.9 4.5 0V230.77l-2.848 2.17 13.038 3.686 31.299 8.849 37.723 10.665 32.611 9.22 10.811 3.056c1.675.474 3.37 1.09 5.077 1.436.078.015.155.043.232.065l-1.345-1.034 11.409 14.863 18.17 23.672 4.153 5.41.808-3.079-29.567 22.547-4.166 3.177 1.734-.227-13.038-3.686-31.3-8.85-37.722-10.664-32.611-9.22c-5.285-1.494-10.554-3.18-15.888-4.492-.078-.02-.155-.044-.232-.066-2.792-.789-3.983 3.552-1.196 4.34z" opacity="1" data-original="#0f0f0f" class=""></path><g fill="#0f0f0f"><path d="M775.875 850.89c10.638-12.37 26.839-19.192 42.646-17.958-7.79 5.423-13.426 13.789-17.137 22.81-3.71 9.022-5.631 18.736-7.212 28.425 2.323-6.48 9.34-9.735 15.884-10.443 11.185-1.211 22.196 2.938 32.75 7.02-7.044-.59-12.887 5.565-16.827 11.74a87.143 87.143 0 0 0-9.122 19.102c12.592-2.856 26.502 2.082 34.88 12.382-6.43 1.012-12.282 5.477-15.196 11.596 8.162-1.38 16.926 2.555 21.628 9.712 4.173-6.17 12.257-9.06 19.136-6.84-3.643 1.8-7.503 8.802-7.61 13.037h-112.11" fill="#292929" opacity="1" data-original="#0f0f0f" class=""></path><path d="M777.466 852.48c10.185-11.75 25.478-18.45 41.055-17.298l-1.135-4.193c-12.746 8.973-19.211 23.842-22.684 38.572-1.091 4.63-1.931 9.315-2.7 14.008-.466 2.851 3.316 3.935 4.34 1.196 2.624-7.014 11.233-9.03 17.9-9.005 9.722.038 19.028 3.698 27.966 7.154l.598-4.42c-7.45-.5-13.316 5.136-17.348 10.752-4.706 6.555-8.189 14.123-10.77 21.742-.582 1.716 1.196 3.114 2.767 2.768 12.124-2.675 24.89 2.321 32.691 11.803l.993-3.76c-7.142 1.196-13.388 6.163-16.54 12.63-.91 1.867.579 3.617 2.54 3.305 7.35-1.172 15.002 2.578 19.088 8.678.98 1.463 2.898 1.426 3.885 0 3.627-5.239 10.507-7.694 16.595-5.807l-.538-4.112c-2.586 1.352-4.52 3.93-5.938 6.412-1.487 2.603-2.656 5.545-2.785 8.568l2.25-2.25H771.38c-4.524 0-9.086-.17-13.608 0-.062.002-.125 0-.187 0-2.896 0-2.9 4.5 0 4.5H855.9c4.525 0 9.086.17 13.608 0 .063-.002.125 0 .188 0 1.254 0 2.197-1.032 2.25-2.25.09-2.116 1.085-4.397 2.17-6.296 1.057-1.849 2.397-3.79 4.325-4.799 1.784-.933 1.227-3.565-.538-4.112-8.099-2.51-16.928 1.015-21.677 7.875h3.886c-5.308-7.925-14.711-12.254-24.17-10.746l2.542 3.305c2.704-5.547 7.729-9.537 13.851-10.562 1.835-.307 1.948-2.6.993-3.76-8.833-10.738-23.466-15.963-37.07-12.961l2.768 2.767c2.346-6.923 5.532-13.644 9.643-19.7 3.194-4.705 7.94-9.906 14.136-9.49 1.104.075 2.087-.911 2.21-1.95.14-1.18-.537-2.054-1.611-2.469-7.815-3.022-15.706-5.97-24.074-6.986-6.904-.837-14.54-.276-20.52 3.614-3.142 2.045-5.492 4.85-6.807 8.366l4.34 1.197c2.386-14.586 5.543-30.108 15.012-41.94 2.4-3 5.156-5.736 8.302-7.95 1.848-1.302 1.151-4.025-1.136-4.194-16.644-1.23-33.353 6.06-44.238 18.617-1.888 2.179 1.281 5.375 3.182 3.182z" fill="#292929" opacity="1" data-original="#0f0f0f" class=""></path></g><path fill="#292929" d="M836.302 951.13c-4.856-17.013-27.435-22.143-27.435-22.143 4.756-7.654 24.573-20.364 33.13-21.945-3.072-14.436-27.21-18.95-41.134-20.96 5.755-11.195 15.343-20.15 26.586-24.831-12.664-9.754-30.932-10.617-44.376-2.097 3.152-15.426 10.175-29.955 20.166-41.718-19.484-6.153-42.505 5.117-50.59 24.767a126.682 126.682 0 0 1-1.761-46.074c-17.41 9.822-27.773 31.88-24.621 52.407-8.78-8.117-20.688-12.367-32.347-11.542 10.008 8.126 13.586 15.72 17.41 29.942-11.861-6.003-16.296-6.5-37.748 2.727 0 0 15.913-5.064 24.425 14.804 2.508 9.12-17.576 8.781-22.46 9.541-14.121 2.198-26.83 7.493-33.82 20.923a164.672 164.672 0 0 1 30.467-.713l-.094 2c-9.291-.13-18.591 3.203-25.684 9.205s-11.918 14.624-13.326 23.809c-.186.839 55.724 1.899 63.121 1.899h140.09z" opacity="1" data-original="#55a58a" class=""></path><path fill="#292929" d="M838.472 950.533c-3.478-11.88-14.808-19.186-26-22.847-.99-.324-1.992-.636-3.007-.868l1.344 3.305c.614-.97.82-1.209 1.55-2.03a37.095 37.095 0 0 1 2.467-2.509c1.958-1.826 4.052-3.502 6.216-5.076 4.675-3.402 9.653-6.485 14.891-8.944 2.093-.983 4.278-1.894 6.663-2.352 1.235-.237 1.818-1.658 1.571-2.768-1.416-6.37-6.494-10.942-12.019-13.95-6.223-3.388-13.198-5.33-20.1-6.762-3.508-.727-7.043-1.307-10.587-1.82l1.345 3.305c5.426-10.46 14.319-19.198 25.242-23.797 1.87-.787 2.155-2.88.537-4.112-10.28-7.832-24.28-10.215-36.647-6.59a40.177 40.177 0 0 0-10 4.493l3.305 2.541c3.084-14.922 9.734-29.07 19.587-40.725 1.095-1.295.712-3.23-.993-3.76-16.23-5.042-34.54 1.25-45.593 13.827-3.283 3.737-5.854 7.924-7.764 12.51h4.339c-3.286-14.683-3.914-29.98-1.762-44.877.269-1.858-1.45-3.598-3.305-2.541-14.614 8.326-23.878 24.128-25.907 40.61-.59 4.784-.46 9.576.252 14.338l3.761-2.189c-9.154-8.383-21.5-13.019-33.938-12.201-1.743.114-3.225 2.506-1.59 3.84 4.25 3.472 7.98 7.42 10.671 12.23 2.912 5.208 4.612 10.99 6.159 16.72l3.305-2.541c-4.124-2.083-8.334-4.037-12.972-4.556-4.937-.553-9.932.758-14.568 2.336-4.237 1.442-8.368 3.182-12.478 4.947-2.346 1.007-.673 4.87 1.733 4.112.239-.075.484-.13.728-.184.275-.06.552-.107.829-.157.36-.065.325-.042-.053 0 .248-.028.496-.058.745-.08a19.254 19.254 0 0 1 4.165.083c-.083-.011-.471-.075-.039 0a21.24 21.24 0 0 1 1.947.417c1.523.413 2.27.713 3.616 1.46 1.498.83 2.68 1.73 3.887 2.908 1.461 1.427 2.686 3.035 3.743 4.78a34.742 34.742 0 0 1 1.634 3.036c.2.42.378.845.53 1.274.043.12.083.574.034.087.018.185.015.37.026.556.039.61.111-.084-.03.352-.053.16-.333.837-.076.327a5.34 5.34 0 0 1-.43.715c.312-.435-.205.194-.338.318-.087.083-.178.16-.269.239-.454.392.378-.24-.137.097-.218.142-.435.284-.66.413-.75.43-.956.51-1.573.738-2.942 1.088-6.084 1.526-8.928 1.823-2.496.261-5.01.36-7.503.658-4.315.516-8.645 1.522-12.76 2.914-10.01 3.387-18.503 9.736-23.483 19.189-.713 1.353.137 3.593 1.943 3.386a167.227 167.227 0 0 1 30.466-.713l-2.25-2.25-.094 1.999 2.25-2.25c-10.576-.09-21.047 3.931-28.76 11.19a41.065 41.065 0 0 0-8.765 11.96c-1.123 2.323-2.06 4.747-2.742 7.236a38.086 38.086 0 0 0-.784 3.494c-.19 1.083-.397 2.146.467 3.005.883.878 2.358.83 3.512.92 1.746.138 3.497.216 5.247.294 5.597.248 11.198.407 16.798.557 11.737.316 23.478.573 35.218.723 20.08.257 40.174.035 60.254.035h83.757c2.895 0 2.9-4.5 0-4.5h-72.29c-22.832 0-45.667.12-68.498-.003-9.947-.053-19.897-.306-29.842-.54-10.198-.238-20.47-.263-30.644-1.065-.267-.021-.533-.046-.8-.07-.533-.049-.518-.101-.078 0-.106-.025-.232-.021-.332-.066.651.29.406.13.97 1.244.775 1.53.506 1.162.671.27a37.644 37.644 0 0 1 5.77-14.096c5.434-8.106 14.064-13.612 23.613-15.462 2.395-.463 4.82-.647 7.258-.626 1.258.01 2.194-1.041 2.25-2.25l.094-2c.06-1.273-1.083-2.17-2.25-2.25a167.227 167.227 0 0 0-30.466.714l1.942 3.385c4.465-8.474 11.956-14.162 20.96-17.177a63.622 63.622 0 0 1 6.867-1.857 80.555 80.555 0 0 1 3.205-.618c.518-.09 1.038-.169 1.556-.253-.815.132.136-.01.327-.03 2.802-.289 5.616-.42 8.413-.763 5.405-.664 14.757-1.897 15.439-8.827.207-2.106-.758-3.965-1.7-5.783a32.347 32.347 0 0 0-4.005-5.998c-2.45-2.902-5.555-5.16-9.09-6.544-3.823-1.496-8.673-1.978-12.658-.723l1.734 4.113c5.84-2.508 11.852-5.133 18.121-6.358 1.795-.35 3.625-.535 5.711-.397.21.014.42.033.63.052.14.013.278.029.417.045-.038-.004-.347-.05-.081-.011.482.07.96.159 1.436.263.904.198 1.794.455 2.67.754 2.257.77 4.252 1.753 6.572 2.924 1.714.866 3.838-.565 3.305-2.54-1.646-6.1-3.513-12.253-6.612-17.795-2.866-5.124-6.847-9.443-11.376-13.14l-1.59 3.84c11.261-.74 22.438 3.267 30.755 10.884 1.769 1.62 4.084-.029 3.76-2.19-2.255-15.075 3.134-31.216 13.689-42.151a43.988 43.988 0 0 1 9.898-7.715l-3.305-2.54c-2.274 15.742-1.714 31.74 1.762 47.27.214.957 1.217 1.652 2.17 1.652 1.073 0 1.782-.724 2.169-1.652 5.814-13.957 20.19-23.945 35.257-24.743 4.27-.227 8.48.28 12.565 1.548l-.993-3.76c-10.35 12.244-17.5 27.009-20.744 42.71-.377 1.824 1.544 3.644 3.305 2.54 12.934-8.101 30.007-7.12 42.105 2.097l.537-4.112c-12.022 5.062-21.923 14.283-27.93 25.865-.592 1.141-.18 3.084 1.344 3.305 6.286.91 12.562 2.03 18.667 3.809 5.816 1.694 12.01 4.01 16.464 8.164 2.262 2.11 3.768 4.43 4.432 7.416l1.572-2.768c-5.002.96-9.815 3.67-14.16 6.215-5.287 3.094-10.416 6.633-14.97 10.741-1.987 1.794-3.91 3.75-5.346 6.024-.754 1.192-.044 2.987 1.345 3.305.74.169 1.47.386 2.194.61a52.133 52.133 0 0 1 3.809 1.338c.685.27.908.362 1.31.54 5.085 2.246 9.846 5.144 13.57 9.268 2.294 2.538 4.019 5.53 4.98 8.816.812 2.773 5.156 1.593 4.34-1.197z" opacity="1" data-original="#0f0f0f" class=""></path><path fill="#292929" d="M752.567 884.932c1.08-6.556 5.08-12.307 11.128-15.184l-3.305-2.54c-2.634 8.145-4.239 16.582-4.865 25.118-.174 2.37 3.058 2.863 4.192 1.135 3.278-4.99 10.966-5.181 14.734-.738l.993-3.76c-6.084 1.814-11.21 5.778-14.7 11.055-.902 1.361.268 3.522 1.942 3.385 6.384-.521 12.104 3.425 14.565 9.221l1.345-3.305c-3.434.995-7.616.373-10.33 3.148-3.849 3.933-.745 9.148 2.332 12.362 2.007 2.096 5.186-1.09 3.182-3.182-1.41-1.473-4.451-5.003-1.7-6.457 2.191-1.158 5.284-.829 7.712-1.532 1.533-.444 1.908-1.979 1.345-3.305-3.02-7.111-10.675-12.085-18.45-11.45l1.942 3.386c2.837-4.287 7.078-7.516 12.012-8.987 1.714-.511 2.08-2.479.993-3.76-5.736-6.764-17.053-5.584-21.802 1.648l4.193 1.135c.597-8.139 2.194-16.157 4.704-23.921.653-2.018-1.653-3.327-3.305-2.541-6.968 3.314-11.949 10.303-13.196 17.873-.197 1.197.313 2.422 1.572 2.767 1.076.296 2.57-.365 2.768-1.571zM407.25 258.3l9.986-7.99c.924-.739.828-2.422 0-3.182-.98-.9-2.197-.788-3.182 0l-9.987 7.99c-.923.738-.828 2.422 0 3.182.98.9 2.197.788 3.182 0zM413.65 288.935a27.971 27.971 0 0 1 3.316-.125 27.396 27.396 0 0 1 2.837.216c-.167-.022-.17-.022-.01.001 2.154.33 4.254.91 6.274 1.727 1.094.443 2.52-.48 2.768-1.571.297-1.304-.4-2.294-1.571-2.768a29.162 29.162 0 0 0-13.615-1.98c-1.168.111-2.308.955-2.25 2.25.05 1.123.996 2.37 2.25 2.25zM378.463 242.73c-.45 3.537-.081 7.203 1.023 10.593.364 1.117 1.574 1.958 2.768 1.571 1.116-.36 1.962-1.569 1.571-2.767a22.603 22.603 0 0 1-.916-3.939c.04.294.043.31.011.05-.017-.183-.04-.366-.056-.55a22.955 22.955 0 0 1 .1-4.958c.067-.53-.301-1.233-.66-1.591-.39-.39-1.03-.685-1.59-.66-.583.027-1.186.218-1.592.66-.431.47-.579.963-.659 1.59z" opacity="1" data-original="#0f0f0f" class=""></path></g></svg>