<?xml version="1.0" standalone="no"?>
<!DOCTYPE svg PUBLIC "-//W3C//DTD SVG 20010904//EN"
 "http://www.w3.org/TR/2001/REC-SVG-20010904/DTD/svg10.dtd">
<svg version="1.0" xmlns="http://www.w3.org/2000/svg"
 width="1024.000000pt" height="1024.000000pt" viewBox="0 0 1024.000000 1024.000000"
 preserveAspectRatio="xMidYMid meet">
<metadata>
Created by potrace 1.16, written by Peter Selinger 2001-2019
</metadata>
<g transform="translate(0.000000,1024.000000) scale(0.100000,-0.100000)"
fill="#000000" stroke="none">
<path d="M5600 9448 c-30 -5 -341 -65 -690 -134 -349 -68 -716 -141 -815 -160
-215 -42 -263 -56 -335 -100 -143 -86 -191 -179 -196 -379 -1 -60 -5 -240 -9
-400 -6 -235 -4 -320 9 -450 25 -238 34 -681 45 -2235 6 -773 13 -1549 15
-1725 3 -176 2 -345 -2 -375 l-7 -55 -235 -77 c-129 -42 -320 -103 -425 -137
-245 -77 -803 -267 -833 -283 -34 -18 -24 -46 26 -74 90 -51 499 -257 532
-269 24 -9 30 -15 20 -19 -15 -5 -311 -111 -705 -252 -200 -71 -251 -94 -212
-94 9 0 112 33 229 74 117 41 274 93 348 116 74 22 190 61 256 86 131 47 148
50 180 31 28 -15 314 -163 377 -194 42 -21 48 -27 45 -51 -2 -18 2 -26 10 -24
7 1 12 -5 10 -15 -2 -11 6 -22 20 -28 38 -17 26 -40 -35 -68 -32 -14 -68 -28
-80 -32 -13 -3 -23 -10 -23 -15 0 -8 53 4 133 30 27 9 27 9 27 -40 0 -87 31
-110 335 -253 99 -46 358 -168 576 -271 447 -210 494 -226 658 -226 139 0 193
16 467 134 120 51 406 173 634 271 1279 545 1183 501 1199 548 6 16 11 43 11
60 0 25 3 29 23 24 20 -5 20 -5 5 7 -11 8 -18 27 -18 48 0 59 -11 97 -37 122
-21 22 -252 125 -345 155 -34 11 -38 16 -38 47 0 19 2 34 5 34 6 0 746 -296
800 -320 22 -10 92 -38 155 -63 142 -55 824 -328 828 -332 1 -1 -51 -26 -115
-55 -161 -72 -207 -93 -445 -204 -113 -53 -211 -96 -217 -96 -33 0 6 23 159
94 94 43 169 80 167 82 -4 5 -63 -20 -242 -103 -143 -66 -175 -81 -370 -168
-82 -37 -154 -72 -160 -77 -15 -14 12 -3 215 89 176 79 229 98 203 72 -6 -6
-58 -33 -115 -59 -412 -190 -615 -283 -763 -350 -1200 -544 -1705 -777 -1720
-791 -31 -30 96 24 762 327 406 185 767 350 802 366 76 34 58 26 381 174 140
64 356 163 480 219 124 56 326 150 450 207 371 174 558 258 568 258 5 0 31 12
58 27 56 31 42 43 -21 18 l-44 -16 -303 122 c-167 67 -575 231 -908 364 l-605
242 -3 244 c-2 134 2 734 8 1334 6 600 16 1542 21 2095 5 553 14 1036 19 1074
27 195 103 308 273 405 75 42 95 68 107 134 7 35 10 202 8 439 l-3 383 -29 58
c-35 71 -110 134 -211 176 -69 29 -344 103 -810 219 -211 53 -254 61 -360 64
-66 2 -145 0 -175 -4z m235 -22 c59 -3 201 -35 540 -121 253 -64 484 -125 513
-135 114 -40 221 -123 254 -198 28 -62 37 -212 14 -246 -15 -24 -15 -25 1 -19
15 6 16 -12 9 -233 -4 -131 -7 -272 -6 -312 1 -84 -11 -111 -62 -135 -18 -8
-245 -67 -505 -131 -1539 -378 -1563 -385 -1659 -431 -146 -71 -243 -173 -278
-294 -23 -80 -18 -96 8 -25 59 161 155 253 329 319 73 27 316 90 323 83 2 -3
-40 -17 -94 -32 -100 -29 -210 -71 -227 -87 -5 -5 18 2 51 15 53 20 248 76
268 76 4 0 -10 -15 -31 -32 -54 -46 -71 -66 -108 -123 -71 -109 -94 -201 -45
-175 12 6 24 19 27 28 4 9 9 19 13 22 3 3 23 32 42 65 30 49 78 105 78 91 0
-2 -21 -34 -46 -72 -62 -92 -110 -193 -131 -279 -15 -64 -17 -173 -18 -1240
-1 -643 1 -1665 4 -2270 4 -605 8 -947 10 -760 2 203 7 328 12 310 4 -16 6
227 4 540 -3 314 -6 1196 -7 1960 l-3 1390 22 77 c24 86 55 147 114 228 55 76
103 130 94 105 -36 -98 -42 -191 -50 -820 l-7 -530 -45 -66 c-85 -126 -78 0
-81 -1404 -2 -946 0 -1260 9 -1293 6 -23 30 -68 51 -99 l40 -57 -8 -90 c-4
-50 -7 -130 -5 -177 l1 -87 -44 -26 c-25 -14 -47 -26 -50 -26 -3 0 -6 39 -7
88 0 48 -4 105 -8 127 -9 43 -14 -279 -11 -739 1 -181 -2 -256 -9 -251 -6 3
-15 -5 -21 -20 -7 -19 -30 -36 -85 -61 -98 -45 -132 -52 -138 -28 -4 16 -5 16
-6 -3 -1 -18 -9 -23 -48 -30 -87 -14 -204 -9 -264 10 l-57 19 -7 1256 c-4 692
-11 1646 -15 2122 -8 818 -9 869 -28 935 -29 104 -65 196 -97 251 -42 72 -141
170 -199 199 -85 41 -217 23 -305 -42 -24 -17 -24 -17 -13 4 7 12 24 31 38 42
15 12 22 21 16 21 -34 0 -118 -128 -151 -232 -14 -43 -33 -48 -81 -23 l-30 16
0 427 c0 466 -11 792 -35 1032 -8 85 -16 170 -18 188 -2 23 1 32 13 32 12 1
12 2 -2 11 -16 9 -18 27 -18 142 1 130 14 334 22 343 3 2 24 -2 49 -10 93 -30
319 -88 330 -84 7 2 -64 24 -157 48 -93 23 -179 47 -191 53 -19 8 -22 19 -25
88 -2 44 -2 79 0 79 2 0 13 -5 25 -12 12 -6 69 -24 127 -39 58 -15 224 -59
370 -97 146 -39 319 -85 385 -102 66 -18 143 -38 170 -46 63 -19 263 -28 335
-17 44 7 24 9 -100 9 -169 -1 -132 -8 -550 109 -86 24 -126 35 -455 120 -99
25 -209 55 -244 67 l-64 20 6 54 c8 77 52 159 110 206 27 21 57 38 66 38 22 0
181 49 161 49 -8 1 -40 -6 -70 -14 -67 -18 -72 -18 -39 0 49 27 192 57 1499
314 329 64 277 59 505 47z m1092 -1528 c-92 -92 -138 -173 -143 -248 -9 -142
-24 -579 -24 -722 0 -111 -4 -169 -11 -174 -6 -3 -7 -9 -3 -13 5 -3 6 -213 2
-466 -12 -882 -16 -1393 -9 -1402 3 -4 3 -269 0 -588 -4 -319 -7 -822 -8
-1117 -1 -351 -4 -538 -11 -538 -6 0 -11 87 -12 238 l-2 237 -6 -250 -5 -249
-33 -22 c-54 -37 -297 -121 -311 -108 -2 2 2 1043 9 2314 7 1271 10 2313 7
2317 -4 3 -7 -230 -8 -518 0 -288 -2 -531 -3 -539 -2 -8 -6 -467 -10 -1020 -4
-553 -11 -1313 -16 -1690 -5 -377 -10 -727 -10 -779 l0 -93 -122 4 c-68 3
-135 10 -150 16 l-28 12 0 379 c0 323 2 382 15 394 9 10 11 17 4 19 -6 2 10
37 35 78 120 199 146 266 145 375 0 28 1 226 1 440 1 314 4 381 13 345 12 -47
14 -666 3 -845 -4 -74 -3 -85 6 -60 8 22 13 350 15 1187 l4 1158 -26 58 c-24
54 -52 87 -159 187 l-29 27 6 491 c4 301 3 528 -4 587 -11 116 -2 155 34 146
12 -3 49 1 82 9 33 8 74 14 92 15 27 0 32 -4 38 -30 4 -16 11 -30 16 -30 12 0
11 17 -2 41 -6 13 -7 25 -1 32 12 15 6 29 -45 104 -24 34 -43 67 -43 73 0 6
-19 19 -42 30 -39 17 -40 19 -18 24 53 12 430 106 525 130 120 32 198 57 192
62 -2 2 -23 -3 -47 -11 -23 -8 -50 -15 -59 -14 -16 0 71 33 119 44 19 4 21 3
10 -5 -27 -18 4 -9 55 15 28 13 51 24 52 25 1 0 -35 -37 -80 -82z m-1447
-1082 c96 -24 194 -54 235 -72 22 -9 51 -18 65 -20 14 -2 48 -10 75 -19 45
-14 50 -18 51 -46 2 -38 13 -49 25 -26 18 31 30 19 25 -25 -2 -24 -5 -46 -5
-50 -1 -5 -11 -6 -23 -4 -13 3 -29 5 -35 5 -7 1 -13 13 -13 28 0 14 -3 24 -6
20 -4 -3 -21 4 -38 17 -29 22 -77 42 -123 50 -11 3 -77 23 -148 45 -70 23
-132 41 -138 41 -18 0 -47 -32 -47 -52 0 -20 -15 -24 -26 -6 -13 20 -15 70 -4
63 15 -9 40 14 40 35 0 16 11 27 30 29 3 0 30 -6 60 -13z m-1404 -243 c70 -23
174 -93 217 -145 45 -55 99 -169 127 -269 30 -108 33 -294 47 -2996 l6 -1293
-35 0 -35 0 -6 608 c-4 334 -10 1049 -14 1590 -4 642 -10 982 -16 982 -7 0 -8
-213 -3 -630 l7 -629 -38 13 c-21 8 -117 45 -213 84 -233 94 -312 123 -306
113 3 -4 128 -57 279 -117 l274 -109 6 -479 c8 -546 9 -1416 3 -1416 -9 0
-571 261 -577 268 -4 4 -11 480 -18 1057 -6 578 -16 1489 -22 2025 -12 1029
-10 1094 31 1188 30 68 75 117 132 145 63 31 88 32 154 10z m1558 -209 c78
-26 160 -47 183 -48 43 -1 43 -1 43 -39 0 -46 13 -47 -227 31 -157 51 -173 59
-173 79 0 32 12 30 174 -23z m-1938 -35 l21 -7 6 -764 c4 -420 12 -1347 19
-2060 6 -714 9 -1300 6 -1304 -3 -3 -20 2 -37 11 -30 15 -31 17 -31 88 0 39
-4 205 -10 367 -9 292 -24 1482 -36 2938 l-6 754 24 -7 c12 -4 32 -11 44 -16z
m2071 -336 c-4 -38 -7 -120 -7 -184 l0 -116 -27 2 c-16 1 -31 3 -35 3 -5 1 -8
78 -8 170 0 182 3 192 53 192 l30 0 -6 -67z m73 -125 c0 -200 -6 -232 -34
-209 -14 11 -16 42 -16 201 0 102 3 190 7 193 3 4 15 7 25 7 17 0 18 -12 18
-192z m335 30 c3 -46 5 -121 3 -168 l-3 -85 -37 -9 c-25 -6 -50 -5 -78 3 l-40
12 0 52 c0 71 15 119 62 205 31 58 44 72 63 72 22 0 24 -5 30 -82z m-958 -200
c12 -24 27 -72 32 -108 17 -101 15 -107 -20 -115 -17 -4 -32 -5 -34 -3 -8 8
-17 280 -9 275 6 -3 19 -25 31 -49z m538 -99 c5 -5 19 -9 32 -9 l23 0 0 -294
c0 -289 0 -294 -20 -289 -11 3 -20 10 -20 15 0 5 -4 7 -9 4 -5 -3 -31 2 -58
12 l-50 17 -2 292 -2 292 48 -16 c26 -8 52 -20 58 -24z m431 -861 c-3 -890 -5
-930 -56 -1158 -38 -171 -137 -339 -233 -394 -69 -40 -121 -49 -195 -36 -99
19 -176 62 -266 148 -147 142 -190 221 -222 404 -11 64 -17 268 -25 897 -11
880 -13 832 42 846 l27 7 7 -254 c4 -139 8 -534 9 -878 2 -545 5 -633 19 -688
21 -79 67 -170 105 -208 16 -16 57 -56 90 -89 33 -32 58 -63 55 -69 -3 -5 -1
-6 5 -2 5 3 12 3 14 -1 1 -5 23 -18 48 -29 110 -53 197 -37 276 50 86 94 90
103 132 241 48 159 52 188 52 330 0 111 3 135 14 135 8 0 15 8 15 18 1 9 5
328 10 707 6 380 13 733 17 787 6 85 9 97 28 106 17 8 22 5 27 -13 4 -13 6
-398 5 -857z m-96 830 c0 -18 -5 -98 -10 -177 -6 -80 -11 -216 -11 -303 -1
-86 -5 -155 -9 -153 -4 3 -10 -116 -12 -263 -3 -147 -6 -301 -7 -342 -2 -132
-59 -319 -114 -379 -28 -30 -99 -61 -141 -61 -18 0 -48 5 -67 12 -47 16 -141
89 -186 146 -21 26 -41 49 -44 52 -15 13 -90 131 -117 186 -59 117 -62 145
-73 573 -6 216 -8 396 -5 399 3 3 8 3 11 1 2 -3 9 -153 14 -334 6 -182 15
-361 21 -400 31 -211 133 -392 304 -542 48 -42 50 -43 121 -43 71 0 74 1 104
35 85 98 104 214 121 765 11 369 24 593 42 758 10 97 12 102 34 102 20 0 24
-5 24 -32z m-2460 -2407 l0 -239 -32 -6 c-18 -4 -40 -8 -48 -10 -8 -1 -32 -10
-54 -19 -21 -9 -42 -14 -47 -11 -5 3 -9 0 -9 -6 0 -6 -5 -8 -10 -5 -6 4 -16 2
-23 -3 -20 -17 -108 -6 -185 22 -41 15 -99 34 -129 42 -31 8 -61 18 -67 22 -6
3 -13 7 -16 8 -3 0 -12 4 -20 7 -51 22 -184 58 -197 53 -27 -11 -4 -23 109
-61 62 -21 149 -54 193 -74 77 -36 127 -53 189 -66 38 -8 29 -14 -28 -20 -26
-2 -52 -8 -59 -12 -7 -4 -21 -9 -32 -10 -37 -6 -47 -13 -41 -29 4 -11 1 -14
-13 -9 -11 3 -25 -1 -34 -10 -9 -9 -23 -12 -34 -8 -10 3 -15 2 -10 -2 9 -10
-19 -23 -166 -76 -114 -41 -147 -43 -197 -9 -14 9 -43 25 -65 35 -22 9 -142
68 -266 130 l-227 112 102 32 c55 18 139 46 186 62 466 164 1210 409 1223 402
4 -2 7 -111 7 -242z m2366 -392 c4 -131 3 -233 -2 -242 -8 -14 -33 -6 -194 64
-102 45 -192 87 -201 95 -8 8 -24 14 -35 15 -11 0 -14 3 -6 6 10 4 10 8 1 19
-9 11 -9 14 1 14 10 0 10 3 0 14 -9 12 -5 16 24 22 20 3 42 4 50 1 17 -7 143
18 160 31 6 5 23 12 38 16 15 3 43 20 62 36 18 17 38 30 44 30 6 0 19 25 28
55 10 30 19 54 20 52 1 -1 6 -104 10 -228z m-2543 -38 c3 -11 2 -23 -2 -26 -3
-4 -6 -15 -6 -26 0 -21 -5 -22 -52 -13 -24 5 -33 12 -33 26 0 19 -1 19 -19 -3
-22 -27 -18 -87 7 -105 11 -8 13 -21 8 -52 -6 -38 -4 -42 14 -42 25 0 26 -17
1 -25 -20 -6 -25 -55 -6 -55 6 0 16 -9 23 -20 7 -12 17 -18 22 -15 6 3 10 0
10 -7 0 -8 -13 -19 -30 -25 -16 -6 -30 -8 -30 -3 0 5 5 10 12 12 8 3 7 11 -5
28 -9 14 -17 20 -17 14 0 -5 5 -15 12 -22 9 -9 9 -12 0 -12 -7 0 -12 -9 -12
-19 0 -30 -28 -33 -70 -6 -22 14 -41 25 -44 25 -2 0 -66 30 -142 66 -77 36
-169 80 -206 97 -37 18 -66 36 -64 42 1 5 22 16 47 25 24 9 58 22 74 30 17 7
46 16 65 21 19 5 44 12 55 15 11 3 27 7 35 8 30 5 60 18 60 26 0 14 118 31
127 17 3 -4 13 -1 24 9 13 12 28 15 49 10 22 -4 32 -1 36 9 9 22 51 19 57 -4z
m1887 -36 c13 -4 90 -37 170 -72 273 -122 444 -193 524 -219 164 -52 354 -41
535 32 117 47 157 80 165 139 3 25 9 65 12 90 3 25 8 45 10 45 6 0 221 -88
291 -120 37 -17 74 -38 81 -47 18 -25 15 -87 -6 -106 -21 -19 -11 -15 -582
-257 -223 -95 -647 -275 -943 -401 -296 -126 -566 -237 -600 -246 -72 -19
-246 -21 -321 -4 -27 7 -51 10 -53 7 -21 -20 178 -51 266 -41 122 14 199 42
683 249 277 117 724 307 993 421 270 114 509 218 533 230 l42 24 0 -27 c0 -15
-5 -44 -11 -65 -10 -36 -16 -41 -112 -87 -56 -27 -316 -140 -577 -251 -261
-111 -673 -286 -915 -389 -242 -103 -465 -195 -495 -204 -115 -35 -287 -30
-407 10 -27 9 -163 71 -303 139 -140 67 -349 166 -465 219 -115 54 -266 125
-335 159 l-125 62 -3 53 c-2 28 -1 52 2 52 2 0 42 -18 88 -39 608 -286 1102
-511 1111 -508 7 3 4 8 -8 12 -31 12 -489 223 -825 380 -431 203 -449 214
-434 291 10 52 105 114 174 114 16 0 30 7 34 15 3 8 15 15 26 15 17 0 19 -3
11 -19 -8 -14 -7 -22 3 -31 12 -9 15 -7 19 12 2 13 5 -2 6 -32 0 -31 6 -61 13
-68 8 -8 8 -12 1 -12 -6 0 -10 -17 -9 -39 0 -24 5 -37 12 -34 6 2 19 -7 28
-21 9 -15 24 -26 32 -26 9 0 28 -13 43 -29 20 -21 34 -28 49 -25 15 5 20 1 19
-13 -2 -13 6 -19 28 -21 16 -2 40 -12 54 -23 13 -11 32 -17 41 -14 9 3 29 -4
43 -16 15 -11 27 -18 27 -15 0 8 121 -54 138 -71 7 -7 16 -13 20 -14 42 -4 69
-14 142 -49 47 -23 123 -58 170 -77 250 -104 623 -40 670 115 6 20 15 46 20
57 5 11 11 191 14 400 3 209 6 381 6 383 0 2 23 14 52 27 50 23 52 23 77 6 14
-10 37 -22 51 -26z m1358 -147 c-4 -29 -97 -79 -223 -120 -92 -30 -110 -33
-230 -33 -133 0 -214 15 -238 44 -10 11 -3 12 43 5 30 -5 111 -8 180 -7 145 1
252 27 380 92 92 46 92 46 88 19z m-1630 -730 c-35 -45 -87 -73 -184 -97 -133
-34 -356 -23 -321 14 7 8 22 10 37 7 90 -22 282 14 415 78 78 37 83 37 53 -2z"/>
<path d="M4717 7633 c-114 -94 -205 -248 -238 -405 -19 -86 -20 -130 -19 -578
0 -267 4 -501 8 -520 9 -40 40 -60 106 -66 37 -4 35 -2 -24 18 l-65 23 -7 415
c-7 402 0 627 23 727 27 125 112 265 219 367 82 77 80 87 -3 19z"/>
<path d="M4096 6522 c86 -51 155 -152 205 -297 43 -127 49 -186 58 -545 l9
-325 -2 365 c-2 344 -4 370 -25 445 -54 194 -165 349 -271 379 -14 4 -2 -6 26
-22z"/>
<path d="M3947 6514 c-9 -9 19 -60 37 -67 10 -4 16 -32 21 -96 5 -60 12 -94
22 -102 21 -18 29 0 38 84 6 61 11 74 37 98 16 16 26 33 23 40 -20 32 -156 64
-178 43z"/>
<path d="M1520 2296 c8 -8 179 -93 380 -189 201 -96 491 -237 645 -312 154
-76 462 -226 685 -335 223 -109 632 -309 910 -445 765 -375 911 -445 928 -445
10 0 12 3 7 9 -6 6 -242 123 -525 262 -283 138 -634 310 -780 381 -146 72
-447 219 -670 328 -223 109 -539 264 -703 344 -164 80 -300 146 -302 146 -3 0
-75 35 -162 78 -181 89 -404 192 -418 192 -5 0 -3 -6 5 -14z"/>
<path d="M1856 2181 c8 -9 289 -151 297 -151 3 0 98 -45 213 -101 115 -56 236
-113 269 -129 113 -51 880 -422 1327 -641 246 -120 449 -219 452 -219 2 0 127
-59 276 -131 149 -72 275 -129 281 -127 11 4 -83 50 -711 354 -173 83 -493
238 -710 344 -217 106 -435 211 -485 235 -136 65 -316 151 -559 269 -120 58
-220 106 -221 106 -1 0 -78 37 -171 81 -234 113 -283 133 -258 110z"/>
</g>
</svg>
