<?xml version="1.0" standalone="no"?>
<!DOCTYPE svg PUBLIC "-//W3C//DTD SVG 20010904//EN"
 "http://www.w3.org/TR/2001/REC-SVG-20010904/DTD/svg10.dtd">
<svg version="1.0" xmlns="http://www.w3.org/2000/svg"
 width="1024.000000pt" height="1024.000000pt" viewBox="0 0 1024.000000 1024.000000"
 preserveAspectRatio="xMidYMid meet">
<metadata>
Created by potrace 1.16, written by Peter Selinger 2001-2019
</metadata>
<g transform="translate(0.000000,1024.000000) scale(0.100000,-0.100000)"
fill="#000000" stroke="none">
<path d="M4875 8693 c-27 -1 -102 -8 -165 -14 -63 -6 -126 -12 -140 -14 -52
-5 -117 -18 -175 -35 -191 -57 -240 -71 -335 -95 -193 -48 -621 -221 -775
-312 -17 -10 -53 -31 -80 -47 -28 -16 -106 -70 -175 -119 -69 -49 -143 -100
-165 -113 l-41 -23 -84 44 c-49 25 -154 64 -245 92 l-160 48 -185 0 c-254 -1
-399 -32 -444 -97 -33 -46 -12 -185 45 -305 53 -110 130 -213 246 -329 l115
-112 -90 -149 c-205 -342 -300 -526 -345 -668 -94 -295 -105 -339 -132 -495
-9 -52 -20 -114 -26 -137 -15 -70 -50 -301 -61 -408 -18 -187 16 -713 56 -860
8 -27 17 -72 21 -100 25 -185 127 -482 266 -774 82 -172 115 -223 290 -451
161 -209 449 -519 564 -606 39 -29 108 -82 155 -118 124 -96 272 -194 440
-291 36 -21 81 -47 100 -58 118 -69 364 -176 500 -217 41 -12 91 -29 111 -36
39 -14 203 -50 354 -79 140 -26 463 -45 775 -45 283 0 286 0 415 31 72 17 155
35 185 40 261 47 711 184 922 282 152 70 526 304 687 430 127 101 320 285 413
395 35 41 107 126 161 189 54 63 116 143 139 177 79 117 298 508 298 531 0 3
13 33 29 67 16 35 55 124 86 198 31 74 60 138 64 142 4 4 70 -8 146 -27 77
-19 156 -35 176 -35 24 0 81 -23 182 -76 198 -101 317 -141 317 -104 0 4 -19
20 -42 35 -24 16 -102 86 -175 158 l-131 129 19 41 c10 23 19 50 19 59 0 10
-45 51 -105 98 -88 68 -103 84 -95 99 33 62 150 246 212 333 153 214 170 238
303 443 22 34 64 92 142 199 40 55 49 74 40 83 -7 6 -56 37 -110 68 -79 46
-103 56 -127 51 -39 -7 -197 -76 -443 -192 -109 -52 -208 -96 -220 -99 -22 -6
-23 -3 -36 102 -20 173 -46 287 -127 568 -43 150 -104 322 -139 393 -19 39
-35 74 -35 77 0 4 -43 91 -95 196 -52 104 -95 191 -95 194 0 12 35 3 67 -16
l34 -21 94 98 c94 98 94 99 75 118 -19 20 -20 20 -107 -8 -219 -69 -209 -67
-238 -44 -14 11 -76 79 -139 151 -199 230 -580 590 -712 672 -18 11 -108 69
-200 129 -453 294 -726 412 -1124 485 -63 12 -158 31 -210 42 -194 42 -482 58
-735 42z m689 -188 c46 -19 219 -190 268 -265 l36 -55 -46 -16 c-69 -23 -169
-42 -186 -36 -9 4 -35 46 -60 94 -24 48 -76 132 -115 186 -39 54 -71 100 -71
102 0 12 141 3 174 -10z m158 -20 c49 -24 153 -106 276 -216 l50 -46 -74 -17
c-42 -10 -76 -16 -78 -15 -99 138 -159 209 -222 259 -41 34 -74 64 -74 67 0
12 70 -7 122 -32z m-1177 2 c-16 -12 -57 -50 -92 -84 -34 -35 -70 -63 -80 -63
-10 0 -29 -7 -42 -16 -21 -15 -24 -15 -39 1 -16 15 -15 18 18 46 46 40 177
119 195 119 8 0 15 5 15 10 0 6 12 10 28 9 l27 0 -30 -22z m753 -67 c34 -85
99 -317 90 -325 -2 -2 -36 -7 -75 -11 l-70 -7 -21 139 c-12 77 -24 167 -28
201 -3 35 -7 66 -7 70 -2 8 50 22 68 19 5 -2 24 -40 43 -86z m115 18 c70 -95
194 -304 185 -314 -7 -7 -169 -31 -172 -25 -1 3 -13 40 -25 81 -57 190 -75
248 -93 282 -24 48 -24 48 16 48 31 0 40 -7 89 -72z m-234 -121 c13 -94 26
-187 29 -204 l5 -33 -87 0 -86 0 0 28 c0 54 21 357 25 370 3 7 22 12 47 12
l43 0 24 -173z m-267 143 c-9 -39 -23 -126 -38 -240 -9 -69 -19 -128 -23 -131
-7 -7 -159 5 -167 14 -4 3 1 28 10 54 10 26 21 68 26 93 8 42 42 140 71 203
12 26 16 28 68 25 44 -2 55 -6 53 -18z m123 -12 c-5 -36 -25 -296 -25 -340 0
-27 -1 -28 -59 -28 -33 0 -62 3 -64 8 -5 7 -2 33 29 237 24 154 24 155 79 155
l46 0 -6 -32z m867 -16 c51 -26 128 -74 171 -105 73 -54 77 -60 60 -72 -36
-28 -60 -17 -195 96 -176 147 -180 156 -36 81z m421 -194 c25 -18 80 -58 122
-88 42 -30 70 -56 63 -58 -7 -2 -23 -8 -35 -14 -17 -9 -29 -6 -60 12 -45 26
-193 150 -193 161 0 7 21 15 46 18 7 0 32 -14 57 -31z m365 10 c23 -13 42 -29
42 -35 0 -7 5 -13 10 -13 18 0 334 -215 377 -256 42 -41 75 -115 55 -122 -8
-2 -7 -8 3 -19 22 -22 18 -36 -6 -22 -20 10 -21 9 -17 -15 3 -15 1 -26 -6 -26
-6 0 -62 45 -124 100 -62 55 -141 121 -175 147 -34 26 -71 56 -82 66 -11 11
-36 31 -55 45 -19 15 -45 36 -58 48 -22 21 -22 22 -5 52 17 29 17 31 -1 51
-25 27 -11 27 42 -1z m-399 -97 c51 -43 99 -88 107 -99 8 -12 20 -19 28 -16
17 7 42 -74 27 -89 -8 -8 -16 -5 -27 11 -8 12 -38 33 -67 47 -29 14 -96 63
-150 111 -80 70 -96 88 -86 100 6 8 26 14 44 14 26 0 50 -16 124 -79z m-118
-37 c136 -122 126 -108 96 -138 -27 -27 -65 -33 -95 -16 -9 5 -39 13 -67 18
-48 7 -53 11 -117 92 -37 46 -65 86 -62 90 13 13 73 29 115 29 43 1 50 -3 130
-75z m-241 -12 c51 -69 81 -114 78 -116 -2 -2 -25 -11 -53 -21 -28 -10 -66
-35 -87 -57 -34 -34 -38 -45 -38 -88 0 -28 -3 -50 -8 -50 -4 0 -25 33 -46 73
-55 103 -126 244 -126 250 0 2 27 10 60 16 33 7 77 18 97 26 66 24 84 19 123
-33z m-1440 -7 c0 -8 -4 -15 -10 -15 -5 0 -10 -7 -10 -16 0 -9 -8 -28 -19 -42
-39 -57 -181 -386 -181 -421 0 -11 -11 -12 -46 -7 -26 3 -57 6 -69 6 l-22 0
28 98 c16 53 49 143 75 198 42 93 49 103 87 120 23 11 53 29 68 42 28 23 78
52 92 52 4 0 7 -7 7 -15z m2274 -64 c78 -61 349 -291 358 -305 11 -15 10 -20
-5 -40 -13 -17 -15 -17 -58 4 -24 13 -55 24 -69 25 -14 2 -35 6 -46 10 -17 5
-29 -2 -56 -29 l-34 -35 -45 21 c-24 12 -65 41 -91 65 -26 24 -55 43 -64 43
-10 0 -37 -11 -61 -25 -49 -30 -65 -26 -105 27 -14 18 -35 44 -47 57 -26 30
-26 34 -2 26 25 -8 58 23 67 62 9 39 43 73 72 73 21 0 23 3 17 30 -6 27 -4 30
18 30 13 0 30 7 37 15 15 18 30 11 114 -54z m-1047 -134 c105 -208 105 -203
44 -275 l-28 -33 -89 3 -88 3 -7 30 c-13 51 -66 256 -88 335 -30 108 -31 106
42 117 121 20 107 32 214 -180z m-3392 168 c39 -8 111 -27 160 -41 171 -51
217 -74 825 -422 52 -30 176 -99 275 -154 99 -55 224 -127 278 -159 53 -33 99
-59 101 -59 2 0 61 -34 132 -75 71 -42 175 -101 232 -133 250 -138 412 -231
477 -274 39 -25 138 -84 220 -131 205 -115 443 -255 476 -278 15 -10 30 -19
33 -19 4 0 48 -26 99 -58 51 -32 151 -90 222 -129 149 -81 423 -240 445 -258
8 -7 51 -31 95 -55 44 -23 91 -50 105 -60 14 -10 122 -72 240 -140 553 -315
703 -404 993 -589 262 -167 479 -286 730 -401 220 -100 291 -151 541 -390 61
-58 131 -122 155 -143 57 -48 36 -47 -60 2 -91 46 -131 73 -224 147 -38 30
-100 73 -136 95 -68 41 -107 75 -96 85 3 3 14 1 25 -5 12 -6 29 -11 39 -11 21
1 -41 24 -87 34 -17 3 -63 27 -103 52 -40 26 -137 85 -217 132 -80 46 -173
102 -207 123 -127 80 -191 87 -142 17 36 -50 48 -70 65 -108 9 -19 20 -37 25
-40 12 -8 28 -89 19 -95 -5 -3 -6 -15 -3 -28 4 -19 3 -20 -7 -4 -13 20 -45 23
-37 3 4 -10 -4 -15 -24 -18 -20 -3 -29 0 -29 10 0 10 -7 12 -25 8 -14 -4 -31
-3 -38 1 -6 4 -18 8 -27 9 -30 3 -99 25 -105 33 -3 5 -14 7 -26 4 -15 -4 -22
0 -26 16 -6 22 -18 27 -27 12 -6 -10 -88 9 -97 23 -4 4 -18 9 -33 9 -14 0 -26
5 -26 11 0 7 -21 10 -61 9 -44 -1 -62 2 -66 13 -3 8 -12 14 -19 14 -8 0 -26 7
-39 16 -14 9 -25 13 -25 9 0 -4 -11 0 -25 9 -30 19 -70 12 -61 -10 5 -12 2
-12 -15 -3 -12 6 -18 17 -15 25 4 11 0 13 -19 8 -19 -5 -25 -2 -25 10 0 9 -7
16 -15 16 -8 0 -15 -4 -15 -10 0 -18 -22 -10 -42 16 -11 14 -26 23 -34 20 -7
-3 -18 2 -23 11 -8 15 -11 15 -26 3 -15 -12 -19 -12 -30 3 -7 10 -26 17 -46
17 -24 0 -45 10 -74 34 -21 19 -45 31 -53 28 -8 -3 -19 2 -24 11 -5 10 -15 17
-22 17 -19 0 -128 51 -144 67 -7 7 -18 13 -24 13 -5 0 -27 14 -48 30 -21 17
-45 30 -54 30 -9 0 -16 5 -16 10 0 6 -9 10 -19 10 -11 0 -23 5 -27 11 -3 6
-25 19 -48 28 -23 10 -47 25 -54 34 -8 9 -21 13 -29 10 -13 -5 -15 -2 -10 11
5 14 3 16 -12 11 -10 -3 -24 1 -31 10 -7 8 -19 15 -27 15 -7 0 -16 6 -19 14
-3 8 -13 12 -24 9 -14 -4 -18 -1 -14 14 3 11 -2 25 -11 33 -14 11 -17 10 -22
-8 -6 -24 -6 -24 -26 -16 -12 4 -13 12 -6 37 10 36 5 45 -15 28 -15 -13 -32 1
-22 18 3 5 -8 11 -25 15 -19 4 -33 13 -36 26 -3 11 -12 20 -20 20 -10 0 -12
-6 -8 -22 l7 -21 -38 23 c-22 13 -47 32 -57 42 -10 10 -24 18 -33 18 -8 0 -17
7 -20 15 -4 8 -12 15 -19 15 -6 0 -24 11 -39 25 -15 14 -34 25 -43 25 -9 0
-13 6 -9 15 4 11 -1 15 -19 15 -16 0 -25 6 -25 15 0 8 -7 15 -14 15 -17 0
-226 137 -226 148 0 4 -7 16 -15 26 -11 15 -17 17 -29 7 -11 -9 -16 -9 -21 0
-4 6 -2 15 5 19 9 6 4 13 -16 26 -16 10 -34 25 -40 33 -7 8 -21 12 -37 9 -19
-4 -27 -1 -27 8 0 8 -9 14 -19 14 -28 0 -36 30 -8 31 22 0 22 0 -2 10 -13 5
-33 7 -44 3 -13 -4 -17 -2 -13 5 4 7 -1 11 -13 11 -12 0 -21 2 -21 5 0 3 27
46 61 96 33 50 59 97 57 106 -3 18 -132 93 -159 93 -9 0 -20 -7 -23 -17 -5
-12 -72 -118 -102 -161 -2 -3 -106 58 -114 68 -3 3 -22 14 -42 23 -26 12 -38
25 -39 40 -1 17 -2 18 -6 5 -2 -10 -8 -18 -13 -18 -12 0 -31 26 -23 33 3 4 -1
7 -11 7 -9 0 -19 6 -22 14 -3 8 -24 18 -46 21 -22 4 -69 23 -105 41 -35 19
-69 32 -74 28 -5 -3 -15 -1 -22 4 -7 5 -29 9 -50 8 -32 -2 -37 1 -34 16 3 10
1 16 -3 13 -15 -9 -60 7 -60 21 0 16 -36 19 -45 4 -3 -5 3 -10 13 -10 11 0 22
-7 25 -15 5 -12 -5 -14 -60 -11 -36 2 -69 9 -73 15 -4 8 -17 10 -33 5 -18 -4
-27 -2 -27 6 0 7 -8 10 -20 7 -14 -4 -25 1 -33 14 -6 10 -22 19 -34 19 -13 0
-23 4 -23 9 0 13 28 22 35 11 9 -15 25 -12 25 5 0 8 -7 15 -15 15 -38 0 -27
33 90 250 17 33 21 48 13 58 -6 7 -49 33 -96 59 -80 43 -85 45 -96 27 -6 -10
-41 -75 -79 -143 -37 -69 -72 -130 -77 -135 -6 -6 -20 -2 -40 12 -16 12 -35
22 -41 22 -7 0 -20 6 -28 14 -25 21 -110 66 -126 66 -8 0 -19 9 -25 20 -7 14
-17 19 -29 15 -10 -3 -24 1 -31 10 -7 8 -21 15 -31 15 -11 0 -19 5 -19 10 0 6
-6 10 -14 10 -8 0 -23 11 -34 25 -11 14 -29 25 -41 25 -12 0 -24 7 -27 15 -4
8 -11 15 -17 15 -6 0 -18 7 -28 16 -9 8 -23 17 -31 18 -27 6 -53 20 -61 33 -4
7 -19 13 -31 13 -15 0 -30 10 -41 26 -14 21 -19 24 -27 13 -7 -11 -11 -11 -15
-1 -2 7 -11 19 -19 26 -8 8 -14 21 -14 30 0 19 -17 29 -32 19 -18 -11 -68 -13
-68 -3 0 5 9 12 20 15 27 9 25 26 -7 49 -23 17 -26 17 -20 3 9 -24 -2 -47 -23
-47 -25 0 -36 20 -19 32 10 7 4 8 -20 4 -27 -5 -32 -3 -27 10 5 12 1 14 -15 9
-18 -6 -20 -4 -14 17 6 19 5 21 -6 11 -17 -17 -29 -16 -29 2 0 8 -9 15 -20 15
-11 0 -25 9 -32 20 -7 11 -21 20 -32 20 -26 0 -56 28 -49 46 6 17 -18 19 -35
2 -9 -9 -12 -8 -12 5 0 9 -6 17 -13 17 -7 0 -23 9 -35 20 -18 17 -20 25 -11
42 9 16 8 24 -5 36 -8 9 -19 12 -23 8 -4 -4 -1 -11 7 -16 17 -11 4 -40 -20
-48 -9 -3 -11 2 -6 22 6 24 4 27 -14 21 -14 -5 -20 -2 -20 9 0 9 9 16 20 16
11 0 20 6 20 13 0 7 36 81 80 165 44 84 80 161 80 172 0 13 -25 35 -82 69 -45
28 -90 51 -99 51 -12 0 -40 -48 -95 -160 -43 -88 -84 -160 -91 -160 -7 0 -13
5 -13 11 0 6 -14 9 -32 7 -29 -2 -33 0 -31 20 2 14 -3 22 -13 22 -8 0 -14 -6
-13 -12 1 -7 1 -19 0 -27 -1 -19 -50 37 -57 67 -4 12 -13 22 -20 22 -8 0 -19
11 -24 25 -5 14 -13 25 -18 25 -4 0 -23 15 -42 33 -19 19 -45 39 -57 46 -13 6
-23 18 -23 26 0 8 -6 15 -14 15 -7 0 -16 9 -19 20 -3 11 -14 23 -24 27 -36 14
-85 81 -88 120 -2 21 -9 39 -14 41 -17 6 -13 27 8 46 15 14 130 45 169 46 7 0
17 -11 21 -24 16 -41 195 -165 269 -187 49 -14 62 -6 62 42 0 27 -52 78 -109
109 -29 15 -71 62 -64 72 7 13 124 9 198 -7z m2312 1 c5 -4 -19 -131 -26 -141
-5 -5 -11 -30 -14 -55 -4 -25 -13 -85 -21 -135 -9 -49 -15 -108 -16 -129 l0
-39 -92 7 c-50 3 -108 6 -130 6 -26 0 -38 4 -38 14 0 28 102 279 146 359 9 15
21 38 27 50 40 74 45 77 106 71 31 -4 57 -8 58 -8z m209 -19 c1 -1 -4 -51 -12
-112 -8 -60 -20 -171 -27 -245 l-13 -135 -96 0 c-54 0 -102 5 -107 10 -12 12
36 325 71 459 l10 39 86 -7 c47 -3 87 -7 88 -9z m567 -9 c7 -33 95 -367 107
-408 5 -19 10 -38 10 -41 0 -7 -119 -21 -190 -23 l-45 -1 -12 105 c-6 58 -17
150 -24 205 -7 55 -13 116 -13 135 -1 35 -1 35 49 41 102 12 112 11 118 -13z
m-403 -238 l0 -250 -85 0 c-71 0 -87 3 -92 17 -8 21 28 428 42 471 3 8 26 12
70 12 l65 0 0 -250z m204 228 c3 -13 8 -50 11 -83 3 -33 10 -94 15 -135 13
-100 24 -250 19 -250 -2 -1 -52 -3 -111 -7 l-108 -5 0 251 0 251 85 0 c80 0
85 -1 89 -22z m-1199 -44 c-26 -64 -46 -195 -35 -233 8 -28 6 -43 -8 -73 -9
-20 -24 -38 -33 -38 -37 0 -159 33 -159 44 0 6 46 74 101 151 55 77 107 152
117 167 23 37 35 24 17 -18z m-770 27 c-3 -5 -1 -12 5 -16 13 -8 13 -45 0 -45
-5 0 -44 -33 -87 -74 -53 -51 -80 -71 -86 -63 -6 9 -10 9 -14 0 -2 -7 -9 -13
-14 -13 -6 0 -8 4 -5 9 3 5 -3 11 -14 14 -25 6 -26 25 -2 34 9 4 26 15 36 25
11 10 26 18 33 18 7 0 13 5 13 10 0 6 7 10 15 10 8 0 15 3 15 8 0 4 18 16 41
26 22 11 43 24 46 29 12 20 -8 16 -56 -13 -56 -33 -61 -34 -61 -21 0 5 8 11
18 15 9 3 37 17 62 31 48 26 65 31 55 16z m205 -56 c0 -8 3 -15 8 -15 4 0 13
-4 20 -9 9 -5 -10 -30 -67 -88 -73 -72 -82 -79 -95 -64 -17 18 -11 96 8 120
15 20 97 71 113 71 7 0 13 -7 13 -15z m243 -27 c30 -15 34 -26 12 -35 -9 -3
-21 2 -29 12 -16 22 -43 10 -104 -49 -33 -31 -45 -38 -51 -27 -6 9 -11 10 -15
2 -4 -6 -2 -11 3 -11 23 0 8 -17 -47 -52 -40 -26 -64 -36 -80 -32 l-22 6 26
32 c14 17 50 57 80 88 53 57 54 57 101 52 35 -4 54 -1 68 10 25 19 25 19 58 4z
m3549 -63 c20 -19 41 -35 47 -35 6 0 11 -6 11 -12 0 -7 14 -23 31 -34 29 -21
169 -155 233 -224 28 -30 30 -38 31 -121 1 -49 0 -89 -2 -89 -3 0 -24 16 -47
35 -24 19 -48 35 -54 35 -6 0 -76 66 -156 146 l-146 145 12 42 c7 23 19 48 28
54 13 11 12 16 -12 34 -25 19 -39 59 -20 59 4 0 24 -16 44 -35z m-1249 -123
c-8 -26 -17 -54 -20 -63 -3 -9 0 -20 6 -23 15 -10 14 -99 -1 -114 -19 -19 -38
-14 -48 13 -5 14 -19 45 -30 69 -27 61 -25 96 10 181 4 11 11 29 14 39 6 18
10 16 45 -18 l39 -38 -15 -46z m480 21 c23 -38 -57 -51 -138 -23 -32 11 -63
20 -69 19 -29 -3 -46 2 -46 16 0 9 -7 18 -15 21 -8 4 -15 12 -15 20 0 16 55
20 65 4 7 -11 88 -50 104 -50 24 0 42 33 35 64 l-6 31 38 -44 c22 -24 43 -50
47 -58z m236 -37 c51 -45 94 -69 143 -80 33 -7 78 -69 78 -107 0 -15 7 -29 15
-33 8 -3 15 -2 15 3 0 23 -33 98 -53 119 -25 26 -17 47 26 72 23 13 28 13 44
-1 19 -16 66 -33 121 -44 17 -4 32 -12 32 -20 0 -7 10 -20 23 -28 16 -11 18
-16 7 -16 -9 -1 -26 6 -38 15 -20 14 -23 14 -28 0 -3 -9 -16 -16 -29 -16 -34
0 -73 -37 -81 -75 -8 -43 -25 -44 -61 -5 -36 41 -84 70 -116 70 -33 0 -45 -18
-15 -22 20 -3 23 -8 20 -38 -5 -43 -2 -41 -49 -47 -35 -5 -42 -2 -68 28 l-28
34 43 12 c61 18 63 26 5 21 l-49 -3 -48 70 c-26 39 -47 75 -48 81 0 9 66 53
82 54 4 0 30 -20 57 -44z m-4191 10 c26 -13 58 -33 72 -44 l25 -20 -25 -49
c-14 -26 -47 -90 -74 -140 -27 -52 -54 -93 -62 -93 -8 0 -39 16 -69 35 -40 25
-55 41 -55 57 0 27 120 278 132 278 5 0 30 -11 56 -24z m3987 -63 c14 -21 25
-42 25 -47 0 -5 10 -20 21 -32 l22 -23 -29 -32 c-16 -17 -37 -40 -46 -50 -10
-11 -18 -23 -18 -29 0 -30 -47 15 -68 64 -15 33 -4 53 31 58 34 5 33 34 -2 49
-16 7 -32 20 -35 29 -3 8 -9 20 -12 27 -3 8 8 13 33 16 21 2 41 4 45 5 4 1 19
-15 33 -35z m810 -116 c74 -74 135 -140 135 -148 0 -8 -12 -26 -27 -40 -16
-15 -36 -38 -46 -53 -10 -15 -27 -26 -40 -26 -31 1 -102 34 -148 71 -31 24
-42 28 -58 20 -30 -17 -35 -14 -79 38 -31 37 -37 48 -22 44 24 -6 26 9 4 43
-13 18 -14 28 -6 36 16 16 125 29 137 17 11 -11 65 -12 65 -1 0 4 -18 25 -40
46 -32 30 -38 41 -29 52 6 7 8 18 4 24 -3 5 -1 10 5 10 6 0 71 -60 145 -133z
m-3440 62 c33 -7 61 -13 63 -14 1 -1 -7 -27 -19 -56 -11 -30 -31 -85 -44 -124
-13 -38 -27 -71 -32 -72 -5 -2 -17 5 -26 15 -13 15 -15 25 -6 55 9 32 6 44
-21 99 -41 86 -40 125 5 114 11 -2 47 -10 80 -17z m170 -41 c52 -14 51 -7 30
-158 -8 -58 -15 -124 -15 -147 0 -24 -2 -43 -4 -43 -16 0 -176 105 -176 115 0
7 15 53 33 102 19 48 37 100 41 116 7 31 22 33 91 15z m203 -24 c10 -3 10 -8
-2 -26 -7 -13 -24 -63 -36 -113 -12 -49 -25 -97 -30 -106 -4 -9 -11 -41 -15
-72 -4 -32 -11 -57 -17 -57 -5 0 -20 7 -33 16 -30 20 -31 37 -10 212 21 171
16 160 78 155 28 -3 58 -6 65 -9z m1489 -15 c-3 -12 0 -33 6 -48 15 -33 74
-99 96 -106 11 -3 17 -19 19 -55 l3 -49 -46 -21 c-25 -12 -55 -30 -66 -41 -12
-12 -24 -17 -28 -12 -81 92 -111 136 -100 149 16 20 5 100 -18 133 -11 14 -23
36 -27 49 -7 22 -6 22 79 22 84 0 87 -1 82 -21z m-1238 -5 l44 -6 -7 -62 c-17
-173 -62 -449 -73 -453 -13 -5 -152 61 -227 109 -54 35 -51 21 -28 163 10 56
44 174 68 230 l15 37 82 -6 c45 -3 102 -8 126 -12z m1049 -1 c2 -8 -5 -13 -18
-13 -32 0 -56 -16 -79 -54 -25 -40 -27 -73 -5 -104 14 -20 14 -22 0 -22 -9 0
-30 -13 -48 -29 -31 -28 -33 -33 -32 -94 1 -97 4 -101 69 -94 50 5 55 4 55
-14 0 -11 7 -22 15 -25 21 -8 19 -21 -5 -27 -15 -4 -20 -14 -20 -41 0 -32 5
-39 50 -68 46 -30 49 -36 44 -63 -3 -16 -10 -34 -15 -39 -9 -10 -178 18 -190
32 -4 4 -10 58 -13 121 -7 113 -21 231 -50 426 -8 54 -14 100 -13 101 1 2 36
7 77 12 98 13 172 10 178 -5z m858 -35 c16 -24 59 -73 97 -109 63 -62 83 -99
55 -99 -7 0 -22 -3 -34 -6 -23 -6 -104 60 -127 104 -8 15 -23 44 -35 65 -22
38 -28 68 -15 80 15 15 32 5 59 -35z m194 27 c7 -8 20 -15 29 -15 33 0 131
-131 180 -242 12 -26 25 -50 31 -53 14 -9 12 -32 -3 -38 -38 -14 -103 26 -151
96 -15 21 -27 27 -56 27 -32 0 -39 5 -57 38 -12 20 -33 48 -47 61 -30 28 -32
43 -11 61 8 7 15 20 15 30 0 10 10 25 23 33 28 20 32 20 47 2z m-1893 -5 l96
0 -7 -222 c-7 -242 -17 -471 -21 -476 -1 -2 -42 20 -91 49 -49 28 -105 60
-124 71 -19 11 -39 24 -44 28 -8 8 13 234 35 365 5 33 12 85 15 115 7 73 11
83 30 76 9 -3 59 -6 111 -6z m557 -22 c3 -18 12 -76 20 -128 23 -144 45 -376
44 -460 0 -41 0 -114 1 -162 1 -49 0 -88 -2 -88 -2 0 -39 23 -81 51 -43 28
-102 62 -132 75 l-54 24 0 87 c0 49 -3 208 -7 355 l-6 267 39 3 c21 2 69 5
106 6 l67 2 5 -32z m-250 10 c3 -7 7 -162 11 -345 l6 -332 -65 6 c-55 5 -70 3
-101 -16 -20 -11 -38 -21 -41 -21 -6 0 -5 219 3 488 l6 232 89 0 c62 0 90 -4
92 -12z m2745 -148 c10 -19 21 -55 24 -80 3 -25 9 -53 12 -61 4 -11 -6 -20
-36 -32 -45 -18 -69 -10 -69 22 0 9 -16 29 -35 44 -27 21 -34 34 -30 48 4 11
2 26 -4 33 -8 9 -9 125 -2 175 2 12 125 -119 140 -149z m-139 -110 c5 0 22
-20 39 -45 26 -39 28 -46 15 -59 -20 -21 -41 -10 -65 33 l-20 36 5 -30 5 -31
-70 3 c-66 2 -99 13 -99 34 0 5 -11 27 -25 49 l-25 40 22 32 c52 73 54 73 135
2 41 -35 78 -64 83 -64z m-532 83 c32 -45 62 -103 62 -118 0 -10 -10 -15 -28
-15 -15 0 -45 -12 -66 -26 l-39 -27 -69 22 c-74 24 -80 33 -53 85 8 15 15 36
15 45 0 16 46 46 85 54 52 12 74 7 93 -20z m-753 -63 c11 -32 10 -38 -16 -71
l-29 -37 -61 13 c-35 7 -70 22 -82 34 l-21 20 29 11 c16 6 47 10 69 8 40 -3
41 -2 41 28 0 28 3 31 29 30 24 -1 32 -8 41 -36z m364 -49 l48 -49 -46 -30
c-97 -62 -104 -63 -121 -21 -7 17 -18 36 -24 42 -27 28 -58 79 -51 85 3 4 32
10 63 13 31 3 63 7 70 8 7 0 35 -21 61 -48z m-4434 -83 c-5 -17 -4 -19 3 -9
10 15 20 12 63 -17 15 -9 41 -26 58 -37 17 -10 31 -22 31 -25 -1 -3 -16 -34
-34 -70 -25 -49 -39 -66 -57 -68 -13 -2 -35 -14 -49 -25 -14 -12 -43 -30 -65
-40 -37 -17 -77 -62 -114 -127 -42 -76 -80 -161 -91 -206 -11 -44 -11 -56 5
-97 17 -44 43 -66 65 -52 19 12 10 -9 -17 -37 -29 -31 -43 -35 -43 -14 0 7 -7
19 -16 27 -9 7 -13 21 -10 33 3 12 -2 24 -12 32 -38 28 -6 170 79 350 23 49
50 107 60 129 10 22 23 47 28 55 5 8 15 35 22 60 19 67 69 160 86 160 10 0 13
-7 8 -22z m4604 -4 c11 -14 18 -31 15 -37 -2 -7 13 -24 35 -37 29 -18 39 -30
35 -43 -6 -20 19 -63 52 -90 12 -9 33 -37 47 -61 l24 -44 -37 -12 c-34 -11
-40 -10 -64 11 -33 29 -33 46 2 61 15 7 29 13 30 14 6 4 -38 44 -48 44 -5 0
-10 -7 -10 -15 0 -20 -52 -33 -59 -14 -5 16 -52 63 -101 100 l-35 26 33 32
c32 32 40 51 23 51 -5 0 -7 9 -4 20 7 28 38 25 62 -6z m732 -21 c21 -16 39
-30 39 -33 0 -9 -196 -98 -232 -105 -33 -6 -36 -5 -41 23 -3 16 -17 40 -31 53
-14 13 -26 27 -26 32 0 4 23 7 50 7 43 0 98 -14 174 -45 14 -6 17 -4 14 11 -2
10 -8 20 -13 20 -33 5 -55 19 -55 34 0 38 68 40 121 3z m-533 -10 c6 -16 14
-38 17 -51 3 -12 23 -34 43 -49 40 -29 101 -93 102 -105 0 -5 -6 -8 -12 -8 -7
0 -26 -7 -42 -15 l-29 -15 -69 72 c-68 73 -68 73 -63 121 3 26 8 54 11 62 10
24 31 17 42 -12z m892 2 c0 -7 -79 -59 -145 -95 -56 -31 -419 -240 -585 -337
-133 -78 -817 -415 -936 -461 -27 -11 -101 -43 -163 -71 -62 -28 -116 -51
-120 -51 -13 0 -411 224 -441 247 -9 8 24 21 84 33 33 7 126 28 206 47 80 18
195 45 255 59 61 14 153 36 205 50 52 14 136 36 185 49 219 58 578 185 810
287 196 86 261 114 390 165 164 65 255 93 255 78z m-1792 -39 c2 -18 -4 -32
-19 -45 -19 -15 -20 -20 -9 -40 6 -13 10 -32 7 -42 -8 -28 6 -23 33 13 l24 32
18 -39 c10 -22 25 -65 34 -95 9 -30 23 -63 32 -73 8 -9 13 -19 10 -22 -2 -3
-31 20 -64 51 -32 30 -74 67 -91 81 -36 27 -42 43 -18 43 17 0 19 18 5 40 -7
12 -12 12 -29 -4 -21 -19 -21 -19 -21 2 0 13 6 22 15 22 8 0 15 5 15 10 0 6
-7 10 -15 10 -18 0 -19 5 -4 33 15 27 51 57 64 53 6 -1 11 -15 13 -30z m1836
18 c27 -10 18 -28 -32 -59 -26 -16 -80 -54 -121 -84 -41 -30 -137 -92 -214
-138 -77 -46 -155 -96 -173 -109 -29 -23 -36 -24 -71 -15 -66 19 -71 27 -27
50 21 12 46 26 54 31 27 17 183 106 255 145 39 21 124 71 190 111 66 40 121
73 122 73 1 1 8 -2 17 -5z m-2217 -20 c3 -8 1 -26 -5 -39 -9 -20 -20 -24 -79
-30 -86 -8 -105 -14 -78 -25 11 -4 52 -4 90 1 74 8 79 6 89 -26 5 -18 -1 -23
-39 -33 -25 -7 -54 -12 -65 -12 -21 0 -28 -26 -9 -32 9 -3 9 -9 1 -24 -8 -15
-8 -24 0 -32 19 -19 0 -31 -32 -19 -35 13 -43 29 -30 63 18 47 12 76 -25 110
l-35 31 42 7 c47 8 103 38 112 61 7 20 55 19 63 -1z m-3281 -55 c33 -17 66
-36 74 -44 8 -7 50 -32 94 -55 73 -40 77 -44 60 -58 -25 -19 -116 -62 -132
-62 -23 0 -71 -64 -119 -157 -25 -51 -49 -91 -51 -88 -3 3 11 38 32 77 36 72
41 92 38 155 -2 39 -45 91 -89 109 -18 8 -33 17 -33 21 0 7 63 133 66 133 1 0
28 -14 60 -31z m4094 -41 c0 -20 32 -48 57 -48 12 0 32 9 44 21 26 26 57 20
102 -21 44 -41 26 -53 -71 -45 -68 6 -75 4 -104 -20 -17 -14 -36 -24 -42 -22
-22 7 -18 147 4 147 6 0 10 -5 10 -12z m1288 -84 c14 -15 14 -17 -1 -26 -9 -5
-17 -15 -17 -22 0 -8 -7 -19 -15 -26 -8 -7 -15 -20 -15 -29 0 -36 -41 -59
-110 -62 -36 -1 -73 1 -82 5 -13 6 -18 4 -18 -7 0 -9 9 -19 20 -22 11 -3 20
-14 20 -23 0 -10 7 -27 15 -39 9 -13 11 -24 6 -28 -10 -6 18 -65 32 -65 4 0 7
-4 7 -9 0 -9 -61 -51 -73 -51 -10 0 -43 70 -58 120 -7 25 -16 50 -19 55 -4 6
-10 21 -13 35 -7 29 -8 29 151 125 62 37 115 72 118 76 8 14 34 10 52 -7z
m-940 -75 c17 -8 32 -17 32 -21 0 -14 -187 -71 -202 -62 -5 3 -8 14 -8 24 0
38 -54 45 -93 12 -11 -10 -17 -27 -15 -46 3 -27 0 -31 -24 -34 -17 -2 -34 4
-48 18 -12 12 -20 23 -18 24 2 1 19 12 39 24 19 12 44 31 54 42 18 20 28 21
118 18 87 -2 100 -1 109 16 6 10 13 14 17 9 3 -5 21 -16 39 -24z m-4534 0 c25
-19 26 -25 20 -68 -9 -58 -21 -91 -34 -91 -5 0 -10 9 -10 19 0 10 -7 22 -16
25 -13 5 -14 3 -6 -7 6 -7 14 -31 18 -53 5 -37 3 -42 -29 -67 -40 -30 -52 -34
-44 -12 10 25 -9 25 -33 0 -26 -28 -50 -33 -50 -10 0 16 29 92 66 173 13 29
24 57 24 62 0 22 26 50 46 50 12 0 33 -9 48 -21z m428 -29 c-14 -11 -20 -24
-16 -34 5 -12 2 -15 -10 -10 -9 3 -16 2 -16 -4 0 -6 6 -12 12 -14 10 -4 7 -26
-10 -94 -13 -49 -25 -100 -28 -114 -3 -14 -9 -34 -14 -45 -10 -24 -35 -128
-50 -208 -11 -55 -12 -57 -38 -50 -66 16 -127 43 -127 55 0 7 -7 16 -16 20
-12 5 -17 26 -22 81 -3 41 -11 83 -18 94 -10 17 -8 30 12 79 13 32 30 70 39
84 9 14 22 40 29 57 11 26 29 41 95 73 44 23 95 49 111 59 27 17 33 17 59 3
l30 -15 -22 -17z m5103 7 c17 -23 42 -63 56 -89 14 -26 31 -54 38 -62 6 -8 16
-28 21 -46 8 -28 7 -33 -10 -37 -28 -7 -25 -23 3 -23 16 0 28 -9 35 -25 17
-37 15 -49 -13 -75 l-25 -24 -32 30 c-41 37 -69 72 -86 104 -15 27 -20 159 -7
181 5 7 4 14 -3 17 -7 2 -12 11 -12 21 0 9 -5 22 -10 27 -11 11 -4 44 9 44 3
-1 20 -20 36 -43z m-5694 -82 c-25 -63 -52 -115 -58 -115 -7 0 -13 5 -13 11 0
5 -4 7 -10 4 -16 -10 -11 -35 7 -35 9 0 -4 -13 -30 -30 -27 -17 -47 -37 -47
-47 0 -22 -17 -50 -24 -42 -16 16 38 193 69 227 2 2 15 -4 29 -13 31 -20 35
-6 6 20 -19 17 -19 19 -3 44 22 35 31 42 78 68 22 12 41 22 41 22 1 1 -19 -51
-45 -114z m3289 74 c68 -10 180 -50 180 -64 0 -3 -15 -19 -34 -36 -19 -16 -43
-50 -53 -74 -21 -53 -31 -59 -60 -35 -21 17 -22 19 -7 100 15 87 12 115 -7 62
-12 -34 -94 -91 -109 -76 -5 5 -10 34 -12 64 -2 45 -6 55 -20 54 -10 -1 -18 5
-18 13 0 12 8 14 33 9 17 -3 66 -11 107 -17z m-463 -21 c39 -14 69 -37 125
-96 76 -79 144 -169 135 -178 -6 -6 -61 23 -242 129 l-140 83 -6 42 c-3 23 -3
45 0 47 7 8 70 -5 128 -27z m-2036 -64 c178 -107 169 -99 159 -132 -20 -65
-29 -102 -45 -177 -9 -44 -23 -106 -31 -137 -8 -32 -14 -73 -14 -92 0 -19 -4
-37 -8 -40 -4 -2 -37 2 -72 10 -36 7 -94 18 -129 24 -141 24 -161 30 -161 53
0 34 21 135 50 242 15 55 30 114 34 130 6 29 68 205 72 205 1 0 67 -39 145
-86z m1021 44 c29 -18 54 -33 56 -34 3 -2 -133 -248 -144 -262 -3 -4 -56 29
-64 39 -3 3 -20 14 -37 23 -18 9 -33 22 -33 30 0 14 96 214 113 234 14 17 44
9 109 -30z m3822 0 c3 -18 8 -53 10 -76 4 -42 4 -44 -19 -38 -26 7 -50 -16
-50 -47 0 -14 -9 -23 -30 -28 -25 -7 -34 -4 -58 19 -20 19 -26 33 -22 49 3 12
1 25 -5 28 -5 3 -10 15 -10 26 0 16 7 19 46 19 41 0 50 5 83 39 20 21 39 39
42 40 4 0 10 -14 13 -31z m-1989 -8 c-15 -52 -16 -76 -5 -116 8 -26 25 -55 42
-69 l28 -24 -37 -9 c-21 -5 -72 -15 -113 -21 -66 -11 -98 -18 -175 -37 -12 -3
-7 2 11 14 18 11 44 36 59 56 15 20 35 36 45 36 33 0 50 12 50 35 0 30 -20 45
-51 39 -22 -5 -22 -4 9 23 23 20 32 36 32 58 0 30 0 31 55 31 45 0 54 -3 50
-16z m1655 -56 c0 -9 7 -30 15 -47 28 -63 55 -138 55 -157 0 -26 -31 -33 -105
-25 -53 5 -67 3 -99 -16 l-37 -21 -25 27 c-30 32 -54 22 -34 -14 12 -23 6 -41
-14 -41 -6 0 -31 20 -55 44 l-42 43 38 30 c45 35 229 163 258 180 29 16 45 15
45 -3z m-187 -13 c15 -6 27 -15 27 -19 0 -5 -49 -42 -110 -82 l-109 -72 -34
21 c-50 31 -56 26 -11 -10 62 -49 65 -68 13 -95 -26 -13 -32 -13 -61 2 -18 9
-48 28 -66 42 -18 14 -35 22 -39 18 -3 -3 -4 -7 -2 -9 2 -2 28 -20 57 -41 29
-21 50 -42 45 -46 -4 -4 -28 -21 -52 -38 -42 -31 -44 -31 -75 -15 -17 8 -53
31 -79 50 -56 42 -75 38 -21 -4 20 -15 50 -40 67 -54 l30 -25 -71 -37 c-40
-21 -75 -43 -79 -50 -24 -37 -41 -40 -80 -10 -21 15 -40 30 -43 33 -3 3 -21
17 -40 30 -34 23 -34 23 -16 2 11 -13 41 -39 68 -59 26 -21 48 -40 48 -44 0
-7 -127 -89 -138 -89 -3 0 -36 28 -71 63 -66 64 -66 55 1 -20 21 -24 38 -46
38 -51 0 -5 -23 -23 -51 -41 l-51 -31 -38 32 c-21 18 -63 55 -94 82 -31 27
-59 46 -62 44 -3 -3 35 -41 85 -84 49 -44 89 -81 90 -84 0 -3 -24 -22 -54 -42
l-55 -37 -103 63 c-57 35 -122 73 -145 85 -23 12 -42 25 -42 30 0 4 26 19 58
33 31 14 134 59 227 101 94 41 227 102 297 135 70 33 138 64 150 68 13 4 25
10 28 14 3 4 77 44 165 88 88 44 196 101 240 126 82 47 97 50 158 27z m-3881
-220 c6 -5 -19 -161 -27 -169 -2 -2 -20 1 -41 7 -22 5 -62 12 -91 16 -51 7
-53 6 -102 -40 -27 -25 -51 -42 -54 -38 -9 14 53 326 69 355 4 6 225 -112 246
-131z m4797 63 c12 -19 21 -40 21 -46 0 -5 6 -24 14 -41 25 -56 53 -141 60
-182 4 -22 17 -71 28 -110 21 -71 34 -235 19 -235 -10 0 -61 101 -61 121 0 8
-4 19 -9 25 -5 5 -18 41 -30 79 -12 39 -26 79 -30 90 -5 11 -17 49 -26 85 -30
114 -46 165 -56 182 -12 24 -12 24 13 48 29 27 33 26 57 -16z m-373 -76 c20
-18 46 -55 59 -82 53 -120 53 -125 1 -129 -25 -2 -30 4 -56 68 -16 39 -40 92
-54 118 -31 58 -31 57 -6 57 10 0 36 -14 56 -32z m-72 -44 c34 -65 60 -126 71
-161 5 -19 1 -23 -33 -32 -104 -28 -95 -32 -130 56 -71 184 -70 167 -9 178 20
4 40 11 43 17 11 17 26 2 58 -58z m-4081 -99 c76 -43 139 -81 141 -84 8 -14
-17 -141 -28 -141 -7 0 -27 11 -45 25 -32 23 -197 107 -289 146 -35 15 -42 22
-38 41 3 13 10 51 16 85 l12 61 47 -27 c25 -15 108 -63 184 -106z m3907 86 c0
-11 4 -22 9 -25 13 -8 73 -177 66 -185 -8 -7 -158 -41 -163 -37 -1 2 2 16 8
31 12 31 -8 133 -36 187 -19 37 -19 36 29 41 88 8 87 8 87 -12z m-501 -45 c14
-14 29 -51 37 -88 29 -126 52 -265 59 -343 3 -44 11 -83 17 -86 6 -4 7 -12 4
-18 -15 -23 -34 -10 -45 32 -15 51 -23 61 -82 109 -41 33 -119 144 -119 170 0
5 -22 31 -50 58 -27 27 -50 55 -50 64 0 16 41 45 135 98 61 34 66 34 94 4z
m146 -148 c33 -41 50 -46 84 -21 19 13 28 14 42 5 10 -7 32 -12 49 -12 30 0
31 -1 24 -37 -4 -21 -11 -47 -17 -58 -10 -21 -81 -108 -130 -160 -15 -16 -35
-42 -43 -57 -8 -16 -18 -28 -22 -28 -4 0 -16 69 -26 153 -10 83 -27 184 -37
222 -10 39 -19 74 -19 78 0 13 61 -42 95 -85z m-3875 47 c50 -18 78 -40 233
-194 137 -135 136 -128 70 -258 -37 -73 -63 -102 -63 -70 0 9 -11 14 -30 14
-16 0 -38 7 -48 16 -11 10 -26 14 -40 10 -23 -6 -31 12 -9 20 6 3 0 6 -15 6
-16 1 -28 6 -28 12 0 7 -11 9 -31 5 -27 -5 -30 -4 -24 14 4 13 2 21 -7 22 -7
0 -17 2 -23 2 -5 1 -16 5 -22 9 -7 5 -17 5 -23 2 -5 -3 -10 0 -10 8 0 10 -7
13 -20 10 -22 -6 -26 7 -9 24 8 8 8 13 0 18 -6 3 -14 -1 -17 -9 -8 -22 -24
-20 -24 2 0 10 -9 28 -21 40 l-20 23 35 102 c19 56 38 121 42 145 6 38 9 42
34 42 15 0 47 -7 70 -15z m4732 -17 c37 -49 96 -163 109 -211 6 -23 19 -60 29
-82 17 -40 42 -139 38 -153 -1 -4 3 -16 9 -27 6 -11 21 -78 33 -150 12 -71 24
-133 26 -137 3 -4 -7 -15 -20 -24 -25 -16 -27 -15 -80 30 -55 48 -56 49 -75
161 -12 66 -36 157 -60 225 -32 92 -116 354 -116 365 0 8 53 32 76 34 4 1 18
-14 31 -31z m-6293 -19 c7 -11 21 -19 31 -19 10 0 23 -7 30 -15 7 -8 9 -15 5
-15 -4 0 0 -11 8 -24 15 -22 15 -25 0 -31 -11 -4 -23 1 -33 13 -25 31 -90 66
-101 55 -7 -7 2 -18 28 -34 21 -13 40 -27 41 -31 2 -4 12 -8 23 -8 20 0 26
-15 9 -25 -18 -11 -11 -45 9 -45 11 0 26 -3 35 -6 12 -4 14 0 10 20 -3 19 0
26 11 26 8 0 15 -6 15 -14 0 -19 29 -48 40 -41 16 10 22 -36 7 -53 -8 -9 -12
-23 -10 -29 3 -7 -2 -13 -11 -13 -19 0 -21 -11 -4 -28 9 -9 8 -12 -5 -12 -12
0 -17 -8 -17 -26 0 -19 4 -25 15 -20 13 5 14 -3 9 -52 -4 -31 -10 -59 -14 -62
-4 -3 -7 -12 -8 -20 -2 -59 -12 -103 -26 -124 -9 -14 -16 -32 -16 -40 0 -7 -7
-16 -15 -20 -8 -3 -12 -12 -9 -21 10 -24 -10 -17 -21 8 -6 12 -17 20 -25 18
-8 -2 -24 -3 -35 -3 -14 1 -24 -8 -32 -28 -17 -46 -37 -38 -29 11 7 44 -5 69
-31 69 -11 0 -14 -8 -11 -30 3 -23 0 -31 -15 -36 -27 -8 -32 2 -17 32 13 23
12 30 -3 56 -20 35 -24 89 -5 70 30 -30 39 7 12 47 -11 15 -15 34 -11 59 19
125 39 227 51 264 7 24 19 72 25 108 19 101 19 101 49 94 15 -3 33 -15 41 -25z
m2586 22 c3 -5 10 -139 15 -298 6 -158 17 -394 25 -523 8 -129 12 -236 11
-238 -2 -2 -26 11 -54 28 l-50 31 -6 82 c-3 45 -10 159 -16 252 -6 94 -17 260
-25 370 -8 110 -15 224 -15 253 l0 52 54 0 c30 0 57 -4 61 -9z m2547 -184 c38
-64 65 -95 132 -156 14 -13 26 -29 26 -37 0 -8 4 -14 9 -14 5 0 11 -12 14 -28
13 -62 73 -102 105 -70 9 9 12 9 12 0 0 -7 -4 -12 -8 -12 -5 0 -18 -9 -30 -21
l-23 -20 -37 32 c-43 37 -72 77 -72 99 0 9 -23 47 -50 85 -28 38 -64 94 -81
125 -16 31 -52 83 -79 116 -27 32 -50 63 -50 67 0 17 93 -100 132 -166z m1036
121 c59 -143 182 -559 182 -616 0 -2 -17 10 -37 27 -53 44 -56 46 -75 54 -11
4 -18 17 -18 34 0 60 -39 227 -91 386 -16 49 -29 97 -29 107 0 11 -5 22 -12
26 -8 5 -2 12 17 20 17 7 33 13 36 14 3 0 15 -24 27 -52z m-5813 30 c16 -7 25
-19 25 -35 0 -13 6 -26 14 -29 8 -3 13 -11 10 -19 -6 -16 27 -30 36 -15 4 7
14 1 25 -16 14 -22 16 -39 11 -92 -8 -77 -20 -104 -42 -95 -13 5 -15 2 -9 -18
4 -13 11 -26 16 -29 4 -3 5 -32 2 -63 -5 -45 -9 -57 -20 -53 -8 4 -26 6 -39 6
-16 0 -24 6 -24 18 0 10 -6 27 -14 37 -12 16 -11 22 5 44 10 15 21 52 25 84 6
54 5 57 -15 57 -25 0 -25 -5 -4 99 l18 83 -30 24 c-33 26 -30 30 10 12z m2347
-15 c158 -69 517 -287 666 -405 114 -91 83 -76 -195 94 -166 101 -449 246
-460 235 -3 -3 21 -18 52 -32 74 -32 212 -110 344 -194 100 -64 103 -66 73
-72 -73 -15 -161 -88 -202 -169 -47 -92 -110 -344 -164 -652 -4 -21 -10 -38
-14 -38 -4 0 -18 17 -32 38 -13 20 -37 53 -52 73 -17 22 -28 49 -28 67 0 17
-4 33 -9 36 -16 10 -22 69 -37 346 -23 440 -29 700 -16 700 6 0 39 -12 74 -27z
m-400 -117 c43 -26 80 -51 83 -57 7 -10 -70 -3 -120 11 -16 5 -70 14 -120 20
-49 6 -94 15 -98 19 -4 4 -3 38 4 74 l12 67 81 -44 c45 -24 116 -64 158 -90z
m3761 97 c8 -16 25 -62 37 -103 12 -41 29 -95 37 -120 8 -25 17 -56 19 -70 2
-14 10 -61 18 -105 8 -44 15 -85 15 -91 1 -7 -16 -9 -49 -6 -48 4 -49 4 -66
-31 -21 -43 -34 -39 -35 11 0 44 -21 148 -32 158 -4 4 -7 17 -7 30 0 12 -8 50
-19 85 -10 35 -26 93 -34 129 -9 36 -19 75 -22 86 -6 19 0 23 52 36 32 9 61
16 65 17 4 0 14 -11 21 -26z m-4233 -35 c41 -22 89 -51 107 -64 l32 -25 -16
-34 c-9 -19 -19 -35 -22 -35 -3 0 -55 48 -116 106 -118 114 -116 122 15 52z
m1460 22 c33 -17 60 -34 60 -38 0 -11 -69 -113 -97 -144 l-25 -26 -52 31 c-28
17 -52 32 -54 33 -8 5 92 174 103 174 3 0 32 -14 65 -30z m-2300 -10 c105 -16
222 -39 227 -44 3 -3 -3 -33 -12 -68 -13 -46 -18 -109 -20 -233 -2 -149 -8
-266 -20 -385 -2 -19 -4 -93 -4 -163 l-1 -129 -37 6 c-21 3 -75 11 -120 17
l-83 11 0 35 c0 30 2 34 15 23 12 -10 20 -9 41 4 21 15 24 22 19 49 -9 42 -30
74 -54 82 -10 3 -22 16 -25 28 -7 30 -90 81 -119 73 l-22 -5 15 178 c14 173
16 180 43 206 34 34 35 78 5 137 -24 46 -25 79 -2 147 20 61 20 60 57 50 17
-4 61 -13 97 -19z m3997 -17 c45 -50 57 -81 26 -67 -43 19 -98 15 -147 -10
-46 -23 -51 -24 -79 -10 -16 9 -25 19 -21 23 25 23 159 111 168 111 6 0 30
-21 53 -47z m907 -1 c21 -41 113 -423 127 -530 l12 -92 -44 -131 -44 -132
-129 7 c-156 9 -180 16 -173 52 2 14 0 41 -5 59 -9 26 -5 52 15 131 39 153 42
182 21 206 -34 37 -52 41 -83 19 -32 -23 -169 -76 -177 -69 -2 3 16 27 41 54
60 64 157 190 179 232 14 26 15 36 5 48 -9 11 -9 18 4 32 8 9 22 34 30 54 13
31 23 39 69 52 57 17 118 34 130 35 4 1 14 -12 22 -27z m-5347 -112 c-3 -22
-1 -40 4 -40 5 0 9 -9 9 -19 0 -11 4 -22 9 -25 14 -9 63 12 56 23 -3 5 -1 12
5 16 6 3 10 -3 10 -15 0 -27 67 -95 103 -104 l27 -6 -6 -98 c-3 -53 -9 -110
-14 -127 -8 -31 -9 -38 -10 -115 l-1 -45 -16 33 c-9 18 -36 55 -60 82 -23 26
-43 53 -43 58 0 23 -33 43 -58 37 -20 -5 -31 1 -55 27 -26 28 -30 40 -28 79 4
87 36 244 49 242 7 -2 12 2 12 7 0 6 -4 10 -10 10 -5 0 -10 5 -10 10 0 6 7 10
16 10 14 0 16 -7 11 -40z m1533 8 c19 -5 44 -10 55 -12 11 -2 22 -5 25 -6 3
-2 16 -4 30 -6 14 -2 65 -10 114 -19 93 -16 126 -37 126 -77 0 -26 -26 -20
-183 41 -67 27 -135 51 -152 55 -48 11 -85 28 -85 38 0 6 8 7 18 3 9 -4 33
-12 52 -17z m2717 -14 c78 -38 83 -48 61 -101 -6 -15 -12 -39 -12 -53 -1 -27
0 -27 -128 -21 l-38 1 0 91 c0 76 3 94 18 105 23 18 17 19 99 -22z m192 26
c19 -5 38 -15 43 -22 4 -7 8 -86 8 -176 l0 -162 -44 -22 -44 -21 -58 34 c-33
19 -72 42 -89 51 -16 10 -49 28 -72 40 -23 12 -45 28 -47 35 -8 19 114 17 161
-2 41 -17 53 -13 36 14 -11 17 -9 44 4 81 3 8 5 25 4 36 -1 12 5 28 13 37 23
23 19 37 -9 37 -33 0 -32 23 3 37 36 14 51 15 91 3z m-334 -129 c-4 -47 -9
-87 -10 -89 -5 -6 -129 74 -132 85 -5 14 127 104 140 96 5 -3 6 -42 2 -92z
m442 -19 c8 -22 28 -46 44 -56 34 -20 35 -25 9 -59 -11 -14 -20 -30 -20 -36 0
-6 -5 -11 -10 -11 -6 0 -10 -16 -8 -37 3 -35 1 -38 -22 -38 -24 0 -25 2 -24
65 1 36 2 76 3 90 1 14 0 46 -2 73 -4 57 9 61 30 9z m-3059 -59 c140 -125 187
-172 179 -180 -5 -4 -12 -1 -17 7 -7 12 -12 12 -22 2 -6 -6 -22 -12 -35 -12
-12 0 -26 -7 -31 -16 -8 -14 -12 -14 -30 -3 -12 8 -22 19 -22 26 0 7 -9 13
-20 13 -11 0 -20 5 -20 10 0 17 -58 11 -69 -7 -10 -17 -12 -16 -31 7 -10 14
-17 33 -14 43 3 9 1 17 -5 17 -5 0 -13 -9 -16 -20 -3 -11 -11 -20 -16 -20 -12
0 -12 2 10 57 42 105 61 143 71 143 6 0 46 -30 88 -67z m4485 -8 c38 -79 58
-92 91 -59 15 14 16 14 16 -4 0 -11 3 -27 6 -36 5 -12 0 -16 -18 -16 -42 0
-62 -32 -54 -87 9 -65 31 -96 62 -89 13 4 24 2 24 -4 0 -12 -77 -52 -83 -42
-3 4 -8 30 -12 57 -10 79 -26 153 -51 244 -38 134 -33 145 19 36z m-6296 -15
c13 -16 31 -30 39 -30 8 0 14 -4 14 -10 0 -5 -4 -10 -9 -10 -5 0 -11 -10 -15
-22 -5 -22 -6 -22 -20 -3 -18 25 -35 11 -18 -15 14 -24 15 -33 3 -25 -21 12
-22 -18 -2 -32 19 -12 20 -17 9 -30 -12 -14 -9 -15 22 -10 19 4 40 3 45 -1 15
-11 17 -55 3 -63 -10 -7 -9 -12 4 -25 13 -14 22 -15 47 -6 l31 11 -3 -74 c-3
-41 -10 -82 -17 -90 -9 -10 -9 -15 -1 -15 6 0 11 -14 11 -31 l0 -31 -31 31
c-17 17 -36 31 -43 31 -22 0 -26 -13 -8 -27 15 -12 12 -13 -28 -7 -25 3 -49
10 -55 15 -5 5 -20 9 -33 9 l-25 0 7 108 c8 113 15 133 41 112 12 -10 15 -10
15 5 0 9 -9 19 -20 22 -17 4 -20 14 -20 54 0 26 4 50 9 53 5 3 7 15 4 26 -6
21 5 110 13 110 3 0 17 -13 31 -30z m1061 -19 c31 -21 76 -49 100 -62 23 -13
40 -29 38 -35 -7 -19 7 -31 69 -61 51 -24 60 -33 58 -53 -7 -94 -14 -186 -24
-328 l-12 -164 -96 7 c-53 4 -123 10 -156 13 l-60 7 -3 115 c-2 63 2 212 9
330 7 118 13 227 13 243 1 15 2 27 4 27 1 0 28 -17 60 -39z m6179 -17 l65 -36
-21 -22 c-28 -30 -26 -40 4 -20 15 10 25 12 25 5 0 -6 -9 -16 -20 -23 -11 -7
-20 -20 -20 -28 0 -8 -5 -22 -10 -30 -9 -13 -12 -13 -23 2 -9 12 -17 14 -28 7
-12 -8 -11 -11 4 -20 24 -14 21 -29 -7 -29 -13 0 -29 -7 -36 -15 -11 -13 -8
-15 14 -15 16 0 25 -4 21 -10 -3 -5 -17 -10 -31 -10 -26 0 -31 -9 -12 -28 9
-9 8 -12 -5 -12 -9 0 -17 -5 -17 -12 0 -6 -8 -4 -19 6 -23 21 -40 3 -18 -19
15 -15 12 -51 -5 -61 -5 -3 -17 1 -27 10 -31 28 -45 12 -16 -18 14 -13 12 -14
-17 -10 -30 4 -35 1 -61 -41 -16 -25 -33 -45 -38 -45 -5 0 -9 -6 -9 -14 0 -7
-11 -25 -25 -39 -14 -14 -22 -27 -18 -30 30 -16 44 -14 67 10 15 14 29 23 32
20 10 -10 -27 -56 -58 -71 -28 -14 -29 -14 -22 6 5 18 3 20 -20 14 -25 -6 -66
-39 -66 -52 0 -3 7 -3 16 0 9 4 -2 -12 -25 -35 -45 -46 -50 -59 -22 -59 11 0
28 15 41 35 22 36 55 61 63 48 3 -5 -10 -24 -29 -43 -19 -19 -34 -39 -34 -45
0 -6 -11 -22 -24 -34 l-24 -22 -13 30 c-15 34 -33 40 -43 15 -10 -25 -7 -31
14 -37 28 -7 24 -28 -9 -54 l-28 -22 0 30 c0 37 -19 52 -45 36 -26 -17 -22
-28 8 -25 42 5 37 -14 -12 -51 -33 -24 -43 -36 -35 -44 14 -14 14 -27 1 -27
-5 0 -10 5 -10 11 0 16 -26 39 -44 39 -19 0 -22 -16 -4 -22 15 -5 19 -38 4
-38 -6 0 -18 -9 -26 -20 -15 -20 -40 -27 -40 -11 0 5 6 11 14 14 19 8 27 45
10 51 -9 3 -14 -1 -14 -12 -1 -18 -23 -52 -34 -52 -11 0 -45 -43 -46 -57 0
-14 -42 -5 -52 12 -8 13 -62 13 -92 0 -11 -5 -21 -3 -25 4 -4 7 -19 13 -32 15
-59 7 -238 99 -446 230 -98 61 -207 129 -241 151 -35 22 -71 45 -80 52 -13 9
18 10 139 6 159 -6 242 2 342 34 26 8 175 77 330 152 155 76 325 157 377 181
52 24 104 49 115 56 17 11 107 51 330 147 33 14 64 26 69 26 5 1 38 -15 73
-35z m-4081 -63 c71 -48 143 -95 159 -104 17 -9 41 -25 54 -35 l23 -19 -63 -2
c-77 -2 -181 -25 -220 -48 -29 -17 -29 -17 -71 23 -54 52 -176 144 -190 144
-6 0 20 -25 58 -56 133 -109 154 -128 152 -133 -2 -3 -31 -32 -65 -65 l-63
-59 -74 52 c-78 53 -86 57 -86 41 0 -5 6 -10 14 -10 8 0 16 -3 18 -7 2 -5 29
-27 61 -51 32 -24 57 -47 55 -50 -33 -67 -54 -102 -60 -102 -5 0 -26 12 -48
26 -57 38 -61 23 -6 -17 25 -18 46 -40 46 -50 0 -15 -35 -108 -44 -117 -2 -1
-21 7 -42 19 l-39 21 38 -34 c20 -18 37 -36 37 -39 0 -4 -7 -23 -15 -43 l-15
-36 -28 17 -27 17 24 -27 24 -26 -18 -86 c-10 -47 -22 -85 -26 -85 -15 0 -119
153 -119 174 0 11 18 114 40 228 48 249 107 442 158 512 50 68 124 115 183
115 41 1 58 -7 175 -88z m1873 0 c65 -61 101 -108 101 -131 0 -4 -21 -11 -47
-15 -32 -5 -55 -16 -75 -36 -48 -48 -53 -44 -78 79 -16 76 -17 90 -4 112 7 14
16 33 20 43 3 9 7 17 9 17 1 0 35 -31 74 -69z m355 -118 c-4 -32 -13 -73 -20
-91 -13 -32 -14 -32 -37 -17 -13 8 -29 26 -36 39 -7 13 -24 30 -37 37 -13 7
-24 15 -24 19 0 9 122 69 143 69 15 1 16 -6 11 -56z m541 25 c9 -13 41 -66 71
-118 31 -52 64 -107 75 -122 10 -15 19 -30 19 -32 0 -9 -79 -47 -137 -67 -29
-10 -85 -21 -124 -25 -68 -7 -72 -6 -65 12 5 10 30 95 57 187 27 93 51 173 54
178 10 16 34 10 50 -13z m-4443 -28 c35 -11 88 -27 119 -35 l56 -16 -3 -65
c-2 -35 -5 -95 -8 -132 -3 -37 -8 -101 -12 -142 -3 -41 -10 -90 -16 -109 l-10
-34 -117 7 c-64 3 -127 9 -140 13 l-24 6 7 141 c11 236 26 348 50 368 26 22
23 22 98 -2z m4622 -69 c108 -89 120 -100 116 -104 -18 -13 -100 -50 -103 -47
-10 13 -117 197 -123 214 -6 17 -5 17 17 6 13 -7 55 -38 93 -69z m-3898 -17
c18 -16 22 -34 27 -126 2 -60 3 -108 1 -108 -3 0 -28 12 -57 28 -30 15 -81 38
-116 52 l-62 25 3 55 3 55 45 3 c50 4 68 15 81 51 l10 24 22 -20 c12 -11 32
-28 43 -39z m-283 -19 c37 -6 37 -6 37 -52 l0 -46 -68 7 -69 7 -42 -43 c-24
-23 -57 -65 -73 -93 l-30 -50 7 135 c3 74 9 145 11 156 l6 21 91 -18 c51 -10
109 -21 130 -24z m1579 -6 c51 -22 95 -44 98 -48 3 -3 16 -12 30 -18 l25 -12
-28 0 c-16 -1 -44 6 -62 15 -30 14 -36 14 -65 -1 -31 -16 -35 -16 -74 1 -22
10 -63 33 -89 52 -75 51 -68 30 7 -25 59 -43 64 -49 49 -60 -24 -18 -39 -16
-89 9 -52 26 -71 16 -30 -17 30 -24 28 -50 -4 -42 -19 5 -168 118 -169 129 -1
12 41 31 109 50 98 26 178 17 292 -33z m1789 9 c21 -24 38 -46 39 -50 0 -4
-11 -33 -25 -64 l-25 -56 -57 33 c-32 17 -62 35 -67 40 -4 4 -5 34 -1 68 7 65
1 60 84 69 7 1 31 -17 52 -40z m-2201 -45 c1 -5 36 -35 80 -68 44 -33 79 -63
80 -66 0 -3 -16 -13 -35 -22 -33 -16 -39 -16 -65 -2 -34 18 -40 7 -10 -20 24
-22 25 -34 5 -42 -20 -7 -185 101 -185 121 0 18 97 106 116 106 8 0 14 -3 14
-7z m-1107 -112 c42 -10 160 -117 305 -275 97 -106 98 -110 38 -232 -47 -94
-61 -105 -111 -94 -22 5 -41 14 -43 19 -2 6 -14 11 -27 11 -12 0 -28 7 -35 15
-7 8 -21 15 -31 15 -11 0 -19 5 -19 10 0 6 -9 10 -20 10 -11 0 -20 5 -20 10 0
6 -9 10 -20 10 -11 0 -20 4 -20 9 0 5 -28 24 -62 41 -35 18 -67 39 -73 45 -5
7 -24 18 -42 26 -37 15 -36 26 3 116 28 63 74 219 74 250 0 19 5 23 33 23 17
0 49 -4 70 -9z m1492 -44 c182 -87 219 -108 204 -118 -19 -12 -116 -1 -158 18
-22 10 -47 13 -72 9 -31 -5 -39 -3 -39 9 0 8 -7 15 -15 15 -8 0 -15 -4 -15
-10 0 -5 -4 -10 -10 -10 -5 0 -10 7 -10 16 0 11 -6 14 -21 9 -14 -5 -19 -3
-15 4 9 13 -36 25 -63 16 -35 -11 -24 15 12 30 18 7 41 23 51 34 27 30 49 26
151 -22z m-486 5 c20 -15 60 -43 88 -62 55 -36 62 -50 39 -69 -10 -8 -25 -6
-60 10 -26 11 -51 18 -54 14 -9 -8 23 -33 66 -51 40 -18 41 -34 2 -34 -29 0
-179 95 -180 113 0 18 43 107 52 107 6 0 27 -12 47 -28z m-3006 -5 c4 3 18 -3
30 -16 15 -13 30 -19 40 -15 13 4 17 1 17 -14 0 -16 7 -21 33 -24 l32 -3 -1
-60 c0 -33 -2 -76 -3 -95 -2 -19 0 -95 3 -167 4 -73 5 -133 3 -133 -2 0 -19 7
-37 17 -27 13 -41 14 -72 6 -29 -8 -40 -7 -49 3 -15 19 -39 18 -39 -1 0 -8 -4
-15 -9 -15 -10 0 -21 76 -20 144 0 41 2 46 9 29 11 -27 51 -31 70 -8 14 16 6
35 -16 35 -8 0 -14 5 -14 11 0 7 -11 9 -30 6 l-30 -6 0 54 c0 62 10 68 46 30
27 -29 37 -31 55 -8 12 15 12 16 -8 11 -17 -4 -23 0 -27 18 -4 14 -18 29 -31
34 -23 9 -25 14 -24 77 1 44 3 59 8 43 8 -30 40 -40 42 -13 2 26 2 26 -6 53
-7 21 -6 23 7 13 8 -7 18 -10 21 -6z m2283 -74 c105 -46 155 -82 153 -111 -1
-34 -25 -97 -34 -93 -25 11 -264 262 -243 255 13 -4 68 -27 124 -51z m-1907
-15 c-3 -20 13 -72 25 -80 6 -4 15 -3 21 2 20 17 52 -16 53 -54 1 -20 -3 -36
-8 -36 -6 0 -10 -7 -10 -15 0 -8 5 -14 11 -12 16 3 23 -109 8 -119 -8 -4 -7
-9 2 -15 10 -6 9 -12 -5 -28 -18 -20 -18 -22 -3 -39 19 -20 24 -107 7 -117
-13 -8 -9 -74 7 -105 18 -35 16 -58 -7 -70 -23 -12 -27 -30 -6 -30 24 0 36
-23 22 -43 -16 -21 -49 -22 -66 -2 -7 8 -20 15 -30 15 -10 0 -42 11 -72 25
-29 14 -60 25 -68 25 -28 0 -59 194 -60 368 0 81 0 82 25 82 14 0 25 5 25 11
0 6 -9 9 -20 6 -27 -7 -35 10 -35 73 l0 55 38 -2 c20 -1 37 2 37 7 0 12 -37
23 -51 14 -16 -10 -26 12 -21 45 5 35 33 45 79 29 26 -9 36 -9 55 5 28 19 50
22 47 5z m-578 -47 c8 2 29 -5 47 -16 27 -16 32 -25 32 -57 0 -32 -4 -40 -26
-48 -33 -13 -34 -13 -34 5 0 17 -31 20 -47 4 -7 -7 -15 -2 -28 17 -14 22 -15
28 -4 35 12 8 11 11 -1 19 -22 15 -30 12 -30 -10 0 -22 -12 -25 -41 -9 -23 12
-16 29 12 29 11 0 19 7 19 16 0 11 -5 14 -17 10 -16 -6 -33 8 -33 29 0 6 5 3
10 -5 8 -13 13 -13 30 -2 11 7 24 11 28 8 5 -3 14 -1 22 4 11 7 20 3 31 -11 8
-11 22 -19 30 -18z m3137 12 c15 -9 35 -25 44 -34 9 -9 23 -19 30 -22 11 -4
11 -7 0 -18 -11 -12 -21 -10 -62 12 -28 15 -50 23 -50 19 0 -10 63 -66 81 -72
11 -4 11 -10 0 -36 -7 -18 -17 -32 -21 -32 -6 0 -83 52 -103 69 -9 9 32 131
44 131 5 0 22 -8 37 -17z m336 -2 c4 -5 30 -12 59 -16 84 -11 187 -44 187 -60
0 -8 -3 -14 -7 -14 -5 1 -32 1 -61 0 -71 -1 -58 -21 14 -21 30 0 54 -4 54 -9
0 -10 -342 -36 -365 -27 -19 7 -15 30 6 32 8 1 60 2 117 3 73 1 101 4 96 12
-4 7 -30 9 -78 5 -39 -3 -87 -2 -106 2 -41 9 -47 36 -10 40 39 4 70 24 70 44
0 19 15 24 24 9z m-2420 -62 c16 -5 42 -9 58 -9 20 0 31 -6 37 -22 5 -13 9
-102 10 -198 2 -155 23 -481 35 -543 3 -12 7 -33 10 -47 l5 -25 -77 3 c-52 3
-80 9 -85 18 -9 16 -37 19 -37 4 0 -11 -69 -13 -86 -2 -7 4 -14 18 -15 32 -3
19 -9 24 -26 22 -14 -2 -26 4 -33 17 -6 12 -17 21 -25 21 -19 0 -19 19 -2 45
7 11 21 47 29 80 48 178 52 209 56 418 l3 207 57 -6 c31 -3 70 -10 86 -15z
m309 -41 c78 -6 143 -12 145 -13 1 -1 5 -78 7 -171 6 -190 21 -399 35 -489 5
-33 11 -86 14 -119 l5 -58 -57 6 c-132 14 -251 31 -256 37 -9 9 -43 256 -50
364 -4 55 -9 183 -12 284 -5 166 -4 183 11 177 9 -3 80 -11 158 -18z m1394
-103 c116 -148 153 -199 153 -212 0 -7 -27 2 -67 24 -48 25 -90 59 -141 114
-66 71 -71 80 -62 103 5 14 15 38 20 53 6 14 14 22 19 17 4 -5 39 -49 78 -99z
m-1080 70 c40 -4 88 -7 106 -7 31 0 33 -2 29 -29 -2 -16 -10 -29 -18 -29 -18
0 -18 -9 1 -30 11 -13 17 -71 25 -271 5 -139 14 -283 19 -319 5 -36 12 -89 15
-119 l5 -54 -67 7 c-37 4 -92 11 -123 17 l-57 11 -6 47 c-27 186 -46 407 -52
585 l-7 208 29 -5 c16 -3 62 -9 101 -12z m2555 -24 c20 -7 29 -19 34 -48 12
-62 -13 -804 -28 -818 -13 -13 -189 -21 -395 -17 l-133 2 0 64 c0 46 7 78 25
118 24 53 24 57 27 378 l3 325 175 5 c208 7 256 6 292 -9z m-500 -93 c1 -101
-2 -249 -8 -313 -1 -22 -3 -80 -3 -129 l-1 -88 -27 8 c-16 4 -62 8 -104 9 -58
1 -82 6 -105 22 -16 11 -58 35 -92 54 l-64 34 4 227 c1 124 6 229 9 233 4 3
40 9 80 11 62 4 117 9 292 23 15 1 17 -10 19 -91z m-427 59 c3 -8 -13 -428
-16 -431 -2 -3 -35 14 -74 36 -125 72 -116 63 -99 103 8 20 12 41 8 47 -11 17
32 147 73 217 25 42 26 43 66 37 23 -4 42 -8 42 -9z m1092 -51 c49 -24 120
-60 158 -79 39 -20 116 -57 172 -83 96 -46 102 -50 113 -88 16 -52 15 -299 -1
-422 l-12 -92 -96 -6 c-53 -3 -176 -9 -275 -12 l-178 -7 6 139 c3 77 8 264 12
417 4 152 9 277 10 277 2 0 43 -20 91 -44z m-1628 -166 c11 -19 31 -46 45 -59
32 -31 33 -41 1 -41 -13 0 -28 -7 -33 -15 -7 -14 -11 -14 -37 -1 -17 9 -40 13
-54 9 -17 -4 -22 -2 -17 6 10 16 -21 26 -38 12 -10 -8 -16 -8 -26 4 -7 8 -20
15 -29 15 -9 0 -24 7 -34 15 -18 13 -16 19 29 119 l47 106 64 -67 c35 -38 72
-84 82 -103z m-893 99 c8 -14 123 -89 192 -125 24 -14 32 -24 32 -46 0 -22 8
-31 36 -46 l36 -18 4 -185 c2 -101 6 -208 9 -237 l5 -53 -57 1 c-72 2 -216 20
-225 29 -16 14 -48 327 -52 504 -3 171 1 207 20 176z m-1558 -115 c21 -8 32
-20 32 -33 0 -11 5 -23 10 -26 6 -3 10 -19 10 -36 0 -27 -3 -29 -35 -29 -29 0
-35 -4 -35 -21 0 -18 4 -20 29 -14 26 5 30 3 40 -26 6 -18 11 -34 11 -36 0 -2
-16 -1 -35 3 -39 7 -47 -7 -17 -31 9 -7 28 -23 42 -34 19 -15 21 -20 9 -21 -9
0 -22 -7 -29 -15 -19 -22 -28 -18 -22 10 4 21 0 25 -19 25 -12 0 -31 7 -41 17
-17 15 -17 17 -1 35 15 17 15 20 0 35 -12 13 -19 14 -30 4 -8 -6 -22 -9 -31
-5 -12 5 -16 0 -17 -17 -1 -21 -2 -20 -9 6 -18 71 -15 75 45 75 l56 0 -18 25
c-21 29 -29 30 -49 10 -39 -38 -64 -6 -64 80 0 28 3 32 19 28 10 -3 22 0 25 5
7 12 79 4 124 -14z m4608 -243 c20 -104 14 -188 -18 -271 -25 -65 -49 -81 -43
-27 23 182 30 324 22 402 l-7 60 15 -39 c8 -21 22 -77 31 -125z m240 95 c58
-19 130 -40 160 -46 l53 -11 -5 -47 c-7 -55 -25 -72 -72 -72 -27 0 -43 9 -74
40 -22 22 -44 37 -49 34 -16 -9 -63 6 -90 30 -17 14 -28 37 -33 64 -3 23 -4
42 -2 42 3 0 53 -16 112 -34z m-2761 -16 l50 -17 -2 -214 -1 -214 -24 1 c-13
1 -62 2 -109 3 l-87 1 -7 83 c-9 91 -11 364 -3 372 2 3 19 -1 36 -7 27 -11 34
-10 49 5 10 10 24 15 33 11 8 -4 38 -15 65 -24z m4576 -26 c106 -77 113 -85
98 -118 -7 -14 -19 -26 -28 -26 -9 1 -56 38 -106 84 -78 73 -88 86 -76 100 7
9 18 16 24 16 5 0 45 -25 88 -56z m-1946 -71 c-3 -15 -1 -25 8 -29 8 -3 27
-29 43 -59 26 -50 27 -56 12 -72 -17 -19 -58 -90 -58 -100 0 -3 6 -1 13 5 17
15 65 -24 49 -40 -11 -11 -142 -32 -149 -24 -2 2 -1 16 3 31 6 24 10 26 40 20
40 -7 45 7 8 23 -20 10 -24 16 -18 35 5 12 7 74 7 136 -1 63 1 119 4 124 10
17 44 -26 38 -50z m440 26 c5 -5 19 -9 31 -9 15 0 30 -12 45 -36 24 -40 96
-79 124 -67 13 4 16 2 13 -8 -2 -8 -15 -16 -29 -18 -33 -4 -76 -37 -93 -69 -8
-16 -30 -33 -53 -41 -21 -8 -62 -25 -91 -39 -29 -13 -54 -23 -56 -21 -2 2 4
58 15 124 10 66 18 136 19 156 0 20 3 39 6 42 8 8 55 -2 69 -14z m-2276 -44
c55 -27 70 -39 74 -61 6 -34 4 -251 -3 -257 -4 -5 -208 -12 -235 -8 -7 1 -9
51 -7 142 4 140 5 142 36 185 35 48 35 48 135 -1z m-403 22 c6 -10 24 -103 24
-125 0 -58 -117 -242 -153 -242 -31 1 -38 16 -23 56 7 22 17 63 21 92 4 28 9
52 11 52 2 0 13 -6 25 -12 18 -12 24 -9 50 20 29 33 41 94 19 107 -5 3 -19 20
-31 37 l-22 31 39 -7 c21 -4 39 -9 40 -9z m124 -33 c19 -50 12 -77 -36 -129
-42 -46 -46 -55 -50 -110 -4 -50 -9 -64 -30 -81 -15 -12 -24 -28 -22 -35 6
-18 -38 -53 -58 -45 -31 12 -23 37 41 134 58 87 68 109 74 161 5 40 3 73 -5
96 l-12 35 44 0 c39 0 46 -3 54 -26z m-190 -9 c22 -20 26 -55 10 -86 -13 -24
-28 -24 -53 -1 -12 10 -35 17 -61 17 l-41 0 -3 42 c-3 37 0 42 20 46 49 8 108
0 128 -18z m2498 -15 c31 -25 45 -30 90 -30 43 0 53 -3 49 -14 -3 -8 -9 -42
-13 -75 -3 -34 -9 -61 -13 -61 -3 0 -13 20 -22 44 -15 41 -15 45 0 51 13 5 14
7 1 15 -21 13 -50 12 -50 -2 0 -15 -30 -48 -44 -48 -17 0 -49 59 -42 77 8 20
-19 63 -39 63 -8 0 -15 5 -15 11 0 20 59 1 98 -31z m610 -2 c23 -11 27 -20 30
-62 4 -60 -9 -94 -53 -136 -28 -27 -36 -30 -54 -21 -25 14 -27 27 -6 47 19 19
19 44 1 44 -9 0 -16 14 -19 38 -3 20 -10 54 -15 76 l-10 39 49 -6 c27 -3 62
-12 77 -19z m-2428 -67 c25 -13 70 -40 100 -59 30 -20 78 -47 105 -62 47 -24
50 -29 53 -68 l3 -42 -68 0 c-37 0 -118 3 -180 7 l-112 6 0 133 0 133 27 -12
c15 -7 47 -23 72 -36z m1760 -23 c0 -16 40 -58 55 -58 7 0 20 9 30 20 10 11
21 20 25 20 8 0 54 -139 48 -145 -1 -2 -27 -6 -57 -9 -74 -8 -129 8 -144 42
-6 15 -17 31 -24 35 -15 9 -17 37 -3 37 6 0 10 5 10 12 0 14 40 58 52 58 4 0
8 -5 8 -12z m-4324 -104 c2 -40 5 -44 24 -44 23 0 24 4 10 29 -8 16 -4 19 31
25 22 4 43 5 47 2 4 -2 59 -11 122 -21 63 -9 120 -21 126 -26 6 -5 11 -26 11
-47 0 -21 7 -49 16 -63 20 -31 30 -98 29 -176 -1 -37 2 -63 8 -63 5 0 10 -5
10 -11 0 -12 -39 -10 -195 12 -38 5 -83 11 -100 12 -76 9 -84 15 -105 86 -22
76 -45 182 -55 260 -6 43 -5 52 6 49 8 -3 14 -13 15 -24z m4712 -8 c2 -10 -6
-29 -19 -42 -18 -19 -20 -27 -11 -36 7 -7 12 -20 12 -30 0 -29 -96 -14 -132
20 l-28 26 42 27 c23 16 55 31 70 34 15 4 30 11 34 16 9 15 28 5 32 -15z m889
-20 c-3 -8 -11 -34 -17 -58 -19 -74 -38 -122 -97 -245 l-35 -71 -64 -4 c-35
-2 -64 -2 -64 -1 0 1 18 39 40 85 23 46 52 121 67 168 39 128 45 134 142 139
25 1 32 -2 28 -13z m-5047 -13 c14 -2 56 -7 94 -9 38 -3 72 -7 76 -9 7 -5 20
-49 40 -145 6 -30 18 -85 26 -122 10 -48 11 -74 4 -94 -11 -27 -11 -27 -83
-21 -40 4 -106 11 -148 18 l-77 11 -17 92 c-9 50 -23 116 -30 146 -8 30 -16
76 -18 102 l-4 46 56 -4 c31 -3 67 -8 81 -11z m4256 -10 c-4 -9 -8 -51 -10
-92 -3 -86 -47 -211 -73 -211 -11 0 -14 7 -9 26 5 17 0 37 -14 61 -25 43 -25
64 1 97 17 21 20 36 16 64 -8 47 13 72 61 72 28 0 33 -3 28 -17z m619 -6 c-4
-12 -12 -41 -19 -64 -6 -23 -15 -45 -19 -49 -4 -4 -7 -15 -7 -24 0 -23 -85
-196 -101 -206 -7 -4 -34 -8 -59 -8 l-46 -1 28 40 c15 22 34 65 42 95 7 31 35
93 60 139 25 46 46 87 46 91 0 4 18 8 41 8 38 1 40 -1 34 -21z m-185 -44 c-11
-21 -23 -54 -26 -73 -9 -52 -86 -194 -106 -198 -11 -2 -18 3 -18 12 0 9 4 16
8 16 5 0 15 11 22 25 11 21 11 29 0 50 -12 22 -11 30 5 63 10 20 23 62 29 92
l11 55 45 5 c25 3 46 2 48 -2 2 -3 -6 -23 -18 -45z m-200 43 c0 -26 -37 -163
-67 -251 l-39 -110 -47 -3 -48 -3 19 38 c16 31 18 49 12 93 -8 64 1 113 27
142 49 56 100 98 121 98 12 0 22 -2 22 -4z m-4080 -39 l55 -12 13 -159 c11
-148 11 -160 -5 -172 -17 -13 -17 -13 0 -14 9 0 17 -4 17 -10 0 -11 -41 -13
-118 -3 -37 4 -56 11 -63 25 -13 25 -79 312 -79 345 0 25 0 25 63 19 34 -4 87
-13 117 -19z m3346 1 c23 -8 49 -8 95 -1 35 6 67 9 70 7 4 -2 2 -28 -5 -56
-10 -47 -15 -53 -38 -56 -33 -4 -68 13 -68 33 0 24 -13 17 -35 -18 -23 -37
-67 -48 -93 -24 -10 9 -45 24 -79 34 -60 17 -63 19 -63 50 0 30 2 32 43 36 90
8 142 7 173 -5z m-279 -19 c-3 -11 12 -91 34 -176 21 -86 38 -158 36 -159 -1
-1 -40 -5 -86 -9 -69 -6 -82 -5 -78 6 17 41 47 167 68 287 7 39 17 72 22 72 5
0 7 -9 4 -21z m504 -2 c9 -12 19 -53 23 -92 13 -124 10 -133 -53 -154 -59 -19
-61 -17 -41 47 10 32 24 95 30 140 7 45 15 82 19 82 3 0 13 -11 22 -23z
m-3226 -6 l40 -6 8 -65 c18 -157 33 -301 31 -303 -3 -2 -100 6 -234 21 l-65 7
-11 110 c-7 61 -13 142 -16 181 l-3 70 105 -4 c58 -2 123 -7 145 -11z m2661
-43 c-7 -59 -21 -125 -53 -244 l-14 -52 -112 -11 c-176 -17 -390 -31 -395 -26
-6 6 25 352 33 365 3 6 54 11 113 11 59 1 152 5 207 9 55 3 129 7 164 8 l64 2
-7 -62z m-2370 27 c7 -2 14 -53 18 -132 3 -70 9 -151 13 -180 l6 -52 -34 -3
c-19 -2 -64 -2 -101 0 -67 4 -67 4 -72 35 -8 56 -25 199 -32 274 l-6 72 98 -6
c55 -2 104 -6 110 -8z m822 -175 c-3 -105 -7 -193 -9 -195 -2 -2 -63 -5 -134
-6 l-130 -2 2 44 c1 24 8 108 14 187 10 119 14 142 28 143 131 6 206 11 210
15 20 20 23 -13 19 -186z m401 174 c5 -5 -19 -368 -26 -374 -2 -3 -80 -5 -171
-5 l-167 0 3 185 c1 102 5 191 7 198 4 10 41 11 177 6 95 -4 175 -8 177 -10z
m563 -35 c-2 -24 -9 -107 -15 -184 l-12 -140 -160 -12 c-88 -6 -207 -12 -263
-12 l-104 -1 7 52 c4 29 10 116 14 193 l6 140 248 2 c137 0 251 4 255 7 15 16
27 -5 24 -45z m-1666 -14 c7 -28 16 -75 20 -105 4 -30 14 -65 22 -78 13 -20
21 -22 78 -18 113 7 155 39 250 191 43 69 44 70 44 35 0 -46 -17 -250 -26
-307 l-7 -45 -211 4 -211 4 -6 39 c-4 22 -10 106 -14 187 l-7 147 27 -2 c24
-2 29 -8 41 -52z m2478 -35 c16 -16 17 -22 5 -56 -7 -22 -14 -48 -15 -59 -1
-11 -3 -20 -4 -20 -1 0 -2 -17 -4 -38 -3 -37 -11 -55 -21 -45 -5 4 -40 156
-52 220 -5 26 -4 27 33 21 22 -3 47 -13 58 -23z m224 -5 c2 -2 -12 -27 -30
-57 -19 -29 -37 -60 -40 -68 -3 -8 -20 -34 -37 -57 -29 -40 -35 -43 -77 -43
-40 0 -45 2 -39 18 4 9 11 42 15 72 10 75 34 120 64 120 13 0 39 7 57 15 29
12 75 12 87 0z m-4588 -197 c0 -12 8 -29 17 -38 16 -15 19 -14 39 14 11 17 27
29 35 27 20 -5 32 -4 50 3 15 7 79 -39 79 -56 0 -13 -28 -9 -33 5 -2 6 -8 9
-12 5 -5 -5 -1 -16 8 -26 10 -10 17 -23 17 -29 0 -5 11 -16 25 -23 14 -7 25
-21 25 -31 0 -9 4 -19 9 -21 14 -5 25 -88 12 -88 -16 0 -13 -19 5 -37 11 -12
12 -19 4 -27 -8 -8 -15 -6 -26 8 -11 16 -17 17 -26 8 -18 -18 2 -45 43 -58 19
-6 36 -19 37 -29 3 -14 1 -15 -17 -5 -12 6 -31 10 -43 8 -15 -2 -26 6 -40 30
-10 18 -16 38 -13 43 9 13 -29 11 -42 -2 -8 -8 -16 -2 -28 24 -16 35 -16 36
11 66 15 17 37 31 49 31 31 0 41 46 13 61 -23 12 -38 4 -38 -22 0 -20 -1 -20
-31 2 -26 18 -35 20 -50 11 -24 -15 -29 -15 -29 2 0 8 -4 16 -8 18 -11 4 -72
118 -72 135 0 7 7 13 15 13 9 0 15 -9 15 -22z m303 8 c8 3 36 0 62 -6 27 -6
74 -13 104 -16 31 -3 67 -7 81 -11 14 -3 36 -6 50 -7 18 -1 27 -9 33 -31 5
-16 16 -47 25 -67 8 -20 12 -47 9 -59 -3 -12 2 -39 12 -60 13 -26 17 -51 14
-82 -5 -43 -4 -45 23 -51 39 -9 85 -96 64 -121 -11 -13 -10 -19 6 -38 11 -12
21 -24 24 -27 3 -3 16 -19 27 -36 24 -34 23 -35 -44 -34 -22 0 -33 -5 -33 -14
0 -19 33 -29 70 -21 25 6 30 4 30 -13 0 -11 9 -31 20 -45 11 -14 20 -32 20
-40 0 -7 9 -22 20 -32 16 -14 17 -21 8 -32 -17 -21 -61 -12 -74 15 -7 14 -14
19 -18 13 -8 -13 -61 -13 -141 1 -46 7 -65 16 -81 36 -21 26 -21 26 -3 56 25
40 24 49 -2 34 -17 -10 -23 -10 -26 0 -3 6 -13 12 -24 12 -10 0 -19 2 -19 4 0
2 -3 11 -6 20 -5 12 0 16 17 16 13 0 31 5 39 10 22 14 -1 45 -34 45 -15 0 -30
5 -34 10 -4 6 -14 10 -22 10 -13 0 -38 41 -63 105 -5 14 -13 32 -18 40 -9 15
-18 34 -49 105 -10 22 -29 66 -44 97 -14 31 -26 63 -26 70 0 8 -4 18 -9 24 -8
8 -51 118 -51 129 0 3 11 0 25 -5 14 -5 31 -7 38 -4z m4267 1 c0 -28 -33 -107
-44 -107 -7 0 -39 -20 -70 -45 -65 -50 -72 -52 -98 -28 -22 20 -23 46 -3 63
23 19 19 43 -6 35 -14 -5 -20 -3 -17 5 2 6 7 11 11 11 4 -1 16 -1 27 -1 11 0
20 -7 20 -15 0 -29 38 -14 88 34 61 59 92 75 92 48z m985 -106 c-71 -144 -210
-336 -383 -528 -64 -71 -79 -83 -120 -92 -26 -6 -58 -14 -71 -17 -25 -8 -20 1
128 181 129 158 238 317 302 440 l47 90 64 6 c35 3 66 6 70 7 4 1 -13 -38 -37
-87z m93 52 c-11 -21 -36 -67 -56 -103 -19 -36 -41 -72 -48 -81 -8 -8 -14 -20
-15 -25 -1 -33 -303 -408 -359 -448 -23 -15 -43 -26 -45 -24 -2 2 26 37 62 78
189 218 314 386 388 525 55 104 63 115 81 115 10 0 8 -10 -8 -37z m-255 -40
c-62 -120 -229 -364 -306 -448 -10 -11 -50 -61 -88 -112 -38 -51 -79 -98 -91
-104 -19 -10 -229 -42 -235 -35 -1 1 22 36 52 76 30 41 68 93 84 115 28 39
131 203 131 210 0 1 32 61 71 131 39 71 79 149 89 174 l18 45 58 3 c33 1 64 4
69 6 6 3 49 5 96 5 l87 1 -35 -67z m-4703 47 c0 -6 28 -10 63 -10 51 0 68 -4
82 -20 22 -24 35 -26 35 -5 0 13 9 15 58 10 65 -8 75 -14 78 -52 1 -16 5 -40
9 -55 9 -35 -1 -35 -37 -1 -18 17 -28 22 -28 12 1 -23 26 -49 47 -49 22 0 43
-37 43 -74 0 -13 7 -29 16 -37 8 -7 13 -21 11 -31 -3 -10 -1 -21 4 -24 6 -3 9
-13 8 -22 -2 -10 7 -35 18 -57 12 -23 25 -59 28 -80 4 -22 12 -45 17 -52 6 -7
5 -19 -3 -31 -10 -17 -9 -25 6 -49 11 -15 18 -31 17 -35 -1 -5 2 -8 8 -8 5 0
7 -6 4 -14 -3 -8 2 -28 11 -45 14 -28 14 -32 0 -37 -17 -7 -10 -26 8 -22 7 2
13 -1 14 -6 1 -5 5 -12 10 -15 4 -3 14 -17 21 -30 l14 -24 -49 7 c-26 4 -74
12 -106 19 -58 11 -60 13 -101 77 -23 36 -59 103 -80 150 -22 47 -42 90 -46
95 -12 17 -110 252 -110 264 0 7 -9 29 -20 51 -19 38 -70 184 -70 201 0 5 5 9
10 9 6 0 10 -4 10 -10z m4164 -17 c-14 -59 -58 -135 -105 -184 -48 -49 -76
-57 -64 -18 4 11 1 26 -5 34 -22 27 16 86 75 115 17 8 43 29 58 47 35 40 50
42 41 6z m226 14 c0 -7 -21 -53 -46 -102 -25 -50 -55 -108 -66 -130 -12 -22
-23 -42 -27 -45 -3 -3 -17 -27 -30 -53 -30 -59 -147 -241 -205 -317 -79 -106
-81 -107 -181 -117 -49 -6 -92 -8 -95 -6 -2 2 2 14 10 26 62 100 126 210 178
306 53 102 68 121 131 173 39 32 82 75 95 96 43 68 107 143 139 163 37 22 97
26 97 6z m-789 -118 c9 -52 23 -113 30 -137 13 -49 4 -106 -37 -222 -31 -89
-46 -118 -127 -242 -70 -108 -71 -108 -111 -109 -23 0 -105 -10 -183 -23 -79
-12 -143 -19 -143 -14 0 10 34 79 137 278 45 85 97 193 116 240 51 121 105
263 112 293 7 25 10 26 88 29 45 2 86 3 91 3 6 -1 18 -44 27 -96z m-231 89
c-1 -4 -53 -150 -82 -228 -14 -36 -30 -74 -36 -85 -6 -11 -39 -78 -73 -150
-34 -71 -65 -132 -68 -135 -3 -3 -34 -59 -68 -125 -71 -139 -54 -130 -257
-141 -125 -7 -129 -6 -121 12 16 40 68 191 81 239 71 257 103 405 117 545 2
25 2 25 162 37 147 12 319 28 338 31 4 1 7 1 7 0z m-2905 -21 c59 -4 60 -5 67
-38 4 -19 19 -84 33 -146 28 -125 30 -140 15 -145 -6 -2 -3 -12 7 -23 17 -18
32 -66 74 -235 7 -25 16 -55 21 -66 18 -39 6 -58 -40 -67 -26 -5 -42 -13 -39
-20 4 -14 59 -18 68 -5 11 17 36 -3 47 -37 l10 -35 -58 0 -58 0 -46 117 c-25
64 -46 120 -46 126 0 5 -6 23 -14 40 -8 18 -27 75 -41 127 -15 52 -33 118 -42
145 -12 41 -72 265 -73 272 0 1 12 0 28 -2 15 -3 54 -6 87 -8z m335 -18 c30
-6 60 -13 66 -14 10 -3 21 -53 44 -200 5 -33 19 -121 31 -195 12 -74 23 -153
24 -175 0 -22 4 -45 7 -50 9 -15 29 -167 23 -173 -3 -3 -5 2 -5 10 0 9 -8 18
-17 22 -10 3 -24 9 -30 12 -8 3 -13 -2 -13 -14 0 -32 -21 -40 -88 -33 l-63 6
-29 88 c-17 48 -30 99 -30 112 0 13 -4 26 -9 29 -5 3 -11 18 -14 33 -3 16 -12
53 -21 83 -9 30 -21 75 -26 100 -5 25 -16 70 -25 100 -18 61 -45 211 -45 250
0 25 1 25 82 23 46 -1 108 -7 138 -14z m2030 -24 c0 -36 -29 -209 -46 -280 -9
-33 -21 -85 -29 -115 -26 -110 -89 -304 -105 -325 -4 -5 -10 -23 -14 -40 -13
-54 -14 -54 -217 -54 -104 0 -194 -3 -199 -6 -12 -8 -12 18 0 70 8 36 21 133
51 385 5 47 14 119 19 160 5 41 12 104 15 140 l6 65 162 4 c133 2 315 13 350
20 4 0 7 -10 7 -24z m-1718 -8 c4 -6 8 -34 9 -62 0 -27 2 -61 4 -75 1 -14 8
-83 14 -155 6 -71 16 -154 22 -182 6 -29 9 -61 7 -70 -1 -10 3 -31 9 -48 7
-16 14 -67 15 -113 l3 -82 -71 0 -72 0 -12 63 c-7 34 -16 85 -20 112 -13 90
-51 318 -66 400 -18 99 -18 105 1 105 19 0 19 19 0 26 -13 5 -35 61 -35 89 0
15 182 8 192 -8z m465 -190 c-4 -111 -10 -298 -14 -416 l-6 -214 -151 7 c-83
4 -154 10 -157 14 -4 4 -10 39 -13 77 -3 39 -10 97 -15 130 -32 212 -41 286
-51 415 -6 80 -13 153 -16 162 -3 10 -3 21 -1 25 3 5 101 7 218 5 l212 -3 -6
-202z m309 -23 c-5 -126 -9 -260 -11 -299 -2 -38 -3 -123 -4 -187 l-1 -118
-136 0 -136 0 6 218 c4 119 9 300 12 402 3 102 6 190 8 195 2 6 60 11 136 14
l133 3 -7 -228z m378 166 c-1 -105 -41 -445 -75 -642 l-22 -128 -130 0 -130 0
7 228 c3 125 9 312 12 415 l7 188 166 -3 166 -3 -1 -55z m1700 -86 c5 -17 2
-32 -8 -43 -20 -22 -151 -87 -194 -96 -32 -7 -33 -6 -26 22 12 52 75 101 151
118 18 3 35 11 38 16 12 18 33 9 39 -17z m-70 -205 c-21 -41 -47 -87 -58 -103
-11 -16 -29 -46 -40 -67 -12 -21 -33 -59 -48 -86 -44 -81 -77 -101 -177 -108
-20 -1 -55 -6 -78 -10 -24 -4 -43 -5 -43 -2 0 3 32 56 71 119 40 62 83 145 96
183 32 94 37 102 57 85 25 -20 105 -6 183 33 37 19 69 34 71 32 2 -1 -14 -36
-34 -76z m447 -287 c-6 -11 -25 -31 -43 -45 -18 -14 -49 -40 -68 -57 -19 -17
-53 -44 -75 -58 -22 -15 -42 -29 -45 -32 -15 -16 -122 -81 -127 -77 -2 3 24
31 59 63 35 32 91 88 126 123 39 40 73 66 89 69 14 1 40 9 57 17 17 7 32 14
34 14 1 1 -2 -7 -7 -17z m60 -59 c-109 -128 -278 -288 -326 -308 -48 -20 -98
-35 -102 -31 -3 2 24 25 59 52 57 44 336 274 382 316 34 31 29 20 -13 -29z
m-231 20 c0 -19 -401 -382 -424 -384 -46 -2 -155 -17 -171 -23 -12 -5 -4 7 20
30 158 148 305 299 323 330 9 17 67 31 167 40 33 3 62 7 64 10 7 6 21 5 21 -3z
m-280 -32 c0 -16 -211 -231 -300 -305 -105 -87 -120 -96 -167 -96 -21 -1 -56
-9 -78 -20 -22 -10 -41 -18 -42 -17 -1 1 90 95 201 209 l203 207 59 6 c81 9
106 13 112 20 8 8 12 6 12 -4z m-330 -128 c-108 -115 -322 -318 -353 -335 -19
-11 -197 -40 -205 -33 -1 1 63 64 143 140 80 76 172 173 206 215 l60 77 62 7
c34 4 85 11 112 15 28 5 54 9 58 10 5 0 -32 -43 -83 -96z m-216 30 c-16 -21
-47 -58 -71 -83 -23 -25 -54 -59 -70 -76 -15 -17 -57 -57 -93 -89 -36 -32 -81
-72 -100 -90 -80 -71 -87 -74 -202 -78 -60 -3 -108 -2 -108 2 1 3 26 38 56 76
30 39 97 127 150 198 87 115 99 127 128 127 29 0 204 29 291 48 22 4 42 7 44
6 1 -2 -10 -20 -25 -41z m-3127 -4 c5 -29 33 -41 33 -15 0 8 10 14 25 14 28 0
34 -24 13 -47 -11 -11 -10 -14 0 -18 7 -3 24 -15 38 -27 23 -20 24 -22 9 -43
-18 -26 -35 -30 -35 -9 0 8 -18 23 -40 35 -50 26 -50 26 -50 2 0 -13 8 -21 22
-23 17 -2 23 -11 25 -36 2 -22 -2 -35 -12 -38 -18 -7 -65 21 -65 39 0 6 -12
23 -26 37 -15 13 -21 26 -15 28 6 2 11 13 11 24 0 16 -5 19 -28 13 -32 -7 -58
14 -49 39 4 11 16 13 41 9 40 -6 66 9 66 38 0 29 30 11 37 -22z m647 -54 c45
-30 66 -32 66 -5 0 20 11 26 24 13 4 -5 22 -8 39 -8 30 0 32 -2 33 -40 0 -22
-4 -45 -9 -52 -5 -7 -6 -17 -2 -22 10 -18 -10 -43 -46 -56 -19 -7 -41 -15 -50
-19 -13 -6 -25 11 -57 76 -44 89 -60 138 -44 138 5 0 26 -11 46 -25z m2061 -2
c-34 -53 -155 -210 -187 -244 -18 -19 -48 -53 -66 -76 l-33 -42 -87 -3 c-48
-2 -88 -3 -90 -2 -2 1 20 43 47 93 27 50 55 108 61 127 7 20 25 65 41 100 l29
63 82 3 c46 2 114 4 152 6 l69 3 -18 -28z m-1714 -10 c5 -14 7 -28 4 -33 -3
-5 -1 -11 4 -14 5 -3 9 -26 9 -51 -1 -25 4 -51 10 -57 7 -7 12 -21 12 -33 0
-17 -6 -21 -34 -22 -18 -1 -44 -7 -57 -13 -22 -12 -22 -13 -4 -26 16 -12 21
-12 36 2 20 18 39 11 39 -15 0 -9 13 -31 30 -47 16 -17 31 -44 34 -60 5 -25 2
-29 -20 -30 -17 -2 -24 2 -20 11 3 8 0 15 -7 18 -7 2 -12 12 -12 22 0 28 -29
41 -58 26 -32 -17 -46 -8 -45 27 0 15 -11 74 -25 132 -14 58 -28 124 -31 146
l-6 42 66 -1 c60 0 67 -2 75 -24z m226 3 c62 -1 115 -4 117 -7 9 -10 14 -249
5 -249 -5 0 -4 -9 3 -20 11 -17 10 -22 -2 -30 -13 -9 -13 -12 3 -24 9 -7 17
-23 17 -34 0 -18 -5 -20 -45 -18 -38 2 -45 0 -45 -16 0 -23 -19 -23 -36 0 -13
16 -15 16 -28 -1 -9 -12 -22 -16 -41 -13 -15 3 -29 7 -31 9 -6 5 -52 182 -64
242 -6 28 -13 61 -16 75 -3 14 -8 43 -11 64 l-6 39 34 -7 c19 -4 85 -9 146
-10z m1126 -58 c-28 -77 -112 -246 -143 -287 -17 -24 -21 -25 -172 -28 l-155
-3 20 67 c11 38 34 122 51 187 25 91 37 121 52 127 10 4 99 8 196 8 l178 1
-27 -72z m-708 7 c0 -47 -2 -50 -27 -53 -16 -2 -28 -8 -28 -14 0 -6 9 -8 21
-5 13 4 22 0 26 -11 6 -15 -11 -183 -23 -229 -7 -25 -66 -43 -142 -43 l-49 0
-11 93 c-15 121 -26 293 -19 303 3 5 61 9 129 9 l123 0 0 -50z m291 13 c-6
-39 -19 -85 -34 -128 -3 -8 -7 -19 -7 -25 -1 -5 -4 -17 -7 -25 -3 -8 -15 -48
-28 -89 l-24 -73 -38 5 c-21 3 -40 1 -43 -3 -6 -9 -93 -25 -100 -18 -2 2 2 42
10 88 7 47 17 128 21 180 7 90 9 105 12 123 1 4 57 7 123 7 l122 0 -7 -42z
m1854 -162 c-16 -21 -271 -192 -350 -236 -86 -48 -138 -79 -175 -102 -39 -24
-152 -78 -164 -78 -4 0 -34 -11 -66 -25 -66 -29 -282 -105 -299 -105 -10 0
110 57 219 102 296 125 490 233 685 384 58 45 112 73 144 74 15 0 16 -3 6 -14z
m-362 -50 c-23 -17 -11 -29 14 -15 11 6 22 9 24 6 4 -4 -176 -123 -247 -162
-88 -49 -276 -138 -383 -182 -149 -60 -158 -44 -17 32 88 47 154 87 174 103 9
9 26 20 36 26 11 6 56 38 101 71 45 33 95 69 112 79 31 19 148 55 183 55 19 0
19 -1 3 -13z m-288 -70 c0 -10 -148 -112 -200 -138 -14 -7 -41 -22 -60 -34
-101 -61 -449 -228 -458 -219 -8 8 10 18 108 65 92 43 142 74 332 207 95 66
158 103 175 104 16 1 39 5 53 9 30 9 50 12 50 6z m-269 -70 c-18 -11 -67 -46
-109 -77 -75 -54 -225 -139 -247 -139 -5 0 -21 -9 -35 -20 -14 -11 -33 -20
-42 -20 -10 0 -18 -3 -18 -8 0 -8 -98 -57 -115 -57 -6 0 -26 -13 -46 -28 -43
-32 -49 -33 -49 -7 0 13 7 20 20 20 11 0 23 7 26 15 4 8 15 15 25 15 10 0 28
9 39 20 11 11 25 20 30 20 6 0 10 5 10 10 0 6 6 10 14 10 7 0 19 7 26 15 7 9
19 14 27 11 7 -3 13 1 13 8 0 8 12 22 28 32 15 10 32 22 38 28 6 6 24 21 40
33 172 129 191 137 289 139 l67 2 -31 -22z m-569 -87 c-58 -56 -77 -69 -95
-64 -18 5 -19 4 -7 -5 10 -8 11 -13 3 -16 -6 -3 -24 -16 -40 -30 -34 -29 -38
-30 -40 -5 -1 13 3 17 17 14 25 -7 36 16 17 34 -14 14 -17 14 -32 -1 -9 -9
-23 -16 -32 -16 -8 0 16 34 57 80 57 62 77 79 94 75 11 -3 44 -1 71 3 28 5 52
7 55 4 3 -2 -28 -35 -68 -73z m324 72 c-11 -16 -201 -148 -262 -181 -32 -18
-62 -37 -65 -43 -4 -5 -9 -2 -11 9 -4 16 -6 15 -16 -7 -7 -19 -33 -38 -83 -63
-39 -20 -76 -36 -80 -36 -19 0 -7 16 21 28 16 7 32 22 35 33 4 10 11 19 16 19
5 0 9 7 9 16 0 11 6 15 20 11 14 -3 20 0 20 10 0 16 21 38 142 151 l67 62 96
0 c55 0 94 -4 91 -9z m-476 -21 c0 -11 -62 -80 -72 -80 -5 0 -6 4 -3 10 8 13
-28 0 -37 -14 -13 -19 -9 -29 7 -16 8 7 15 9 15 5 0 -13 -165 -173 -181 -175
-31 -5 -49 1 -49 15 0 8 7 15 15 15 9 0 15 9 15 25 0 18 5 25 20 25 29 0 25
34 -6 59 -15 12 -33 21 -41 21 -15 0 -10 36 13 81 12 23 18 25 90 28 43 1 79
3 81 4 5 6 133 3 133 -3z m-438 -22 c-32 -32 10 -39 43 -8 19 18 24 19 34 6 9
-11 10 -20 2 -35 -11 -19 -36 -27 -105 -33 -33 -3 -49 -28 -17 -28 11 0 23 -4
26 -10 3 -5 17 -10 31 -10 15 0 24 -6 24 -15 0 -9 -6 -15 -12 -14 -17 3 -69
-10 -92 -23 -18 -9 -18 -6 -12 62 10 101 17 115 57 117 25 2 30 0 21 -9z
m-112 -23 c0 -12 -9 -30 -20 -40 -19 -17 -21 -17 -40 0 -25 22 -35 15 -26 -20
7 -28 43 -35 52 -10 8 21 24 19 24 -3 0 -9 -10 -22 -22 -27 -18 -8 -23 -18
-22 -48 1 -42 -4 -45 -39 -17 -14 11 -32 20 -40 20 -19 0 -24 13 -32 93 -7 60
-5 67 10 67 10 0 24 -8 31 -17 12 -17 14 -17 29 4 12 18 25 22 56 21 33 -1 39
-5 39 -23z"/>
</g>
</svg>
