<?xml version="1.0" encoding="UTF-8"?>
<svg xmlns="http://www.w3.org/2000/svg" xmlns:xlink="http://www.w3.org/1999/xlink" xmlns:svgjs="http://svgjs.com/svgjs" version="1.1" width="512" height="512" x="0" y="0" viewBox="0 0 512.001 512.001" style="enable-background:new 0 0 512 512" xml:space="preserve" class="">
  <g>
<g xmlns="http://www.w3.org/2000/svg">
	<g>
		<g>
			<path d="M508.907,312.48l-53.333-53.333c-4.16-4.16-10.88-4.16-15.04,0l-160,160c-0.853,0.96-1.6,1.92-2.133,3.093     c-0.107,0.32-0.213,0.533-0.32,0.747c-0.107,0.213-0.213,0.427-0.32,0.64l-21.333,74.667c-1.6,5.653,1.6,11.627,7.253,13.227     c0.96,0.32,2.027,0.427,2.987,0.427c0.96,0,1.92-0.107,2.88-0.427l74.667-21.333c0.213-0.107,0.427-0.213,0.64-0.32     c0.213-0.107,0.533-0.213,0.747-0.32c1.173-0.533,2.24-1.28,3.093-2.133l160-160C513.067,323.36,513.067,316.64,508.907,312.48z      M282.133,485.92l11.093-38.827l27.733,27.733L282.133,485.92z M341.333,465.014L303.04,426.72L448,281.76l38.293,38.293     L341.333,465.014z" fill="#ffffff" data-original="#000000" class=""/>
			<path d="M202.667,384.054h-105.6c4.373-5.653,7.573-12.16,9.28-19.093c0.213-0.853,0.32-1.707,0.32-2.56V128.054h320V202.4     c0,5.333,3.84,10.133,9.067,10.88c6.613,0.96,12.267-4.16,12.267-10.56v-85.333c0-5.867-4.8-10.667-10.667-10.667h-32V64.054     c0-5.867-4.8-10.667-10.667-10.667H168.533L137.813,4.96c-1.92-3.093-5.333-4.907-8.96-4.907H10.667C4.8,0.054,0,4.854,0,10.72     V362.4c0,0.853,0.107,1.707,0.32,2.56c5.76,23.147,25.92,38.827,50.453,39.893c0.853,0.32,1.707,0.427,2.56,0.533h149.013     c5.333,0,10.133-3.84,10.88-9.067C214.187,389.707,209.067,384.054,202.667,384.054z M85.333,117.387v243.627     c-4.8,16.747-20.16,22.72-32,22.72c-11.84,0-27.2-5.973-32-22.72V21.387H122.88l30.72,48.427c1.92,3.093,5.333,4.907,9.067,4.907     H384v32H96C90.133,106.72,85.333,111.52,85.333,117.387z" fill="#ffffff" data-original="#000000" class=""/>
		</g>
	</g>
</g>















</g>
</svg>
