<?xml version="1.0" encoding="UTF-8" standalone="no"?>
<!-- Created with Inkscape (http://www.inkscape.org/) -->
<svg xmlns:rdf="http://www.w3.org/1999/02/22-rdf-syntax-ns#" xmlns="http://www.w3.org/2000/svg" xmlns:cc="http://web.resource.org/cc/" xmlns:xlink="http://www.w3.org/1999/xlink" xmlns:dc="http://purl.org/dc/elements/1.1/" xmlns:svg="http://www.w3.org/2000/svg" xmlns:inkscape="http://www.inkscape.org/namespaces/inkscape" xmlns:sodipodi="http://sodipodi.sourceforge.net/DTD/sodipodi-0.dtd" xmlns:ns1="http://sozi.baierouge.fr" id="svg4252" viewBox="0 0 128 128" version="1.1" inkscape:version="0.91 r13725">
  <defs id="defs4254">
    <linearGradient id="linearGradient4206" y2="390.78" gradientUnits="userSpaceOnUse" x2="311.27" gradientTransform="matrix(5.2962 0 0 4.9975 -1603.1 -1873.1)" y1="377.95" x1="302.74">
      <stop id="stop4556" style="stop-color:#ffffff" offset="0"/>
      <stop id="stop4558" style="stop-color:#ffffff;stop-opacity:0" offset="1"/>
    </linearGradient>
    <linearGradient id="linearGradient4222" y2="390.49" gradientUnits="userSpaceOnUse" x2="414.39" gradientTransform="matrix(2.7132 0 0 2.7135 -1076 -978.37)" y1="376.14" x1="401.93">
      <stop id="stop4740" style="stop-color:#ffffff;stop-opacity:.72656" offset="0"/>
      <stop id="stop4742" style="stop-color:#ffffff" offset="1"/>
    </linearGradient>
    <linearGradient id="linearGradient4213" y2="387.44" gradientUnits="userSpaceOnUse" x2="332.02" y1="369.98" x1="314.57">
      <stop id="stop4570" style="stop-color:#118909" offset="0"/>
      <stop id="stop4572" style="stop-color:#084c06" offset="1"/>
    </linearGradient>
  </defs>
  <g id="layer1" transform="matrix(.89070 0 0 .89070 .000036618 .048430)">
    <path id="path4531" style="fill:#084c06" d="m339.54 378.06a13.967 13.967 0 1 1 -27.933 0 13.967 13.967 0 1 1 27.933 0z" transform="matrix(5.1447 0 0 5.1447 -1603.1 -1873.1)"/>
    <path id="path4533" style="stroke:#ffffff;stroke-width:.32492;fill:url(#linearGradient4213)" d="m339.54 378.06a13.967 13.967 0 1 1 -27.933 0 13.967 13.967 0 1 1 27.933 0z" transform="matrix(4.6973 0 0 4.6973 -1457.5 -1704)"/>
    <path id="rect4574" style="fill:url(#linearGradient4222)" d="m39.65 58.141c-0.41675 0-1.1011 0.25149-1.4034 0.56585l-13.473 13.752c-0.60447 0.61076-0.60357 1.3625 0 1.9652l21.177 20.113 13.753 13.754c0.30538 0.30537 0.70596 0.55686 1.1227 0.55686 0.30807 0 0.59998-0.32334 0.84159-0.55686l13.753-13.472 43.509-43.505c0.61255-0.60178 0.61076-1.641 0-2.2454l-13.76-13.754c-0.61076-0.60178-1.3619-0.61076-1.9648 0l-42.384 42.383-20.054-18.99c-0.303-0.306-0.706-0.566-1.123-0.566z"/>
    <path id="path4537" style="fill:url(#linearGradient4206)" d="m71.81 6.2838c-36.214 0-65.594 29.381-65.594 65.595 0 17.399 7.1006 32.947 18.167 44.693 5.7491-47.485 45.827-84.404 94.855-84.404 1.322 0 2.5496 0.26945 3.8586 0.32334-12-15.605-30.101-26.207-51.29-26.207z"/>
  </g>
  <metadata>
    <rdf:RDF>
      <cc:Work>
        <dc:format>image/svg+xml</dc:format>
        <dc:type rdf:resource="http://purl.org/dc/dcmitype/StillImage"/>
        <cc:license rdf:resource="http://creativecommons.org/licenses/publicdomain/"/>
        <dc:publisher>
          <cc:Agent rdf:about="http://openclipart.org/">
            <dc:title>Openclipart</dc:title>
          </cc:Agent>
        </dc:publisher>
        <dc:title>OK icon</dc:title>
        <dc:date>2010-10-09T13:35:09</dc:date>
        <dc:description>Green round glosy OK icon</dc:description>
        <dc:source>https://openclipart.org/detail/89245/ok-icon-by-kuba</dc:source>
        <dc:creator>
          <cc:Agent>
            <dc:title>kuba</dc:title>
          </cc:Agent>
        </dc:creator>
        <dc:subject>
          <rdf:Bag>
            <rdf:li>button</rdf:li>
            <rdf:li>check</rdf:li>
            <rdf:li>glosy</rdf:li>
            <rdf:li>green</rdf:li>
            <rdf:li>icon</rdf:li>
            <rdf:li>ok</rdf:li>
            <rdf:li>round</rdf:li>
          </rdf:Bag>
        </dc:subject>
      </cc:Work>
      <cc:License rdf:about="http://creativecommons.org/licenses/publicdomain/">
        <cc:permits rdf:resource="http://creativecommons.org/ns#Reproduction"/>
        <cc:permits rdf:resource="http://creativecommons.org/ns#Distribution"/>
        <cc:permits rdf:resource="http://creativecommons.org/ns#DerivativeWorks"/>
      </cc:License>
    </rdf:RDF>
  </metadata>
</svg>
