<svg xmlns="http://www.w3.org/2000/svg" version="1.1" xmlns:xlink="http://www.w3.org/1999/xlink" width="512" height="512" x="0" y="0" viewBox="0 0 512 512" style="enable-background:new 0 0 512 512" xml:space="preserve" class=""><g><path fill="#ffffff" d="M60.7 0h117.6C211.8 0 239 27.2 239 60.7v117.9c0 33.5-27.2 60.7-60.7 60.7H60.7C27.2 239.3 0 212.1 0 178.6V60.7C0 27.2 27.2 0 60.7 0z" opacity="1" data-original="#2c5ede" class=""></path><path fill="#440099" d="M333.7 0h117.6C484.8 0 512 27.2 512 60.7v117.9c0 33.5-27.2 60.7-60.7 60.7H333.7c-33.5 0-60.7-27.2-60.7-60.7V60.7C273 27.2 300.2 0 333.7 0z" opacity="1" data-original="#95baf9" class=""></path><g fill="#2c5ede"><path d="M60.7 272.7h117.6c33.5 0 60.7 27.2 60.7 60.7v117.9c0 33.5-27.2 60.7-60.7 60.7H60.7C27.2 512 0 484.8 0 451.3V333.4c0-33.5 27.2-60.7 60.7-60.7zM333.7 272.7h117.6c33.5 0 60.7 27.2 60.7 60.7v117.9c0 33.5-27.2 60.7-60.7 60.7H333.7c-33.5 0-60.7-27.2-60.7-60.7V333.4c0-33.5 27.2-60.7 60.7-60.7z" fill="#ffffff" opacity="1" data-original="#2c5ede" class=""></path></g></g></svg>