<svg xmlns="http://www.w3.org/2000/svg" version="1.1" xmlns:xlink="http://www.w3.org/1999/xlink" width="512" height="512" x="0" y="0" viewBox="0 0 32 32" style="enable-background:new 0 0 512 512" xml:space="preserve" fill-rule="evenodd" class=""><g><path fill="#498cb3" d="M26.998 2A3.002 3.002 0 0 1 30 5v1a3.002 3.002 0 0 1-3.002 3H13.002A3.002 3.002 0 0 1 10 6V5a3.002 3.002 0 0 1 3.002-3zM19 23c.796 0 1.559.316 2.12.879A2.99 2.99 0 0 1 22.003 26v1a2.99 2.99 0 0 1-.882 2.121A2.995 2.995 0 0 1 19 30H4.998A3.002 3.002 0 0 1 2 27v-1a3.002 3.002 0 0 1 2.999-3z" opacity="1" data-original="#61bddc" class=""></path><path fill="#56bbea" d="M22.999 12.5a3.002 3.002 0 0 1 3.002 3v1a3.002 3.002 0 0 1-3.002 3h-14A3.002 3.002 0 0 1 6 16.5v-1a3.002 3.002 0 0 1 2.998-3z" opacity="1" data-original="#12475b" class=""></path></g></svg>