<svg id="Layer_1" enable-background="new 0 0 464.18 464.18" height="512" viewBox="0 0 464.18 464.18" width="512" xmlns="http://www.w3.org/2000/svg"><path d="m386.091 416.92v39.26c0 4.418-3.582 8-8 8h-292c-4.418 0-8-3.582-8-8v-39.26c0-30.19 17.95-56.2 43.76-67.93-10.531-8.379-26.582-19.641-38.26-43.87-16.265-33.698-13.481-73.452 7.24-104.57 11.26-16.9 17.26-36.74 17.26-57.04v-43.33c0-55.228 44.772-100 100-100h48c55.232 0 100 44.787 100 100.019 0 45.871-1.12 54.856 4.41 73.101 7.805 25.801 18.114 28.993 26.06 55.25 12.491 41.274-1.325 86.287-35.37 113.39l-8.86 7.05c25.81 11.73 43.76 37.74 43.76 67.93z" fill="#ffebd2"/><path d="m272.041 313.58c-25.267 11.274-54.971 11.123-79.9 0 2.298-7.166 1.95-12.133 1.95-19.83 23.661 9.849 51.215 10.316 76 0 0 7.582-.362 12.622 1.95 19.83z" fill="#ffdfba"/><path d="m386.091 416.92v39.26c0 4.42-3.58 8-8 8h-292c-4.42 0-8-3.58-8-8v-39.26c0-41.167 33.374-74.57 74.57-74.57 9.15 0 17.61-2.96 24.47-7.98l1.8 11.65c31.3 24.23 75.02 24.23 106.32 0l1.8-11.65c18.638 13.639 29.125 2.754 55.28 14.62 25.81 11.73 43.76 37.74 43.76 67.93z" fill="#ffa4b8"/><path d="m285.251 346.02-18.2 118.16h-69.92l-18.2-118.16c31.3 24.23 75.02 24.23 106.32 0z" fill="#e3f7fc"/><path d="m203.054 464.18h-5.923l-18.2-118.16c12.088 9.369 16.491 8.076 17.455 14.33l14.575 94.612c.746 4.847-3.003 9.218-7.907 9.218z" fill="#caf1fc"/><path d="m373.251 200.4c30.57 45.736 20.966 107.287-22.06 141.54l-8.86 7.05c-9.39-4.26-19.82-6.64-30.81-6.64-22.799 0-41.43-18.42-41.43-41.34v-7.26c35.82-14.9 61-50.23 61-91.44v-45.27c0-6.166-3.536-11.787-9.105-14.434-10.909-5.185-20.252-13.075-27.182-23.031-4.949-7.109-14.565-9.143-21.851-4.458-35.58 22.876-78.104 34.953-123.111 32.608-9.119-.475-16.751 6.851-16.751 15.982v38.603c0 41.21 25.18 76.54 61 91.44v7.26c0 22.896-18.605 41.34-41.43 41.34-10.99 0-21.42 2.38-30.81 6.64-10.489-8.346-26.577-19.63-38.26-43.87-16.254-33.675-13.494-73.432 7.24-104.57 11.26-16.9 17.26-36.74 17.26-57.04 0-.61 0-19.47 0-43.33 0-55.22 44.77-100 100-100h48c55.228 0 100 44.772 100 100v43.33c0 20.24 5.91 40.07 17.16 56.89z" fill="#42434d"/><path d="m301.266 10.942c10.212 5.18 5.774 20.767-5.626 19.688-7.563-.716-58.55-.45-57.55-.45-55.228 0-100 44.772-100 100v32.168c0 7.184-5 6.952-5 12.772 0 52.822.214 29.478-.561 31.757-7.845 23.078-17.266 26.418-24.909 51.673-4.163 13.756-5.393 27.922-3.951 41.669 1.177 11.22-14.446 16.587-20.079 4.901-16.149-33.457-13.62-73.243 7.24-104.57 11.26-16.9 17.26-36.74 17.26-57.04v-43.33c0-55.228 44.772-100 100-100 49.943 0 67.119-2.456 93.176 10.762z" fill="#585966"/><path d="m199.701 295.81c-40.777-14.336-66.61-51.849-66.61-93.5v-38.6c0-9.1 7.59-16.42 16.67-15.99 0 0 2.594.135 4.6.19 8.22.25 14.73 7.04 14.73 15.26v23.14c0 34.83 17.76 64.74 44.02 82.32 14.94 10 3.55 33.13-13.41 27.18z" fill="#fff3e4"/><path d="m181.911 365.37c-45.684 1.242-74.82 36.356-74.82 74.55v16.26c0 4.42-3.58 8-8 8h-13c-4.42 0-8-3.58-8-8 0-43.34-.047-40.621.13-43.62 1.177-24.699 15.667-49.362 40.98-62.3 27.341-13.682 39.451-2.018 57.93-15.89 2.273 14.716 1.209 7.813 4.78 31z" fill="#ffbfcb"/><path d="m282.265 365.37c45.684 1.242 74.82 36.356 74.82 74.55v16.26c0 4.42 3.58 8 8 8h13c4.42 0 8-3.58 8-8 0-43.34.047-40.621-.13-43.62-1.177-24.699-15.667-49.362-40.98-62.3-27.341-13.682-39.451-2.018-57.93-15.89-2.274 14.716-1.209 7.813-4.78 31z" fill="#ff8ca5"/></svg>