<?xml version="1.0"?>
<svg xmlns="http://www.w3.org/2000/svg" xmlns:xlink="http://www.w3.org/1999/xlink" xmlns:svgjs="http://svgjs.com/svgjs" version="1.1" width="512" height="512" x="0" y="0" viewBox="0 0 32 32" style="enable-background:new 0 0 512 512" xml:space="preserve" class=""><g><g xmlns="http://www.w3.org/2000/svg" id="_x30_1"><path d="m16 2c-7.72 0-14 6.28-14 14s6.28 14 14 14 14-6.28 14-14-6.28-14-14-14zm6.87 10.38-7.75 9.14c-.17.2-.42.33-.68.35h-.08c-.24 0-.47-.08-.65-.24l-4.47-3.83c-.41-.36-.46-1-.1-1.41.36-.42.99-.47 1.41-.11l3.7 3.18 7.09-8.38c.36-.42.99-.47 1.41-.11.42.35.47.99.12 1.41z" fill="#5a9c6d" data-original="#000000"/></g></g></svg>
